LINESeedJP-Bold.glyphspackage
{
glyphname = exclam;
layers = (
{
hints = (
{
horizontal = 1;
place = (-48, 171);
place = (-48, 171);
type = Stem;
},
{
place = (79, 119);
place = (79, 119);
type = Stem;
},
{
place = (53, 176);
place = (53, 176);
type = Stem;
}
);
layerId = m01;
shapes = (
{
closed = 1;
nodes = (
(184,205,ls),
(193,205,o),
(198,209,o),
(198,219,cs),
(209,743,ls),
(209,751,o),
(204,757,o),
(195,757,cs),
(82,757,ls),
(74,757,o),
(68,751,o),
(68,743,cs),
(79,219,ls),
(79,209,o),
(84,205,o),
(93,205,cs)
);
},
{
closed = 1;
nodes = (
(53,-12,o),
(91,-48,o),
(141,-48,cs),
(191,-48,o),
(229,-12,o),
(229,38,cs),
(229,88,o),
(191,123,o),
(141,123,cs),
(91,123,o),
(53,88,o),
(53,38,cs)
);
}
);
vertWidth = 1000;
width = 282;
}
);
note = cid00002;
unicode = 33;
}
{
glyphname = quotedbl;
kernLeft = quotedbl;
kernRight = quotedbl;
layers = (
{
hints = (
{
horizontal = 1;
place = (460, 298);
place = (460, 298);
type = Stem;
},
{
place = (79, 134);
place = (79, 134);
type = Stem;
},
{
place = (286, 134);
place = (286, 134);
type = Stem;
}
);
layerId = m01;
shapes = (
{
closed = 1;
nodes = (
(183,460,ls),
(192,460,o),
(198,466,o),
(198,474,cs),
(213,744,ls),
(213,753,o),
(209,758,o),
(200,758,cs),
(92,758,ls),
(83,758,o),
(79,753,o),
(79,744,cs),
(94,474,ls),
(94,466,o),
(101,460,o),
(109,460,cs)
);
},
{
closed = 1;
nodes = (
(301,474,ls),
(301,466,o),
(308,460,o),
(316,460,cs),
(390,460,ls),
(399,460,o),
(405,466,o),
(405,474,cs),
(420,744,ls),
(420,753,o),
(416,758,o),
(407,758,cs),
(299,758,ls),
(290,758,o),
(286,753,o),
(286,744,cs)
);
}
);
vertWidth = 1000;
width = 499;
}
);
note = cid00003;
unicode = 34;
}
{
glyphname = numbersign;
layers = (
{
hints = (
{
horizontal = 1;
place = (155, 117);
place = (155, 117);
type = Stem;
},
{
horizontal = 1;
place = (451, 117);
place = (451, 117);
type = Stem;
},
{
place = (46, 745);
place = (46, 745);
type = Stem;
}
);
layerId = m01;
shapes = (
{
closed = 1;
nodes = (
(232,-37,ls),
(239,-37,o),
(246,-33,o),
(248,-25,cs),
(289,155,l),
(454,155,l),
(414,-22,ls),
(412,-32,o),
(417,-37,o),
(427,-37,cs),
(518,-37,ls),
(525,-37,o),
(532,-33,o),
(534,-25,cs),
(575,155,l),
(688,155,ls),
(695,155,o),
(701,160,o),
(703,168,cs),
(722,256,ls),
(725,266,o),
(719,272,o),
(709,272,cs),
(602,272,l),
(643,451,l),
(756,451,ls),
(764,451,o),
(769,457,o),
(771,464,cs),
(791,553,ls),
(793,563,o),
(787,568,o),
(778,568,cs),
(670,568,l),
(709,741,l),
(712,750,o),
(706,756,o),
(696,756,cs),
(604,756,ls),
(597,756,o),
(590,751,o),
(588,744,cs),
(548,568,l),
(383,568,l),
(422,741,l),
(425,750,o),
(419,756,o),
(409,756,cs),
(317,756,ls),
(310,756,o),
(303,751,o),
(301,744,cs),
(261,568,l),
(149,568,ls),
(142,568,o),
(136,563,o),
(134,555,cs),
(115,467,ls),
(113,457,o),
(118,451,o),
(128,451,cs),
(235,451,l),
(194,272,l),
(81,272,ls),
(74,272,o),
(68,266,o),
(66,259,cs),
(47,170,ls),
(44,160,o),
(50,155,o),
(60,155,cs),
(167,155,l),
(127,-22,ls),
(125,-32,o),
(130,-37,o),
(140,-37,cs)
);
},
{
closed = 1;
nodes = (
(481,272,l),
(315,272,l),
(356,451,l),
(522,451,l)
);
}
);
vertWidth = 1000;
width = 837;
}
);
note = cid00004;
unicode = 35;
}
{
glyphname = dollar;
layers = (
{
hints = (
{
horizontal = 1;
place = (-2, 21);
target = up;
type = BottomGhost;
},
{
place = (65, 146);
place = (65, 146);
type = Stem;
},
{
place = (277, 109);
place = (277, 109);
type = Stem;
},
{
place = (441, 145);
place = (441, 145);
type = Stem;
}
);
layerId = m01;
shapes = (
{
closed = 1;
nodes = (
(371,-107,ls),
(380,-107,o),
(386,-102,o),
(386,-93,cs),
(386,1,l),
(506,20,o),
(586,99,o),
(586,203,cs),
(586,312,o),
(519,385,o),
(387,422,c),
(386,422,l),
(386,585,l),
(418,573,o),
(441,550,o),
(456,515,cs),
(458,509,o),
(462,505,o),
(468,505,cs),
(469,505,o),
(471,505,o),
(473,506,c),
(578,535,ls),
(585,537,o),
(589,540,o),
(589,546,cs),
(588,552,l),
(557,645,o),
(486,702,o),
(386,718,c),
(386,811,ls),
(386,820,o),
(380,825,o),
(371,825,cs),
(291,825,ls),
(283,825,o),
(277,820,o),
(277,811,cs),
(277,719,l),
(153,704,o),
(65,623,o),
(65,519,cs),
(65,418,o),
(134,346,o),
(266,311,c),
(277,307,l),
(277,128,l),
(223,137,o),
(186,166,o),
(167,213,cs),
(165,220,o),
(160,224,o),
(154,224,c),
(49,195,ls),
(42,193,o),
(38,188,o),
(38,182,cs),
(38,180,o),
(38,178,o),
(39,176,cs),
(77,73,o),
(161,11,o),
(277,-2,c),
(277,-93,ls),
(277,-102,o),
(283,-107,o),
(291,-107,cs)
);
},
{
closed = 1;
nodes = (
(211,558,o),
(236,580,o),
(277,590,c),
(277,454,l),
(229,471,o),
(211,490,o),
(211,524,cs)
);
},
{
closed = 1;
nodes = (
(386,275,l),
(423,256,o),
(441,236,o),
(441,205,cs),
(441,168,o),
(422,144,o),
(386,132,c)
);
}
);
vertWidth = 1000;
width = 645;
}
);
note = cid00005;
unicode = 36;
}
{
glyphname = percent;
layers = (
{
hints = (
{
horizontal = 1;
place = (-48, 98);
place = (-48, 98);
type = Stem;
},
{
horizontal = 1;
place = (312, 97);
place = (312, 97);
type = Stem;
},
{
horizontal = 1;
place = (671, 98);
place = (671, 98);
type = Stem;
},
{
place = (27, 119);
place = (27, 119);
type = Stem;
},
{
place = (293, 120);
place = (293, 120);
type = Stem;
},
{
place = (597, 119);
place = (597, 119);
type = Stem;
},
{
place = (863, 119);
place = (863, 119);
type = Stem;
}
);
layerId = m01;
shapes = (
{
closed = 1;
nodes = (
(194,-20,ls),
(192,-23,o),
(191,-25,o),
(191,-28,cs),
(191,-33,o),
(196,-37,o),
(204,-37,cs),
(312,-37,ls),
(319,-37,o),
(325,-34,o),
(329,-27,cs),
(826,741,ls),
(828,744,o),
(829,746,o),
(829,749,cs),
(829,754,o),
(824,758,o),
(817,758,cs),
(708,758,ls),
(701,758,o),
(695,755,o),
(691,748,cs)
);
},
{
closed = 1;
nodes = (
(597,38,o),
(670,-48,o),
(790,-48,cs),
(909,-48,o),
(982,38,o),
(982,181,cs),
(982,324,o),
(909,409,o),
(790,409,cs),
(670,409,o),
(597,324,o),
(597,181,cs)
);
},
{
closed = 1;
nodes = (
(339,312,o),
(413,397,o),
(413,540,cs),
(413,683,o),
(339,769,o),
(220,769,cs),
(101,769,o),
(27,683,o),
(27,540,cs),
(27,397,o),
(101,312,o),
(220,312,cs)
);
},
{
closed = 1;
nodes = (
(716,269,o),
(742,312,o),
(790,312,cs),
(837,312,o),
(863,269,o),
(863,181,cs),
(863,92,o),
(837,50,o),
(790,50,cs),
(742,50,o),
(716,92,o),
(716,181,cs)
);
},
{
closed = 1;
nodes = (
(146,629,o),
(172,671,o),
(220,671,cs),
(268,671,o),
(293,629,o),
(293,540,cs),
(293,451,o),
(268,409,o),
(220,409,cs),
(172,409,o),
(146,451,o),
(146,540,cs)
);
}
);
vertWidth = 1000;
width = 1009;
}
);
note = cid00006;
unicode = 37;
}
{
glyphname = ampersand;
layers = (
{
hints = (
{
horizontal = 1;
place = (-42, 131);
place = (-42, 131);
type = Stem;
},
{
horizontal = 1;
place = (647, 136);
place = (647, 136);
type = Stem;
},
{
place = (52, 140);
place = (52, 140);
type = Stem;
},
{
place = (121, 139);
place = (121, 139);
type = Stem;
}
);
layerId = m01;
shapes = (
{
closed = 1;
nodes = (
(755,47,ls),
(758,50,o),
(759,54,o),
(759,57,cs),
(759,61,o),
(757,65,o),
(752,69,cs),
(645,157,l),
(658,173,o),
(732,275,o),
(732,290,cs),
(732,295,o),
(729,299,o),
(724,303,cs),
(637,362,ls),
(633,365,o),
(630,366,o),
(627,366,cs),
(622,366,o),
(618,363,o),
(615,357,cs),
(593,317,o),
(568,279,o),
(542,243,c),
(436,331,o),
(343,412,o),
(305,453,cs),
(273,487,o),
(260,522,o),
(260,551,cs),
(260,606,o),
(305,647,o),
(355,647,cs),
(389,647,o),
(426,628,o),
(454,585,cs),
(458,579,o),
(462,576,o),
(466,576,cs),
(470,576,o),
(473,577,o),
(476,580,cs),
(555,645,ls),
(559,649,o),
(561,653,o),
(561,658,cs),
(561,661,o),
(560,664,o),
(558,668,cs),
(506,749,o),
(429,783,o),
(354,783,cs),
(235,783,o),
(121,696,o),
(121,571,cs),
(121,528,o),
(135,480,o),
(167,430,c),
(87,372,o),
(52,289,o),
(52,210,cs),
(52,59,o),
(180,-42,o),
(327,-42,cs),
(385,-42,o),
(444,-26,o),
(495,6,cs),
(519,19,o),
(542,37,o),
(564,56,c),
(667,-34,ls),
(670,-37,o),
(674,-39,o),
(678,-39,cs),
(682,-39,o),
(686,-37,o),
(689,-32,c)
);
},
{
closed = 1;
nodes = (
(192,262,o),
(210,303,o),
(250,334,c),
(297,289,o),
(376,219,o),
(462,144,c),
(453,136,o),
(443,128,o),
(433,122,cs),
(401,99,o),
(366,89,o),
(333,89,cs),
(256,89,o),
(192,144,o),
(192,222,cs)
);
}
);
vertWidth = 1000;
width = 782;
}
);
note = cid00007;
unicode = 38;
}
{
glyphname = quotesingle;
kernLeft = quotedbl;
kernRight = quotedbl;
layers = (
{
hints = (
{
horizontal = 1;
place = (460, 298);
place = (460, 298);
type = Stem;
},
{
place = (79, 134);
place = (79, 134);
type = Stem;
}
);
layerId = m01;
shapes = (
{
closed = 1;
nodes = (
(183,460,ls),
(192,460,o),
(198,466,o),
(198,474,cs),
(213,744,ls),
(213,753,o),
(209,758,o),
(200,758,cs),
(92,758,ls),
(83,758,o),
(79,753,o),
(79,744,cs),
(94,474,ls),
(94,466,o),
(101,460,o),
(109,460,cs)
);
}
);
vertWidth = 1000;
width = 292;
}
);
note = cid00008;
unicode = 39;
}
{
glyphname = parenleft;
kernRight = parenleft;
layers = (
{
hints = (
{
horizontal = 1;
place = (-198, 1015);
place = (-198, 1015);
type = Stem;
},
{
place = (54, 150);
place = (54, 150);
type = Stem;
}
);
layerId = m01;
shapes = (
{
closed = 1;
nodes = (
(400,-199,o),
(405,-194,o),
(405,-185,cs),
(405,-80,ls),
(405,-72,o),
(401,-66,o),
(392,-65,cs),
(260,-51,o),
(204,64,o),
(204,310,cs),
(204,555,o),
(260,670,o),
(392,684,cs),
(401,685,o),
(405,691,o),
(405,699,cs),
(405,804,ls),
(405,812,o),
(401,817,o),
(394,817,cs),
(391,817,ls),
(160,803,o),
(54,625,o),
(54,310,cs),
(54,-6,o),
(160,-184,o),
(391,-198,cs)
);
}
);
vertWidth = 1000;
width = 427;
}
);
note = cid00009;
unicode = 40;
}
{
glyphname = parenright;
kernLeft = parenright;
layers = (
{
hints = (
{
horizontal = 1;
place = (-198, 1015);
place = (-198, 1015);
type = Stem;
},
{
place = (223, 150);
place = (223, 150);
type = Stem;
}
);
layerId = m01;
shapes = (
{
closed = 1;
nodes = (
(36,-198,ls),
(266,-184,o),
(373,-6,o),
(373,310,cs),
(373,625,o),
(266,803,o),
(36,817,c),
(27,819,o),
(22,813,o),
(22,804,cs),
(22,699,ls),
(22,691,o),
(26,685,o),
(35,684,cs),
(167,670,o),
(223,555,o),
(223,310,cs),
(223,64,o),
(167,-51,o),
(35,-65,cs),
(26,-66,o),
(22,-72,o),
(22,-80,cs),
(22,-185,ls),
(22,-193,o),
(26,-198,o),
(34,-198,cs)
);
}
);
vertWidth = 1000;
width = 427;
}
);
note = cid00010;
unicode = 41;
}
{
glyphname = asterisk;
kernLeft = asterisk;
kernRight = asterisk;
layers = (
{
hints = (
{
horizontal = 1;
place = (529, -20);
target = down;
type = TopGhost;
},
{
place = (49, 436);
place = (49, 436);
type = Stem;
}
);
layerId = m01;
shapes = (
{
closed = 1;
nodes = (
(133,352,ls),
(136,350,o),
(139,349,o),
(141,349,cs),
(145,349,o),
(149,351,o),
(153,354,c),
(268,470,l),
(381,354,l),
(385,351,o),
(389,349,o),
(393,349,cs),
(395,349,o),
(398,350,o),
(401,352,cs),
(435,377,ls),
(440,380,o),
(442,384,o),
(442,389,cs),
(442,391,o),
(441,394,o),
(440,396,cs),
(362,529,l),
(479,604,l),
(483,608,o),
(485,611,o),
(485,615,cs),
(485,618,o),
(484,621,o),
(483,624,cs),
(464,663,ls),
(461,668,o),
(457,670,o),
(452,670,cs),
(450,670,o),
(447,670,o),
(445,669,cs),
(319,620,l),
(304,745,ls),
(303,754,o),
(298,758,o),
(289,758,cs),
(245,758,ls),
(236,758,o),
(231,754,o),
(230,745,cs),
(214,620,l),
(89,669,ls),
(81,672,o),
(74,670,o),
(70,663,cs),
(51,624,ls),
(50,621,o),
(49,618,o),
(49,615,cs),
(49,611,o),
(51,608,o),
(55,604,c),
(172,529,l),
(94,396,ls),
(90,389,o),
(92,382,o),
(99,377,cs)
);
}
);
vertWidth = 1000;
width = 534;
}
);
note = cid00011;
unicode = 42;
}
{
glyphname = plus;
layers = (
{
hints = (
{
horizontal = 1;
place = (250, 133);
place = (250, 133);
type = Stem;
},
{
place = (257, 136);
place = (257, 136);
type = Stem;
}
);
layerId = m01;
shapes = (
{
closed = 1;
nodes = (
(379,59,ls),
(387,59,o),
(393,66,o),
(393,73,cs),
(393,250,l),
(567,250,ls),
(575,250,o),
(582,256,o),
(582,264,cs),
(582,369,ls),
(582,377,o),
(575,383,o),
(567,383,cs),
(393,383,l),
(393,560,ls),
(393,567,o),
(387,574,o),
(379,574,cs),
(271,574,ls),
(263,574,o),
(257,567,o),
(257,560,cs),
(257,383,l),
(82,383,ls),
(75,383,o),
(68,377,o),
(68,369,cs),
(68,264,ls),
(68,256,o),
(75,250,o),
(82,250,cs),
(257,250,l),
(257,73,ls),
(257,66,o),
(263,59,o),
(271,59,cs)
);
}
);
vertWidth = 1000;
width = 650;
}
);
note = cid00012;
unicode = 43;
}
{
glyphname = comma;
kernLeft = comma;
kernRight = comma;
layers = (
{
hints = (
{
horizontal = 1;
place = (-212, 335);
place = (-212, 335);
type = Stem;
},
{
place = (58, 176);
place = (58, 176);
type = Stem;
}
);
layerId = m01;
shapes = (
{
closed = 1;
nodes = (
(127,-212,ls),
(134,-212,o),
(140,-208,o),
(143,-202,cs),
(186,-105,ls),
(223,-23,o),
(234,6,o),
(234,38,cs),
(234,88,o),
(196,123,o),
(146,123,cs),
(96,123,o),
(58,88,o),
(58,38,cs),
(58,4,o),
(75,-22,o),
(101,-37,c),
(48,-196,ls),
(44,-206,o),
(50,-212,o),
(60,-212,cs)
);
}
);
vertWidth = 1000;
width = 292;
}
);
note = cid00013;
unicode = 44;
}
{
glyphname = hyphen;
kernLeft = hyphen;
kernRight = hyphen;
layers = (
{
hints = (
{
horizontal = 1;
place = (249, 133);
place = (249, 133);
type = Stem;
},
{
place = (76, 352);
place = (76, 352);
type = Stem;
}
);
layerId = m01;
shapes = (
{
closed = 1;
nodes = (
(414,249,ls),
(422,249,o),
(428,254,o),
(428,263,cs),
(428,368,ls),
(428,377,o),
(422,382,o),
(414,382,cs),
(90,382,ls),
(81,382,o),
(76,377,o),
(76,368,cs),
(76,263,ls),
(76,254,o),
(81,249,o),
(90,249,cs)
);
}
);
vertWidth = 1000;
width = 504;
}
);
note = cid00014;
unicode = (45,8209);
}
{
glyphname = period;
kernLeft = comma;
kernRight = comma;
layers = (
{
hints = (
{
horizontal = 1;
place = (-48, 171);
place = (-48, 171);
type = Stem;
},
{
place = (58, 176);
place = (58, 176);
type = Stem;
}
);
layerId = m01;
shapes = (
{
closed = 1;
nodes = (
(196,-48,o),
(234,-12,o),
(234,38,cs),
(234,88,o),
(196,123,o),
(146,123,cs),
(96,123,o),
(58,88,o),
(58,38,cs),
(58,-12,o),
(96,-48,o),
(146,-48,cs)
);
}
);
vertWidth = 1000;
width = 292;
}
);
note = cid00015;
unicode = 46;
}
{
glyphname = slash;
kernLeft = slash;
kernRight = slash;
layers = (
{
hints = (
{
horizontal = 1;
place = (775, -20);
target = down;
type = TopGhost;
},
{
place = (32, 391);
place = (32, 391);
type = Stem;
}
);
layerId = m01;
shapes = (
{
closed = 1;
nodes = (
(156,-156,ls),
(164,-156,o),
(169,-153,o),
(171,-144,cs),
(422,759,ls),
(425,769,o),
(420,775,o),
(410,775,cs),
(299,775,ls),
(291,775,o),
(286,772,o),
(284,763,cs),
(32,-140,ls),
(30,-150,o),
(35,-156,o),
(44,-156,cs)
);
}
);
vertWidth = 1000;
width = 455;
}
);
note = cid00016;
unicode = 47;
}
{
glyphname = zero;
kernLeft = zero;
kernRight = zero;
layers = (
{
hints = (
{
horizontal = 1;
place = (-52, 143);
place = (-52, 143);
type = Stem;
},
{
horizontal = 1;
place = (630, 143);
place = (630, 143);
type = Stem;
},
{
place = (54, 152);
place = (54, 152);
type = Stem;
},
{
place = (519, 151);
place = (519, 151);
type = Stem;
}
);
layerId = m01;
shapes = (
{
closed = 1;
nodes = (
(556,-52,o),
(670,102,o),
(670,360,cs),
(670,619,o),
(556,773,o),
(362,773,cs),
(169,773,o),
(54,619,o),
(54,360,cs),
(54,102,o),
(169,-52,o),
(362,-52,cs)
);
},
{
closed = 1;
nodes = (
(206,545,o),
(265,630,o),
(362,630,cs),
(459,630,o),
(519,545,o),
(519,360,cs),
(519,176,o),
(459,91,o),
(362,91,cs),
(265,91,o),
(206,176,o),
(206,360,cs)
);
}
);
vertWidth = 1000;
width = 725;
}
);
note = cid00017;
unicode = 48;
}
{
glyphname = one;
kernLeft = one;
layers = (
{
hints = (
{
horizontal = 1;
place = (-37, 795);
place = (-37, 795);
type = Stem;
},
{
place = (219, 146);
place = (219, 146);
type = Stem;
}
);
layerId = m01;
shapes = (
{
closed = 1;
nodes = (
(351,-37,ls),
(360,-37,o),
(365,-32,o),
(365,-23,cs),
(365,744,ls),
(365,753,o),
(360,758,o),
(351,758,cs),
(266,758,ls),
(260,758,o),
(255,757,o),
(249,751,cs),
(39,572,ls),
(35,568,o),
(33,565,o),
(33,560,cs),
(33,558,o),
(33,555,o),
(35,552,cs),
(55,513,l),
(59,507,o),
(63,504,o),
(67,504,cs),
(69,504,o),
(72,505,o),
(74,506,cs),
(219,563,l),
(219,-23,ls),
(219,-32,o),
(224,-37,o),
(233,-37,cs)
);
}
);
vertWidth = 1000;
width = 466;
}
);
note = cid00018;
unicode = 49;
}
{
glyphname = two;
kernLeft = two;
kernRight = two;
layers = (
{
hints = (
{
horizontal = 1;
place = (-37, 138);
place = (-37, 138);
type = Stem;
},
{
horizontal = 1;
place = (630, 143);
place = (630, 143);
type = Stem;
},
{
place = (435, 152);
place = (435, 152);
type = Stem;
}
);
layerId = m01;
shapes = (
{
closed = 1;
nodes = (
(597,-37,ls),
(605,-37,o),
(611,-32,o),
(611,-23,cs),
(611,86,ls),
(611,95,o),
(605,101,o),
(597,101,cs),
(306,101,l),
(369,168,ls),
(548,357,o),
(587,440,o),
(587,547,cs),
(587,682,o),
(482,773,o),
(327,773,cs),
(191,773,o),
(89,694,o),
(48,564,cs),
(44,554,o),
(49,549,o),
(57,547,cs),
(168,516,ls),
(177,514,o),
(182,517,o),
(185,526,cs),
(210,594,o),
(258,630,o),
(319,630,cs),
(390,630,o),
(435,592,o),
(435,532,cs),
(435,461,o),
(402,407,o),
(263,251,cs),
(67,30,ls),
(63,25,o),
(61,19,o),
(61,13,cs),
(61,-23,ls),
(61,-32,o),
(66,-37,o),
(75,-37,cs)
);
}
);
vertWidth = 1000;
width = 667;
}
);
note = cid00019;
unicode = 50;
}
{
glyphname = three;
kernLeft = three;
kernRight = three;
layers = (
{
hints = (
{
horizontal = 1;
place = (-52, 143);
place = (-52, 143);
type = Stem;
},
{
horizontal = 1;
place = (313, 124);
place = (313, 124);
type = Stem;
},
{
horizontal = 1;
place = (630, 143);
place = (630, 143);
type = Stem;
},
{
place = (464, 151);
place = (464, 151);
type = Stem;
},
{
place = (443, 152);
place = (443, 152);
type = Stem;
}
);
layerId = m01;
shapes = (
{
closed = 1;
nodes = (
(498,-52,o),
(615,43,o),
(615,185,cs),
(615,281,o),
(560,349,o),
(470,379,c),
(548,415,o),
(595,480,o),
(595,558,cs),
(595,682,o),
(481,773,o),
(327,773,cs),
(191,773,o),
(89,693,o),
(51,563,c),
(49,553,o),
(53,548,o),
(62,546,cs),
(171,516,ls),
(180,514,o),
(185,517,o),
(188,526,cs),
(211,588,o),
(256,630,o),
(324,630,cs),
(393,630,o),
(443,588,o),
(443,530,cs),
(443,475,o),
(392,437,o),
(318,437,cs),
(285,437,ls),
(276,437,o),
(271,432,o),
(271,423,cs),
(271,327,ls),
(271,318,o),
(276,313,o),
(285,313,cs),
(318,313,ls),
(406,313,o),
(464,275,o),
(464,206,cs),
(464,136,o),
(410,91,o),
(327,91,cs),
(250,91,o),
(205,133,o),
(182,195,cs),
(180,202,o),
(175,206,o),
(169,206,c),
(55,175,ls),
(48,173,o),
(44,169,o),
(44,162,cs),
(44,158,l),
(82,28,o),
(185,-52,o),
(327,-52,cs)
);
}
);
vertWidth = 1000;
width = 669;
}
);
note = cid00020;
unicode = 51;
}
{
glyphname = four;
kernLeft = four;
kernRight = four;
layers = (
{
hints = (
{
horizontal = 1;
place = (117, 137);
place = (117, 137);
type = Stem;
},
{
place = (419, 146);
place = (419, 146);
type = Stem;
}
);
layerId = m01;
shapes = (
{
closed = 1;
nodes = (
(551,-37,ls),
(560,-37,o),
(565,-32,o),
(565,-23,cs),
(565,117,l),
(668,117,ls),
(677,117,o),
(682,122,o),
(682,131,cs),
(682,240,ls),
(682,249,o),
(677,254,o),
(668,254,cs),
(565,254,l),
(565,744,ls),
(565,753,o),
(560,758,o),
(551,758,cs),
(470,758,ls),
(462,758,o),
(457,755,o),
(453,749,cs),
(34,184,l),
(29,179,o),
(28,173,o),
(28,167,cs),
(28,131,ls),
(28,122,o),
(34,117,o),
(42,117,cs),
(419,117,l),
(419,-23,ls),
(419,-32,o),
(425,-37,o),
(433,-37,cs)
);
},
{
closed = 1;
nodes = (
(419,254,l),
(238,254,l),
(419,505,l)
);
}
);
vertWidth = 1000;
width = 715;
}
);
note = cid00021;
unicode = 52;
}
{
glyphname = five;
kernLeft = five;
kernRight = five;
layers = (
{
hints = (
{
horizontal = 1;
place = (-52, 143);
place = (-52, 143);
type = Stem;
},
{
horizontal = 1;
place = (354, 127);
place = (354, 127);
type = Stem;
},
{
horizontal = 1;
place = (620, 138);
place = (620, 138);
type = Stem;
},
{
place = (475, 151);
place = (475, 151);
type = Stem;
}
);
layerId = m01;
shapes = (
{
closed = 1;
nodes = (
(510,-52,o),
(626,58,o),
(626,219,cs),
(626,376,o),
(525,481,o),
(378,481,cs),
(314,481,o),
(258,461,o),
(212,424,c),
(231,620,l),
(570,620,ls),
(578,620,o),
(584,626,o),
(584,634,cs),
(584,744,ls),
(584,753,o),
(578,758,o),
(570,758,cs),
(134,758,ls),
(126,758,o),
(121,755,o),
(120,745,cs),
(83,339,ls),
(82,331,o),
(87,325,o),
(93,321,c),
(156,292,ls),
(159,291,o),
(162,290,o),
(165,290,cs),
(168,290,o),
(172,291,o),
(175,293,cs),
(234,338,o),
(280,354,o),
(335,354,cs),
(421,354,o),
(475,302,o),
(475,220,cs),
(475,141,o),
(421,91,o),
(336,91,cs),
(264,91,o),
(211,128,o),
(186,195,cs),
(184,202,o),
(180,206,o),
(173,206,c),
(63,179,ls),
(56,177,o),
(52,173,o),
(52,167,cs),
(52,165,o),
(52,163,o),
(53,161,c),
(93,28,o),
(200,-52,o),
(343,-52,cs)
);
}
);
vertWidth = 1000;
width = 669;
}
);
note = cid00022;
unicode = 53;
}
{
glyphname = six;
kernLeft = six;
kernRight = six;
layers = (
{
hints = (
{
horizontal = 1;
place = (-52, 143);
place = (-52, 143);
type = Stem;
},
{
horizontal = 1;
place = (355, 127);
place = (355, 127);
type = Stem;
},
{
place = (42, 152);
place = (42, 152);
type = Stem;
},
{
place = (467, 154);
place = (467, 154);
type = Stem;
}
);
layerId = m01;
shapes = (
{
closed = 1;
nodes = (
(504,-52,o),
(621,57,o),
(621,219,cs),
(621,375,o),
(518,482,o),
(371,482,cs),
(338,482,o),
(309,476,o),
(280,464,c),
(475,741,ls),
(477,744,o),
(478,747,o),
(478,749,cs),
(478,754,o),
(474,758,o),
(467,758,cs),
(330,758,ls),
(323,758,o),
(317,756,o),
(313,749,cs),
(183,560,ls),
(79,406,o),
(42,323,o),
(42,226,cs),
(42,65,o),
(159,-52,o),
(331,-52,cs)
);
},
{
closed = 1;
nodes = (
(194,302,o),
(250,355,o),
(330,355,cs),
(410,355,o),
(467,302,o),
(467,223,cs),
(467,144,o),
(410,91,o),
(330,91,cs),
(250,91,o),
(194,144,o),
(194,223,cs)
);
}
);
vertWidth = 1000;
width = 660;
}
);
note = cid00023;
unicode = 54;
}
{
glyphname = seven;
kernLeft = seven;
kernRight = seven;
layers = (
{
hints = (
{
horizontal = 1;
place = (620, 138);
place = (620, 138);
type = Stem;
},
{
place = (32, 560);
place = (32, 560);
type = Stem;
}
);
layerId = m01;
shapes = (
{
closed = 1;
nodes = (
(268,-37,ls),
(275,-37,o),
(280,-33,o),
(284,-26,c),
(589,690,ls),
(591,695,o),
(592,701,o),
(592,707,cs),
(592,744,ls),
(592,753,o),
(587,758,o),
(578,758,cs),
(47,758,ls),
(38,758,o),
(32,753,o),
(32,744,cs),
(32,634,ls),
(32,626,o),
(38,620,o),
(47,620,cs),
(402,620,l),
(121,-21,ls),
(117,-31,o),
(122,-37,o),
(132,-37,cs)
);
}
);
vertWidth = 1000;
width = 629;
}
);
note = cid00024;
unicode = 55;
}
{
glyphname = eight;
kernLeft = eight;
kernRight = three;
layers = (
{
hints = (
{
horizontal = 1;
place = (-52, 131);
place = (-52, 131);
type = Stem;
},
{
horizontal = 1;
place = (321, 110);
place = (321, 110);
type = Stem;
},
{
horizontal = 1;
place = (642, 131);
place = (642, 131);
type = Stem;
},
{
place = (49, 149);
place = (49, 149);
type = Stem;
},
{
place = (497, 150);
place = (497, 150);
type = Stem;
},
{
place = (69, 151);
place = (69, 151);
type = Stem;
},
{
place = (475, 151);
place = (475, 151);
type = Stem;
}
);
layerId = m01;
shapes = (
{
closed = 1;
nodes = (
(525,-52,o),
(647,43,o),
(647,184,cs),
(647,272,o),
(590,347,o),
(500,381,c),
(578,415,o),
(626,483,o),
(626,559,cs),
(626,685,o),
(512,773,o),
(348,773,cs),
(183,773,o),
(69,685,o),
(69,559,cs),
(69,483,o),
(117,415,o),
(195,381,c),
(105,347,o),
(49,272,o),
(49,184,cs),
(49,43,o),
(170,-52,o),
(348,-52,cs)
);
},
{
closed = 1;
nodes = (
(198,272,o),
(260,321,o),
(348,321,cs),
(435,321,o),
(497,272,o),
(497,202,cs),
(497,131,o),
(435,79,o),
(348,79,cs),
(260,79,o),
(198,131,o),
(198,202,cs)
);
},
{
closed = 1;
nodes = (
(220,597,o),
(272,642,o),
(348,642,cs),
(423,642,o),
(475,597,o),
(475,538,cs),
(475,474,o),
(423,431,o),
(348,431,cs),
(272,431,o),
(220,474,o),
(220,538,cs)
);
}
);
vertWidth = 1000;
width = 695;
}
);
note = cid00025;
unicode = 56;
}
{
glyphname = nine;
kernLeft = nine;
kernRight = nine;
layers = (
{
hints = (
{
horizontal = 1;
place = (239, 127);
place = (239, 127);
type = Stem;
},
{
horizontal = 1;
place = (630, 143);
place = (630, 143);
type = Stem;
},
{
place = (38, 154);
place = (38, 154);
type = Stem;
},
{
place = (465, 151);
place = (465, 151);
type = Stem;
}
);
layerId = m01;
shapes = (
{
closed = 1;
nodes = (
(317,-37,ls),
(325,-37,o),
(330,-34,o),
(335,-28,cs),
(472,161,ls),
(582,312,o),
(616,398,o),
(616,495,cs),
(616,656,o),
(499,773,o),
(327,773,cs),
(155,773,o),
(38,664,o),
(38,502,cs),
(38,346,o),
(141,239,o),
(287,239,cs),
(318,239,o),
(347,245,o),
(374,255,c),
(173,-20,ls),
(171,-23,o),
(170,-26,o),
(170,-28,cs),
(170,-33,o),
(174,-37,o),
(182,-37,cs)
);
},
{
closed = 1;
nodes = (
(192,577,o),
(248,630,o),
(328,630,cs),
(408,630,o),
(465,577,o),
(465,498,cs),
(465,419,o),
(408,366,o),
(328,366,cs),
(248,366,o),
(192,419,o),
(192,498,cs)
);
}
);
vertWidth = 1000;
width = 658;
}
);
note = cid00026;
unicode = 57;
}
{
glyphname = colon;
kernLeft = colon;
layers = (
{
hints = (
{
horizontal = 1;
place = (-48, 171);
place = (-48, 171);
type = Stem;
},
{
horizontal = 1;
place = (355, 171);
place = (355, 171);
type = Stem;
},
{
place = (58, 176);
place = (58, 176);
type = Stem;
}
);
layerId = m01;
shapes = (
{
closed = 1;
nodes = (
(196,355,o),
(234,391,o),
(234,441,cs),
(234,490,o),
(196,526,o),
(146,526,cs),
(96,526,o),
(58,490,o),
(58,441,cs),
(58,391,o),
(96,355,o),
(146,355,cs)
);
},
{
closed = 1;
nodes = (
(58,-12,o),
(96,-48,o),
(146,-48,cs),
(196,-48,o),
(234,-12,o),
(234,38,cs),
(234,88,o),
(196,123,o),
(146,123,cs),
(96,123,o),
(58,88,o),
(58,38,cs)
);
}
);
vertWidth = 1000;
width = 292;
}
);
note = cid00027;
unicode = 58;
}
{
glyphname = semicolon;
kernLeft = colon;
layers = (
{
hints = (
{
horizontal = 1;
place = (355, 171);
place = (355, 171);
type = Stem;
},
{
place = (58, 176);
place = (58, 176);
type = Stem;
}
);
layerId = m01;
shapes = (
{
closed = 1;
nodes = (
(196,355,o),
(234,391,o),
(234,441,cs),
(234,490,o),
(196,526,o),
(146,526,cs),
(96,526,o),
(58,490,o),
(58,441,cs),
(58,391,o),
(96,355,o),
(146,355,cs)
);
},
{
closed = 1;
nodes = (
(48,-196,ls),
(44,-206,o),
(50,-212,o),
(60,-212,cs),
(127,-212,ls),
(134,-212,o),
(140,-208,o),
(143,-202,cs),
(186,-105,ls),
(223,-23,o),
(234,6,o),
(234,38,cs),
(234,88,o),
(196,123,o),
(146,123,cs),
(96,123,o),
(58,88,o),
(58,38,cs),
(58,4,o),
(75,-22,o),
(101,-37,c)
);
}
);
vertWidth = 1000;
width = 292;
}
);
note = cid00028;
unicode = 59;
}
{
glyphname = less;
layers = (
{
hints = (
{
horizontal = 1;
place = (43, 533);
place = (43, 533);
type = Stem;
},
{
place = (76, 467);
place = (76, 467);
type = Stem;
}
);
layerId = m01;
shapes = (
{
closed = 1;
nodes = (
(543,173,ls),
(543,181,o),
(538,187,o),
(532,190,cs),
(280,311,l),
(532,431,ls),
(538,434,o),
(543,441,o),
(543,448,cs),
(543,564,ls),
(543,572,o),
(540,576,o),
(534,576,cs),
(532,576,o),
(529,575,o),
(526,574,cs),
(86,355,ls),
(79,352,o),
(76,345,o),
(76,338,cs),
(76,281,ls),
(76,274,o),
(79,267,o),
(86,264,cs),
(526,45,l),
(536,41,o),
(543,44,o),
(543,55,cs)
);
}
);
vertWidth = 1000;
width = 650;
}
);
note = cid00029;
unicode = 60;
}
{
glyphname = equal;
layers = (
{
hints = (
{
horizontal = 1;
place = (109, 133);
place = (109, 133);
type = Stem;
},
{
horizontal = 1;
place = (388, 133);
place = (388, 133);
type = Stem;
},
{
place = (68, 514);
place = (68, 514);
type = Stem;
}
);
layerId = m01;
shapes = (
{
closed = 1;
nodes = (
(567,388,ls),
(575,388,o),
(582,394,o),
(582,402,cs),
(582,507,ls),
(582,514,o),
(575,521,o),
(567,521,cs),
(82,521,ls),
(75,521,o),
(68,514,o),
(68,507,cs),
(68,402,ls),
(68,394,o),
(75,388,o),
(82,388,cs)
);
},
{
closed = 1;
nodes = (
(68,123,ls),
(68,116,o),
(75,109,o),
(82,109,cs),
(567,109,ls),
(575,109,o),
(582,116,o),
(582,123,cs),
(582,228,ls),
(582,236,o),
(575,242,o),
(567,242,cs),
(82,242,ls),
(75,242,o),
(68,236,o),
(68,228,cs)
);
}
);
vertWidth = 1000;
width = 650;
}
);
note = cid00030;
unicode = 61;
}
{
glyphname = greater;
layers = (
{
hints = (
{
horizontal = 1;
place = (43, 533);
place = (43, 533);
type = Stem;
},
{
place = (107, 467);
place = (107, 467);
type = Stem;
}
);
layerId = m01;
shapes = (
{
closed = 1;
nodes = (
(564,264,ls),
(571,267,o),
(574,274,o),
(574,281,cs),
(574,338,ls),
(574,345,o),
(571,352,o),
(564,355,cs),
(123,574,ls),
(114,578,o),
(107,575,o),
(107,564,cs),
(107,446,ls),
(107,438,o),
(112,432,o),
(118,429,cs),
(369,308,l),
(118,188,ls),
(112,185,o),
(107,179,o),
(107,171,cs),
(107,55,ls),
(107,47,o),
(111,43,o),
(116,43,cs),
(118,43,o),
(120,44,o),
(123,45,cs)
);
}
);
vertWidth = 1000;
width = 650;
}
);
note = cid00031;
unicode = 62;
}
{
glyphname = question;
kernLeft = question;
layers = (
{
hints = (
{
horizontal = 1;
place = (-48, 166);
place = (-48, 166);
type = Stem;
},
{
horizontal = 1;
place = (182, 221);
place = (182, 221);
type = Stem;
},
{
horizontal = 1;
place = (630, 143);
place = (630, 143);
type = Stem;
},
{
place = (205, 133);
place = (205, 133);
type = Stem;
},
{
place = (407, 152);
place = (407, 152);
type = Stem;
},
{
place = (184, 173);
place = (184, 173);
type = Stem;
}
);
layerId = m01;
shapes = (
{
closed = 1;
nodes = (
(324,182,ls),
(332,182,o),
(338,186,o),
(338,196,cs),
(340,284,l),
(482,307,o),
(559,415,o),
(559,538,cs),
(559,681,o),
(454,773,o),
(304,773,cs),
(170,773,o),
(69,702,o),
(27,582,cs),
(24,574,o),
(28,567,o),
(37,565,cs),
(151,536,ls),
(158,534,o),
(165,537,o),
(169,545,cs),
(193,598,o),
(233,630,o),
(293,630,cs),
(365,630,o),
(407,589,o),
(407,524,cs),
(407,454,o),
(361,403,o),
(253,403,cs),
(214,403,ls),
(206,403,o),
(200,397,o),
(200,389,cs),
(205,196,ls),
(205,186,o),
(210,182,o),
(219,182,cs)
);
},
{
closed = 1;
nodes = (
(184,-14,o),
(222,-48,o),
(271,-48,cs),
(319,-48,o),
(357,-14,o),
(357,36,cs),
(357,85,o),
(319,118,o),
(271,118,cs),
(222,118,o),
(184,85,o),
(184,36,cs)
);
}
);
vertWidth = 1000;
width = 603;
}
);
note = cid00032;
unicode = 63;
}
{
glyphname = at;
kernLeft = at;
kernRight = at;
layers = (
{
hints = (
{
horizontal = 1;
place = (-280, 110);
place = (-280, 110);
type = Stem;
},
{
horizontal = 1;
place = (-48, 114);
place = (-48, 114);
type = Stem;
},
{
horizontal = 1;
place = (360, 114);
place = (360, 114);
type = Stem;
},
{
horizontal = 1;
place = (600, 109);
place = (600, 109);
type = Stem;
},
{
place = (61, 119);
place = (61, 119);
type = Stem;
},
{
place = (288, 128);
place = (288, 128);
type = Stem;
},
{
place = (689, 117);
place = (689, 117);
type = Stem;
},
{
place = (945, 120);
place = (945, 120);
type = Stem;
},
{
horizontal = 1;
place = (-48, 112);
place = (-48, 112);
type = Stem;
},
{
horizontal = 1;
place = (360, 103);
place = (360, 103);
type = Stem;
},
{
place = (697, 109);
place = (697, 109);
type = Stem;
}
);
layerId = m01;
shapes = (
{
closed = 1;
nodes = (
(617,-280,o),
(664,-275,o),
(707,-264,cs),
(714,-263,o),
(717,-257,o),
(717,-249,cs),
(717,-172,ls),
(717,-164,o),
(713,-159,o),
(706,-159,cs),
(702,-159,l),
(665,-167,o),
(625,-170,o),
(578,-170,cs),
(345,-170,o),
(180,-48,o),
(180,209,cs),
(180,473,o),
(350,600,o),
(572,600,cs),
(800,600,o),
(945,475,o),
(945,246,cs),
(945,137,o),
(913,64,o),
(867,64,cs),
(825,64,o),
(806,89,o),
(806,142,cs),
(806,449,ls),
(806,458,o),
(800,463,o),
(792,463,cs),
(712,463,ls),
(703,463,o),
(697,459,o),
(697,449,cs),
(695,389,l),
(658,442,o),
(598,474,o),
(529,474,cs),
(384,474,o),
(288,368,o),
(288,213,cs),
(288,58,o),
(384,-48,o),
(529,-48,cs),
(606,-48,o),
(674,-7,o),
(707,58,c),
(720,-10,o),
(777,-48,o),
(848,-48,cs),
(976,-48,o),
(1065,69,o),
(1065,246,cs),
(1065,521,o),
(874,709,o),
(572,709,cs),
(272,709,o),
(61,511,o),
(61,209,cs),
(61,-76,o),
(252,-280,o),
(558,-280,cs)
);
},
{
closed = 1;
nodes = (
(416,300,o),
(472,360,o),
(552,360,cs),
(632,360,o),
(689,300,o),
(689,213,cs),
(689,127,o),
(632,66,o),
(552,66,cs),
(472,66,o),
(416,127,o),
(416,213,cs)
);
}
);
vertWidth = 1000;
width = 1125;
}
);
note = cid00033;
unicode = 64;
}
{
glyphname = A;
kernLeft = A;
kernRight = A;
layers = (
{
hints = (
{
horizontal = 1;
place = (122, 136);
place = (122, 136);
type = Stem;
},
{
place = (22, 771);
place = (22, 771);
type = Stem;
}
);
layerId = m01;
shapes = (
{
closed = 1;
nodes = (
(169,-37,ls),
(177,-37,o),
(182,-34,o),
(185,-26,cs),
(242,122,l),
(572,122,l),
(628,-26,ls),
(631,-34,o),
(637,-37,o),
(644,-37,cs),
(781,-37,ls),
(789,-37,o),
(793,-33,o),
(793,-27,cs),
(793,-25,o),
(793,-23,o),
(792,-21,cs),
(474,747,ls),
(471,755,o),
(466,758,o),
(458,758,cs),
(357,758,ls),
(350,758,o),
(344,755,o),
(341,747,cs),
(24,-21,ls),
(19,-31,o),
(25,-37,o),
(35,-37,cs)
);
},
{
closed = 1;
nodes = (
(520,258,l),
(292,258,l),
(406,559,l)
);
}
);
vertWidth = 1000;
width = 815;
}
);
note = cid00034;
unicode = 65;
}
{
glyphname = B;
kernRight = B;
layers = (
{
hints = (
{
horizontal = 1;
place = (-37, 136);
place = (-37, 136);
type = Stem;
},
{
horizontal = 1;
place = (305, 132);
place = (305, 132);
type = Stem;
},
{
horizontal = 1;
place = (621, 137);
place = (621, 137);
type = Stem;
},
{
place = (87, 146);
place = (87, 146);
type = Stem;
},
{
place = (538, 152);
place = (538, 152);
type = Stem;
},
{
place = (500, 150);
place = (500, 150);
type = Stem;
}
);
layerId = m01;
shapes = (
{
closed = 1;
nodes = (
(384,-37,ls),
(599,-37,o),
(690,51,o),
(690,190,cs),
(690,281,o),
(640,353,o),
(540,380,c),
(612,409,o),
(650,475,o),
(650,553,cs),
(650,671,o),
(564,758,o),
(374,758,cs),
(101,758,ls),
(92,758,o),
(87,753,o),
(87,744,cs),
(87,-23,ls),
(87,-32,o),
(92,-37,o),
(101,-37,cs)
);
},
{
closed = 1;
nodes = (
(233,99,l),
(233,305,l),
(389,305,ls),
(486,305,o),
(538,269,o),
(538,203,cs),
(538,136,o),
(486,99,o),
(389,99,cs)
);
},
{
closed = 1;
nodes = (
(233,437,l),
(233,621,l),
(368,621,ls),
(452,621,o),
(500,589,o),
(500,529,cs),
(500,469,o),
(452,437,o),
(368,437,cs)
);
}
);
vertWidth = 1000;
width = 743;
}
);
note = cid00035;
unicode = 66;
}
{
glyphname = D;
kernRight = D;
layers = (
{
hints = (
{
horizontal = 1;
place = (-37, 138);
place = (-37, 138);
type = Stem;
},
{
horizontal = 1;
place = (620, 138);
place = (620, 138);
type = Stem;
},
{
place = (87, 146);
place = (87, 146);
type = Stem;
},
{
place = (615, 152);
place = (615, 152);
type = Stem;
}
);
layerId = m01;
shapes = (
{
closed = 1;
nodes = (
(365,-37,ls),
(629,-37,o),
(767,111,o),
(767,360,cs),
(767,611,o),
(629,758,o),
(365,758,cs),
(101,758,ls),
(92,758,o),
(87,753,o),
(87,744,cs),
(87,-23,ls),
(87,-32,o),
(92,-37,o),
(101,-37,cs)
);
},
{
closed = 1;
nodes = (
(233,101,l),
(233,620,l),
(349,620,ls),
(525,620,o),
(615,527,o),
(615,360,cs),
(615,194,o),
(525,101,o),
(349,101,cs)
);
}
);
vertWidth = 1000;
width = 827;
}
);
note = cid00037;
unicode = 68;
}
{
glyphname = E;
kernRight = E;
layers = (
{
hints = (
{
horizontal = 1;
place = (-37, 138);
place = (-37, 138);
type = Stem;
},
{
horizontal = 1;
place = (304, 136);
place = (304, 136);
type = Stem;
},
{
horizontal = 1;
place = (620, 138);
place = (620, 138);
type = Stem;
},
{
place = (87, 146);
place = (87, 146);
type = Stem;
}
);
layerId = m01;
shapes = (
{
closed = 1;
nodes = (
(616,-37,ls),
(625,-37,o),
(630,-32,o),
(630,-23,cs),
(630,86,ls),
(630,95,o),
(625,101,o),
(616,101,cs),
(233,101,l),
(233,304,l),
(567,304,ls),
(576,304,o),
(582,310,o),
(582,318,cs),
(582,425,ls),
(582,434,o),
(576,440,o),
(567,440,cs),
(233,440,l),
(233,620,l),
(603,620,ls),
(612,620,o),
(617,626,o),
(617,634,cs),
(617,744,ls),
(617,753,o),
(612,758,o),
(603,758,cs),
(101,758,ls),
(92,758,o),
(87,753,o),
(87,744,cs),
(87,-23,ls),
(87,-32,o),
(92,-37,o),
(101,-37,cs)
);
}
);
vertWidth = 1000;
width = 671;
}
);
note = cid00038;
unicode = 69;
}
{
glyphname = F;
kernRight = F;
layers = (
{
hints = (
{
horizontal = 1;
place = (277, 138);
place = (277, 138);
type = Stem;
},
{
horizontal = 1;
place = (620, 138);
place = (620, 138);
type = Stem;
},
{
place = (87, 146);
place = (87, 146);
type = Stem;
}
);
layerId = m01;
shapes = (
{
closed = 1;
nodes = (
(219,-37,ls),
(227,-37,o),
(233,-32,o),
(233,-23,cs),
(233,277,l),
(536,277,ls),
(545,277,o),
(550,282,o),
(550,291,cs),
(550,401,ls),
(550,409,o),
(545,415,o),
(536,415,cs),
(233,415,l),
(233,620,l),
(585,620,ls),
(593,620,o),
(599,626,o),
(599,634,cs),
(599,744,ls),
(599,753,o),
(593,758,o),
(585,758,cs),
(101,758,ls),
(92,758,o),
(87,753,o),
(87,744,cs),
(87,-23,ls),
(87,-32,o),
(92,-37,o),
(101,-37,cs)
);
}
);
vertWidth = 1000;
width = 636;
}
);
note = cid00039;
unicode = 70;
}
{
glyphname = H;
layers = (
{
hints = (
{
horizontal = 1;
place = (302, 138);
place = (302, 138);
type = Stem;
},
{
place = (87, 146);
place = (87, 146);
type = Stem;
},
{
place = (601, 146);
place = (601, 146);
type = Stem;
}
);
layerId = m01;
shapes = (
{
closed = 1;
nodes = (
(219,-37,ls),
(227,-37,o),
(233,-32,o),
(233,-23,cs),
(233,302,l),
(601,302,l),
(601,-23,ls),
(601,-32,o),
(606,-37,o),
(615,-37,cs),
(733,-37,ls),
(742,-37,o),
(747,-32,o),
(747,-23,cs),
(747,744,ls),
(747,753,o),
(742,758,o),
(733,758,cs),
(615,758,ls),
(606,758,o),
(601,753,o),
(601,744,cs),
(601,440,l),
(233,440,l),
(233,744,ls),
(233,753,o),
(227,758,o),
(219,758,cs),
(101,758,ls),
(92,758,o),
(87,753,o),
(87,744,cs),
(87,-23,ls),
(87,-32,o),
(92,-37,o),
(101,-37,cs)
);
}
);
vertWidth = 1000;
width = 834;
}
);
note = cid00041;
unicode = 72;
}
{
glyphname = J;
kernLeft = J;
kernRight = J;
layers = (
{
hints = (
{
horizontal = 1;
place = (-52, 143);
place = (-52, 143);
type = Stem;
},
{
horizontal = 1;
place = (620, 138);
place = (620, 138);
type = Stem;
},
{
place = (360, 146);
place = (360, 146);
type = Stem;
}
);
layerId = m01;
shapes = (
{
closed = 1;
nodes = (
(410,-52,o),
(506,33,o),
(506,233,cs),
(506,744,ls),
(506,753,o),
(500,758,o),
(492,758,cs),
(139,758,ls),
(130,758,o),
(125,753,o),
(125,744,cs),
(125,634,ls),
(125,626,o),
(130,620,o),
(139,620,cs),
(360,620,l),
(360,248,ls),
(360,154,o),
(332,91,o),
(249,91,cs),
(199,91,o),
(165,121,o),
(149,170,cs),
(147,177,o),
(143,182,o),
(136,182,c),
(21,150,ls),
(14,148,o),
(10,145,o),
(10,138,c),
(11,133,ls),
(42,14,o),
(131,-52,o),
(249,-52,cs)
);
}
);
vertWidth = 1000;
width = 587;
}
);
note = cid00043;
unicode = 74;
}
{
glyphname = K;
kernRight = K;
layers = (
{
hints = (
{
horizontal = 1;
place = (-37, 795);
place = (-37, 795);
type = Stem;
},
{
place = (87, 146);
place = (87, 146);
type = Stem;
}
);
layerId = m01;
shapes = (
{
closed = 1;
nodes = (
(219,-37,ls),
(227,-37,o),
(233,-32,o),
(233,-23,cs),
(233,197,l),
(367,349,l),
(586,-27,l),
(589,-34,o),
(595,-37,o),
(602,-37,cs),
(742,-37,ls),
(750,-37,o),
(754,-33,o),
(754,-27,cs),
(754,-25,o),
(753,-23,o),
(752,-20,c),
(464,457,l),
(715,741,l),
(717,744,o),
(719,747,o),
(719,749,cs),
(719,754,o),
(715,758,o),
(707,758,cs),
(569,758,ls),
(562,758,o),
(556,756,o),
(551,750,cs),
(233,380,l),
(233,744,ls),
(233,753,o),
(227,758,o),
(219,758,cs),
(101,758,ls),
(92,758,o),
(87,753,o),
(87,744,cs),
(87,-23,ls),
(87,-32,o),
(92,-37,o),
(101,-37,cs)
);
}
);
vertWidth = 1000;
width = 785;
}
);
note = cid00044;
unicode = 75;
}
{
glyphname = L;
kernRight = L;
layers = (
{
hints = (
{
horizontal = 1;
place = (-37, 140);
place = (-37, 140);
type = Stem;
},
{
place = (87, 146);
place = (87, 146);
type = Stem;
}
);
layerId = m01;
shapes = (
{
closed = 1;
nodes = (
(616,-37,ls),
(625,-37,o),
(630,-32,o),
(630,-23,cs),
(630,89,ls),
(630,97,o),
(625,103,o),
(616,103,cs),
(233,103,l),
(233,744,ls),
(233,753,o),
(227,758,o),
(219,758,cs),
(101,758,ls),
(92,758,o),
(87,753,o),
(87,744,cs),
(87,-23,ls),
(87,-32,o),
(92,-37,o),
(101,-37,cs)
);
}
);
vertWidth = 1000;
width = 663;
}
);
note = cid00045;
unicode = 76;
}
{
glyphname = M;
layers = (
{
hints = (
{
horizontal = 1;
place = (-37, 795);
place = (-37, 795);
type = Stem;
},
{
place = (87, 140);
place = (87, 140);
type = Stem;
},
{
place = (799, 141);
place = (799, 141);
type = Stem;
}
);
layerId = m01;
shapes = (
{
closed = 1;
nodes = (
(213,-37,ls),
(222,-37,o),
(227,-32,o),
(227,-23,cs),
(227,509,l),
(460,124,ls),
(464,118,o),
(469,115,o),
(477,115,cs),
(550,115,ls),
(558,115,o),
(563,118,o),
(566,124,cs),
(799,514,l),
(799,-23,ls),
(799,-32,o),
(805,-37,o),
(813,-37,cs),
(926,-37,ls),
(935,-37,o),
(940,-32,o),
(940,-23,cs),
(940,744,ls),
(940,753,o),
(935,758,o),
(926,758,cs),
(805,758,ls),
(797,758,o),
(792,755,o),
(788,748,cs),
(517,291,l),
(242,748,ls),
(238,755,o),
(233,758,o),
(225,758,cs),
(101,758,ls),
(92,758,o),
(87,753,o),
(87,744,cs),
(87,-23,ls),
(87,-32,o),
(92,-37,o),
(101,-37,cs)
);
}
);
vertWidth = 1000;
width = 1027;
}
);
note = cid00046;
unicode = 77;
}
{
glyphname = O;
kernLeft = C;
kernRight = D;
layers = (
{
hints = (
{
horizontal = 1;
place = (-52, 143);
place = (-52, 143);
type = Stem;
},
{
horizontal = 1;
place = (630, 143);
place = (630, 143);
type = Stem;
},
{
place = (61, 151);
place = (61, 151);
type = Stem;
},
{
place = (710, 152);
place = (710, 152);
type = Stem;
}
);
layerId = m01;
shapes = (
{
closed = 1;
nodes = (
(693,-52,o),
(862,111,o),
(862,360,cs),
(862,610,o),
(693,773,o),
(461,773,cs),
(230,773,o),
(61,610,o),
(61,360,cs),
(61,111,o),
(230,-52,o),
(461,-52,cs)
);
},
{
closed = 1;
nodes = (
(212,517,o),
(309,630,o),
(461,630,cs),
(614,630,o),
(710,517,o),
(710,360,cs),
(710,203,o),
(614,91,o),
(461,91,cs),
(309,91,o),
(212,203,o),
(212,360,cs)
);
}
);
vertWidth = 1000;
width = 923;
}
);
note = cid00048;
unicode = 79;
}
{
glyphname = P;
kernRight = P;
layers = (
{
hints = (
{
horizontal = 1;
place = (203, 136);
place = (203, 136);
type = Stem;
},
{
horizontal = 1;
place = (623, 135);
place = (623, 135);
type = Stem;
},
{
place = (87, 146);
place = (87, 146);
type = Stem;
},
{
place = (505, 151);
place = (505, 151);
type = Stem;
}
);
layerId = m01;
shapes = (
{
closed = 1;
nodes = (
(219,-37,ls),
(227,-37,o),
(233,-32,o),
(233,-23,cs),
(233,203,l),
(341,203,ls),
(550,203,o),
(656,305,o),
(656,481,cs),
(656,656,o),
(550,758,o),
(341,758,cs),
(101,758,ls),
(92,758,o),
(87,753,o),
(87,744,cs),
(87,-23,ls),
(87,-32,o),
(92,-37,o),
(101,-37,cs)
);
},
{
closed = 1;
nodes = (
(233,339,l),
(233,623,l),
(336,623,ls),
(444,623,o),
(505,578,o),
(505,484,cs),
(505,383,o),
(444,339,o),
(336,339,cs)
);
}
);
vertWidth = 1000;
width = 704;
}
);
note = cid00049;
unicode = 80;
}
{
glyphname = Q;
kernLeft = C;
kernRight = Q;
layers = (
{
hints = (
{
horizontal = 1;
place = (-37, 135);
place = (-37, 135);
type = Stem;
},
{
horizontal = 1;
place = (630, 143);
place = (630, 143);
type = Stem;
},
{
place = (61, 151);
place = (61, 151);
type = Stem;
},
{
place = (691, 152);
place = (691, 152);
type = Stem;
},
{
horizontal = 1;
place = (-37, 143);
place = (-37, 143);
type = Stem;
}
);
layerId = m01;
shapes = (
{
closed = 1;
nodes = (
(857,-37,ls),
(865,-37,o),
(871,-32,o),
(871,-23,cs),
(871,84,ls),
(871,93,o),
(865,98,o),
(857,98,cs),
(705,98,l),
(792,156,o),
(843,263,o),
(843,390,cs),
(843,610,o),
(691,773,o),
(456,773,cs),
(219,773,o),
(61,607,o),
(61,364,cs),
(61,120,o),
(213,-37,o),
(467,-37,cs)
);
},
{
closed = 1;
nodes = (
(212,517,o),
(301,630,o),
(452,630,cs),
(602,630,o),
(691,519,o),
(691,369,cs),
(691,218,o),
(602,106,o),
(452,106,cs),
(301,106,o),
(212,218,o),
(212,368,cs)
);
}
);
vertWidth = 1000;
width = 931;
}
);
note = cid00050;
unicode = 81;
}
{
glyphname = R;
kernRight = R;
layers = (
{
hints = (
{
horizontal = 1;
place = (203, 136);
place = (203, 136);
type = Stem;
},
{
horizontal = 1;
place = (623, 135);
place = (623, 135);
type = Stem;
},
{
place = (87, 146);
place = (87, 146);
type = Stem;
},
{
place = (505, 151);
place = (505, 151);
type = Stem;
}
);
layerId = m01;
shapes = (
{
closed = 1;
nodes = (
(219,-37,ls),
(227,-37,o),
(233,-32,o),
(233,-23,cs),
(233,203,l),
(341,203,ls),
(363,203,o),
(382,205,o),
(402,207,c),
(530,-27,l),
(533,-34,o),
(538,-37,o),
(546,-37,cs),
(679,-37,ls),
(687,-37,o),
(691,-33,o),
(691,-27,cs),
(691,-25,o),
(690,-23,o),
(689,-20,c),
(540,251,l),
(619,301,o),
(656,383,o),
(656,481,cs),
(656,660,o),
(561,758,o),
(341,758,cs),
(101,758,ls),
(92,758,o),
(87,753,o),
(87,744,cs),
(87,-23,ls),
(87,-32,o),
(92,-37,o),
(101,-37,cs)
);
},
{
closed = 1;
nodes = (
(233,339,l),
(233,623,l),
(336,623,ls),
(451,623,o),
(505,580,o),
(505,481,cs),
(505,381,o),
(451,339,o),
(336,339,cs)
);
}
);
vertWidth = 1000;
width = 734;
}
);
note = cid00051;
unicode = 82;
}
{
glyphname = T;
kernLeft = T;
kernRight = T;
layers = (
{
hints = (
{
horizontal = 1;
place = (620, 138);
place = (620, 138);
type = Stem;
},
{
place = (291, 147);
place = (291, 147);
type = Stem;
}
);
layerId = m01;
shapes = (
{
closed = 1;
nodes = (
(423,-37,ls),
(432,-37,o),
(438,-32,o),
(438,-23,cs),
(438,620,l),
(682,620,ls),
(691,620,o),
(696,626,o),
(696,634,cs),
(696,744,ls),
(696,753,o),
(691,758,o),
(682,758,cs),
(45,758,ls),
(37,758,o),
(32,753,o),
(32,744,cs),
(32,634,ls),
(32,626,o),
(37,620,o),
(45,620,cs),
(291,620,l),
(291,-23,ls),
(291,-32,o),
(297,-37,o),
(305,-37,cs)
);
}
);
vertWidth = 1000;
width = 729;
}
);
note = cid00053;
unicode = 84;
}
{
glyphname = V;
kernLeft = V;
kernRight = V;
layers = (
{
hints = (
{
horizontal = 1;
place = (-37, 795);
place = (-37, 795);
type = Stem;
},
{
place = (22, 758);
place = (22, 758);
type = Stem;
}
);
layerId = m01;
shapes = (
{
closed = 1;
nodes = (
(452,-37,ls),
(459,-37,o),
(465,-34,o),
(468,-26,cs),
(779,742,ls),
(783,751,o),
(778,758,o),
(768,758,cs),
(634,758,ls),
(626,758,o),
(619,755,o),
(617,747,c),
(403,166,l),
(187,747,l),
(185,755,o),
(179,758,o),
(171,758,cs),
(35,758,ls),
(27,758,o),
(22,754,o),
(22,748,cs),
(22,746,o),
(23,744,o),
(24,742,cs),
(335,-26,ls),
(338,-34,o),
(343,-37,o),
(351,-37,cs)
);
}
);
vertWidth = 1000;
width = 803;
}
);
note = cid00055;
unicode = 86;
}
{
glyphname = W;
kernLeft = W;
kernRight = W;
layers = (
{
hints = (
{
horizontal = 1;
place = (-37, 795);
place = (-37, 795);
type = Stem;
},
{
place = (22, 1158);
place = (22, 1158);
type = Stem;
}
);
layerId = m01;
shapes = (
{
closed = 1;
nodes = (
(416,-37,ls),
(423,-37,o),
(429,-34,o),
(431,-25,c),
(601,493,l),
(771,-25,l),
(773,-34,o),
(779,-37,o),
(786,-37,cs),
(886,-37,ls),
(893,-37,o),
(900,-34,o),
(902,-26,c),
(1179,742,ls),
(1183,751,o),
(1177,758,o),
(1167,758,cs),
(1033,758,ls),
(1026,758,o),
(1020,755,o),
(1018,746,c),
(843,209,l),
(666,746,l),
(664,755,o),
(658,758,o),
(651,758,cs),
(553,758,ls),
(546,758,o),
(540,755,o),
(538,746,c),
(362,210,l),
(187,746,l),
(185,755,o),
(180,758,o),
(172,758,cs),
(35,758,ls),
(27,758,o),
(22,754,o),
(22,747,cs),
(22,746,o),
(22,744,o),
(23,742,cs),
(300,-26,l),
(302,-34,o),
(309,-37,o),
(316,-37,cs)
);
}
);
vertWidth = 1000;
width = 1202;
}
);
note = cid00056;
unicode = 87;
}
{
glyphname = X;
kernLeft = X;
kernRight = X;
layers = (
{
hints = (
{
horizontal = 1;
place = (-37, 795);
place = (-37, 795);
type = Stem;
},
{
place = (24, 690);
place = (24, 690);
type = Stem;
}
);
layerId = m01;
shapes = (
{
closed = 1;
nodes = (
(168,-37,ls),
(175,-37,o),
(181,-34,o),
(184,-27,c),
(367,275,l),
(552,-27,ls),
(557,-34,o),
(561,-37,o),
(569,-37,cs),
(702,-37,ls),
(710,-37,o),
(714,-33,o),
(714,-27,cs),
(714,-25,o),
(713,-23,o),
(712,-20,c),
(460,375,l),
(694,741,ls),
(700,750,o),
(695,758,o),
(684,758,cs),
(552,758,ls),
(545,758,o),
(539,755,o),
(536,748,c),
(370,474,l),
(203,748,ls),
(198,755,o),
(194,758,o),
(186,758,cs),
(53,758,ls),
(45,758,o),
(41,754,o),
(41,748,cs),
(41,746,o),
(42,744,o),
(43,741,c),
(277,373,l),
(26,-20,ls),
(21,-29,o),
(25,-37,o),
(36,-37,cs)
);
}
);
vertWidth = 1000;
width = 738;
}
);
note = cid00057;
unicode = 88;
}
{
glyphname = Y;
kernLeft = Y;
kernRight = Y;
layers = (
{
hints = (
{
horizontal = 1;
place = (-37, 795);
place = (-37, 795);
type = Stem;
},
{
place = (312, 146);
place = (312, 146);
type = Stem;
}
);
layerId = m01;
shapes = (
{
closed = 1;
nodes = (
(444,-37,ls),
(453,-37,o),
(458,-32,o),
(458,-23,cs),
(458,266,l),
(746,741,ls),
(752,750,o),
(747,758,o),
(736,758,cs),
(602,758,ls),
(595,758,o),
(589,755,o),
(586,748,c),
(387,397,l),
(186,748,l),
(183,755,o),
(178,758,o),
(170,758,cs),
(34,758,ls),
(26,758,o),
(21,754,o),
(21,748,cs),
(21,746,o),
(22,744,o),
(24,741,cs),
(312,265,l),
(312,-23,ls),
(312,-32,o),
(317,-37,o),
(326,-37,cs)
);
}
);
vertWidth = 1000;
width = 770;
}
);
note = cid00058;
unicode = 89;
}
{
glyphname = Z;
kernLeft = Z;
kernRight = Z;
layers = (
{
hints = (
{
horizontal = 1;
place = (-37, 138);
place = (-37, 138);
type = Stem;
},
{
horizontal = 1;
place = (620, 138);
place = (620, 138);
type = Stem;
},
{
place = (31, 601);
place = (31, 601);
type = Stem;
}
);
layerId = m01;
shapes = (
{
closed = 1;
nodes = (
(618,-37,ls),
(627,-37,o),
(632,-32,o),
(632,-23,cs),
(632,86,ls),
(632,95,o),
(627,101,o),
(618,101,cs),
(253,101,l),
(619,690,ls),
(622,695,o),
(625,701,o),
(625,707,cs),
(625,744,ls),
(625,753,o),
(619,758,o),
(611,758,cs),
(62,758,ls),
(53,758,o),
(48,753,o),
(48,744,cs),
(48,634,ls),
(48,626,o),
(53,620,o),
(62,620,cs),
(403,620,l),
(37,31,ls),
(34,26,o),
(31,20,o),
(31,14,cs),
(31,-23,ls),
(31,-32,o),
(37,-37,o),
(45,-37,cs)
);
}
);
vertWidth = 1000;
width = 671;
}
);
note = cid00059;
unicode = 90;
}
{
glyphname = bracketleft;
kernRight = parenleft;
layers = (
{
hints = (
{
horizontal = 1;
place = (-199, 130);
place = (-199, 130);
type = Stem;
},
{
horizontal = 1;
place = (689, 130);
place = (689, 130);
type = Stem;
},
{
place = (74, 143);
place = (74, 143);
type = Stem;
},
{
place = (74, 281);
place = (74, 281);
type = Stem;
}
);
layerId = m01;
shapes = (
{
closed = 1;
nodes = (
(341,-199,ls),
(350,-199,o),
(355,-194,o),
(355,-185,cs),
(355,-84,ls),
(355,-75,o),
(350,-69,o),
(341,-69,cs),
(217,-69,l),
(217,689,l),
(341,689,ls),
(350,689,o),
(355,694,o),
(355,703,cs),
(355,804,ls),
(355,813,o),
(350,819,o),
(341,819,cs),
(88,819,ls),
(79,819,o),
(74,813,o),
(74,804,cs),
(74,-185,ls),
(74,-194,o),
(79,-199,o),
(88,-199,cs)
);
}
);
vertWidth = 1000;
width = 377;
}
);
note = cid00060;
unicode = 91;
}
{
glyphname = backslash;
kernLeft = backslash;
kernRight = backslash;
layers = (
{
hints = (
{
horizontal = 1;
place = (775, -20);
target = down;
type = TopGhost;
},
{
place = (32, 391);
place = (32, 391);
type = Stem;
}
);
layerId = m01;
shapes = (
{
closed = 1;
nodes = (
(411,-156,ls),
(418,-156,o),
(423,-152,o),
(423,-144,cs),
(423,-140,l),
(171,763,ls),
(169,772,o),
(164,775,o),
(156,775,cs),
(45,775,ls),
(37,775,o),
(32,771,o),
(32,764,cs),
(32,763,o),
(32,761,o),
(33,759,c),
(284,-144,ls),
(286,-153,o),
(291,-156,o),
(299,-156,cs)
);
}
);
vertWidth = 1000;
width = 455;
}
);
note = cid00097;
unicode = 92;
}
{
glyphname = bracketright;
kernLeft = parenright;
layers = (
{
hints = (
{
horizontal = 1;
place = (-199, 130);
place = (-199, 130);
type = Stem;
},
{
horizontal = 1;
place = (689, 130);
place = (689, 130);
type = Stem;
},
{
place = (22, 281);
place = (22, 281);
type = Stem;
},
{
place = (160, 143);
place = (160, 143);
type = Stem;
}
);
layerId = m01;
shapes = (
{
closed = 1;
nodes = (
(289,-199,ls),
(298,-199,o),
(303,-194,o),
(303,-185,cs),
(303,804,ls),
(303,813,o),
(298,819,o),
(289,819,cs),
(36,819,ls),
(27,819,o),
(22,813,o),
(22,804,cs),
(22,703,ls),
(22,694,o),
(27,689,o),
(36,689,cs),
(160,689,l),
(160,-69,l),
(36,-69,ls),
(27,-69,o),
(22,-75,o),
(22,-84,cs),
(22,-185,ls),
(22,-194,o),
(27,-199,o),
(36,-199,cs)
);
}
);
vertWidth = 1000;
width = 377;
}
);
note = cid00062;
unicode = 93;
}
{
glyphname = asciicircum;
layers = (
{
hints = (
{
horizontal = 1;
place = (336, 422);
place = (336, 422);
type = Stem;
},
{
place = (60, 529);
place = (60, 529);
type = Stem;
}
);
layerId = m01;
shapes = (
{
closed = 1;
nodes = (
(190,336,ls),
(197,336,o),
(204,338,o),
(207,345,cs),
(327,580,l),
(446,345,ls),
(449,338,o),
(456,336,o),
(464,336,cs),
(577,336,ls),
(585,336,o),
(589,340,o),
(589,345,cs),
(589,348,o),
(588,350,o),
(587,353,c),
(370,748,l),
(367,755,o),
(362,758,o),
(354,758,cs),
(296,758,ls),
(288,758,o),
(283,755,o),
(279,748,cs),
(63,353,ls),
(61,350,o),
(60,347,o),
(60,345,cs),
(60,340,o),
(65,336,o),
(73,336,cs)
);
}
);
vertWidth = 1000;
width = 650;
}
);
note = cid00063;
unicode = 94;
}
{
glyphname = underscore;
kernLeft = underscore;
kernRight = underscore;
layers = (
{
hints = (
{
horizontal = 1;
place = (-232, 133);
place = (-232, 133);
type = Stem;
},
{
place = (43, 527);
place = (43, 527);
type = Stem;
}
);
layerId = m01;
shapes = (
{
closed = 1;
nodes = (
(556,-232,ls),
(563,-232,o),
(570,-225,o),
(570,-217,cs),
(570,-114,ls),
(570,-106,o),
(563,-99,o),
(556,-99,cs),
(57,-99,ls),
(51,-99,o),
(43,-106,o),
(43,-114,cs),
(43,-217,ls),
(43,-225,o),
(51,-232,o),
(57,-232,cs)
);
}
);
vertWidth = 1000;
width = 613;
}
);
note = cid00064;
unicode = (95,818);
}
{
glyphname = grave;
layers = (
{
hints = (
{
horizontal = 1;
place = (590, 174);
place = (590, 174);
type = Stem;
},
{
place = (70, 242);
place = (70, 242);
type = Stem;
}
);
layerId = m01;
shapes = (
{
closed = 1;
nodes = (
(78,764,ls),
(69,764,o),
(67,760,o),
(72,752,cs),
(176,602,ls),
(182,594,o),
(189,590,o),
(198,590,cs),
(303,590,ls),
(312,590,o),
(315,594,o),
(310,602,cs),
(228,751,l),
(224,760,o),
(217,764,o),
(208,764,cs)
);
}
);
vertWidth = 1000;
width = 392;
}
);
note = cid00065;
unicode = (96,768);
}
{
glyphname = b;
kernLeft = b;
kernRight = b;
layers = (
{
hints = (
{
horizontal = 1;
place = (-48, 128);
place = (-48, 128);
type = Stem;
},
{
horizontal = 1;
place = (407, 128);
place = (407, 128);
type = Stem;
},
{
horizontal = 1;
place = (775, -20);
target = down;
type = TopGhost;
},
{
place = (74, 140);
place = (74, 140);
type = Stem;
},
{
place = (508, 145);
place = (508, 145);
type = Stem;
},
{
horizontal = 1;
place = (-37, 117);
place = (-37, 117);
type = Stem;
},
{
place = (74, 131);
place = (74, 131);
type = Stem;
}
);
layerId = m01;
shapes = (
{
closed = 1;
nodes = (
(551,-48,o),
(653,71,o),
(653,243,cs),
(653,416,o),
(551,535,o),
(391,535,cs),
(317,535,o),
(256,506,o),
(214,456,c),
(214,761,ls),
(214,770,o),
(209,775,o),
(200,775,cs),
(88,775,ls),
(79,775,o),
(74,770,o),
(74,761,cs),
(74,-23,ls),
(74,-32,o),
(79,-37,o),
(88,-37,cs),
(190,-37,ls),
(198,-37,o),
(205,-33,o),
(205,-23,cs),
(208,40,l),
(248,-15,o),
(313,-48,o),
(391,-48,cs)
);
},
{
closed = 1;
nodes = (
(205,340,o),
(266,407,o),
(356,407,cs),
(446,407,o),
(508,340,o),
(508,243,cs),
(508,147,o),
(446,80,o),
(356,80,cs),
(266,80,o),
(205,147,o),
(205,243,cs)
);
}
);
vertWidth = 1000;
width = 694;
}
);
note = cid00067;
unicode = 98;
}
{
glyphname = d;
kernLeft = a;
layers = (
{
hints = (
{
horizontal = 1;
place = (-48, 128);
place = (-48, 128);
type = Stem;
},
{
horizontal = 1;
place = (407, 128);
place = (407, 128);
type = Stem;
},
{
horizontal = 1;
place = (775, -20);
target = down;
type = TopGhost;
},
{
place = (41, 145);
place = (41, 145);
type = Stem;
},
{
place = (480, 141);
place = (480, 141);
type = Stem;
},
{
place = (490, 131);
place = (490, 131);
type = Stem;
},
{
horizontal = 1;
place = (-37, 117);
place = (-37, 117);
type = Stem;
}
);
layerId = m01;
shapes = (
{
closed = 1;
nodes = (
(381,-48,o),
(446,-15,o),
(486,40,c),
(490,-23,ls),
(490,-33,o),
(496,-37,o),
(505,-37,cs),
(606,-37,ls),
(615,-37,o),
(621,-32,o),
(621,-23,cs),
(621,761,ls),
(621,770,o),
(615,775,o),
(606,775,cs),
(494,775,ls),
(485,775,o),
(480,770,o),
(480,761,cs),
(480,456,l),
(439,506,o),
(377,535,o),
(303,535,cs),
(143,535,o),
(41,416,o),
(41,243,cs),
(41,71,o),
(143,-48,o),
(303,-48,cs)
);
},
{
closed = 1;
nodes = (
(186,340,o),
(248,407,o),
(338,407,cs),
(428,407,o),
(490,340,o),
(490,243,cs),
(490,147,o),
(428,80,o),
(338,80,cs),
(248,80,o),
(186,147,o),
(186,243,cs)
);
}
);
vertWidth = 1000;
width = 694;
}
);
note = cid00069;
unicode = 100;
}
{
glyphname = f;
kernRight = f;
layers = (
{
hints = (
{
horizontal = 1;
place = (398, 126);
place = (398, 126);
type = Stem;
},
{
horizontal = 1;
place = (655, 128);
place = (655, 128);
type = Stem;
},
{
place = (107, 141);
place = (107, 141);
type = Stem;
}
);
layerId = m01;
shapes = (
{
closed = 1;
nodes = (
(234,-37,ls),
(243,-37,o),
(248,-32,o),
(248,-23,cs),
(248,398,l),
(389,398,ls),
(397,398,o),
(403,404,o),
(403,412,cs),
(403,510,ls),
(403,519,o),
(397,524,o),
(389,524,cs),
(248,524,l),
(248,562,ls),
(248,624,o),
(273,655,o),
(315,655,cs),
(344,655,o),
(363,645,o),
(380,615,cs),
(383,609,o),
(387,607,o),
(392,607,cs),
(394,607,o),
(397,607,o),
(399,608,cs),
(486,645,ls),
(492,648,o),
(495,652,o),
(495,658,cs),
(495,660,o),
(495,662,o),
(494,664,cs),
(456,743,o),
(392,783,o),
(304,783,cs),
(184,783,o),
(107,696,o),
(107,560,cs),
(107,524,l),
(29,524,ls),
(21,524,o),
(15,519,o),
(15,510,cs),
(15,412,ls),
(15,404,o),
(21,398,o),
(29,398,cs),
(107,398,l),
(107,-23,ls),
(107,-32,o),
(113,-37,o),
(121,-37,cs)
);
}
);
vertWidth = 1000;
width = 435;
}
);
note = cid00071;
unicode = 102;
}
{
glyphname = h;
kernLeft = b;
kernRight = h;
layers = (
{
hints = (
{
horizontal = 1;
place = (407, 128);
place = (407, 128);
type = Stem;
},
{
horizontal = 1;
place = (775, -20);
target = down;
type = TopGhost;
},
{
place = (74, 140);
place = (74, 140);
type = Stem;
},
{
place = (455, 141);
place = (455, 141);
type = Stem;
}
);
layerId = m01;
shapes = (
{
closed = 1;
nodes = (
(200,-37,ls),
(209,-37,o),
(214,-32,o),
(214,-23,cs),
(214,249,ls),
(214,356,o),
(279,407,o),
(348,407,cs),
(421,407,o),
(455,364,o),
(455,271,cs),
(455,-23,ls),
(455,-32,o),
(460,-37,o),
(469,-37,cs),
(582,-37,ls),
(590,-37,o),
(596,-32,o),
(596,-23,cs),
(596,328,ls),
(596,457,o),
(521,535,o),
(391,535,cs),
(323,535,o),
(257,509,o),
(214,455,c),
(214,761,ls),
(214,770,o),
(209,775,o),
(200,775,cs),
(88,775,ls),
(79,775,o),
(74,770,o),
(74,761,cs),
(74,-23,ls),
(74,-32,o),
(79,-37,o),
(88,-37,cs)
);
}
);
vertWidth = 1000;
width = 665;
}
);
note = cid00073;
unicode = 104;
}
{
glyphname = i;
layers = (
{
hints = (
{
horizontal = 1;
place = (524, -20);
target = down;
type = TopGhost;
},
{
horizontal = 1;
place = (624, 156);
place = (624, 156);
type = Stem;
},
{
place = (74, 143);
place = (74, 143);
type = Stem;
},
{
place = (62, 164);
place = (62, 164);
type = Stem;
}
);
layerId = m01;
shapes = (
{
closed = 1;
nodes = (
(74,-22,ls),
(74,-31,o),
(79,-37,o),
(88,-37,cs),
(203,-37,ls),
(212,-37,o),
(217,-31,o),
(217,-22,cs),
(217,510,ls),
(217,518,o),
(212,524,o),
(203,524,cs),
(88,524,ls),
(79,524,o),
(74,518,o),
(74,510,cs)
);
},
{
closed = 1;
nodes = (
(191,624,o),
(226,655,o),
(226,702,cs),
(226,748,o),
(191,780,o),
(144,780,cs),
(97,780,o),
(62,748,o),
(62,702,cs),
(62,655,o),
(97,624,o),
(144,624,cs)
);
}
);
vertWidth = 1000;
width = 288;
}
);
note = cid00074;
unicode = 105;
}
{
glyphname = j;
kernLeft = j;
layers = (
{
hints = (
{
horizontal = 1;
place = (-284, 128);
place = (-284, 128);
type = Stem;
},
{
horizontal = 1;
place = (524, -20);
target = down;
type = TopGhost;
},
{
horizontal = 1;
place = (624, 156);
place = (624, 156);
type = Stem;
},
{
place = (62, 164);
place = (62, 164);
type = Stem;
},
{
place = (74, 140);
place = (74, 140);
type = Stem;
}
);
layerId = m01;
shapes = (
{
closed = 1;
nodes = (
(191,624,o),
(226,655,o),
(226,702,cs),
(226,748,o),
(191,780,o),
(144,780,cs),
(97,780,o),
(62,748,o),
(62,702,cs),
(62,655,o),
(97,624,o),
(144,624,cs)
);
},
{
closed = 1;
nodes = (
(-122,-247,o),
(-62,-284,o),
(17,-284,cs),
(149,-284,o),
(214,-199,o),
(214,-53,cs),
(214,510,ls),
(214,519,o),
(209,524,o),
(200,524,cs),
(88,524,ls),
(79,524,o),
(74,519,o),
(74,510,cs),
(74,-65,ls),
(74,-129,o),
(54,-156,o),
(13,-156,cs),
(-15,-156,o),
(-28,-147,o),
(-37,-130,cs),
(-40,-125,o),
(-44,-121,o),
(-49,-121,cs),
(-51,-121,o),
(-53,-122,o),
(-55,-123,cs),
(-144,-156,ls),
(-151,-158,o),
(-154,-162,o),
(-154,-167,cs),
(-154,-169,o),
(-154,-171,o),
(-153,-173,cs)
);
}
);
vertWidth = 1000;
width = 288;
}
);
note = cid00075;
unicode = 106;
}
{
glyphname = k;
kernLeft = b;
kernRight = k;
layers = (
{
hints = (
{
horizontal = 1;
place = (524, -20);
target = down;
type = TopGhost;
},
{
horizontal = 1;
place = (775, -20);
target = down;
type = TopGhost;
},
{
place = (74, 140);
place = (74, 140);
type = Stem;
}
);
layerId = m01;
shapes = (
{
closed = 1;
nodes = (
(200,-37,ls),
(209,-37,o),
(214,-32,o),
(214,-23,cs),
(214,140,l),
(299,222,l),
(451,-27,l),
(454,-34,o),
(459,-37,o),
(467,-37,cs),
(601,-37,ls),
(609,-37,o),
(612,-33,o),
(612,-28,cs),
(612,-26,o),
(612,-23,o),
(610,-20,cs),
(401,323,l),
(588,507,ls),
(591,510,o),
(593,513,o),
(593,515,cs),
(593,520,o),
(588,524,o),
(580,524,cs),
(435,524,ls),
(429,524,o),
(423,522,o),
(418,516,cs),
(214,305,l),
(214,761,ls),
(214,770,o),
(209,775,o),
(200,775,cs),
(88,775,ls),
(79,775,o),
(74,770,o),
(74,761,cs),
(74,-23,ls),
(74,-32,o),
(79,-37,o),
(88,-37,cs)
);
}
);
vertWidth = 1000;
width = 643;
}
);
note = cid00076;
unicode = 107;
}
{
glyphname = l;
kernLeft = b;
layers = (
{
hints = (
{
horizontal = 1;
place = (775, -20);
target = down;
type = TopGhost;
},
{
place = (74, 140);
place = (74, 140);
type = Stem;
}
);
layerId = m01;
shapes = (
{
closed = 1;
nodes = (
(200,-37,ls),
(209,-37,o),
(214,-32,o),
(214,-23,cs),
(214,761,ls),
(214,770,o),
(209,775,o),
(200,775,cs),
(88,775,ls),
(79,775,o),
(74,770,o),
(74,761,cs),
(74,-23,ls),
(74,-32,o),
(79,-37,o),
(88,-37,cs)
);
}
);
vertWidth = 1000;
width = 288;
}
);
note = cid00077;
unicode = 108;
}
{
glyphname = m;
kernLeft = m;
kernRight = h;
layers = (
{
hints = (
{
horizontal = 1;
place = (407, 128);
place = (407, 128);
type = Stem;
},
{
place = (74, 140);
place = (74, 140);
type = Stem;
},
{
place = (442, 141);
place = (442, 141);
type = Stem;
},
{
place = (810, 141);
place = (810, 141);
type = Stem;
},
{
place = (74, 131);
place = (74, 131);
type = Stem;
},
{
horizontal = 1;
place = (524, -20);
target = down;
type = TopGhost;
}
);
layerId = m01;
shapes = (
{
closed = 1;
nodes = (
(200,-37,ls),
(209,-37,o),
(214,-32,o),
(214,-23,cs),
(214,249,ls),
(214,356,o),
(276,407,o),
(342,407,cs),
(407,407,o),
(442,364,o),
(442,271,cs),
(442,-23,ls),
(442,-32,o),
(447,-37,o),
(456,-37,cs),
(569,-37,ls),
(577,-37,o),
(583,-32,o),
(583,-23,cs),
(583,249,ls),
(583,356,o),
(644,407,o),
(710,407,cs),
(775,407,o),
(810,364,o),
(810,271,cs),
(810,-23,ls),
(810,-32,o),
(815,-37,o),
(824,-37,cs),
(937,-37,ls),
(945,-37,o),
(951,-32,o),
(951,-23,cs),
(951,328,ls),
(951,457,o),
(876,535,o),
(754,535,cs),
(677,535,o),
(603,500,o),
(562,432,c),
(532,498,o),
(470,535,o),
(386,535,cs),
(316,535,o),
(248,503,o),
(208,443,c),
(205,510,ls),
(205,520,o),
(198,524,o),
(190,524,cs),
(88,524,ls),
(79,524,o),
(74,519,o),
(74,510,cs),
(74,-23,ls),
(74,-32,o),
(79,-37,o),
(88,-37,cs)
);
}
);
vertWidth = 1000;
width = 1020;
}
);
note = cid00078;
unicode = 109;
}
{
glyphname = n;
kernLeft = m;
kernRight = h;
layers = (
{
hints = (
{
horizontal = 1;
place = (407, 128);
place = (407, 128);
type = Stem;
},
{
place = (74, 140);
place = (74, 140);
type = Stem;
},
{
place = (455, 141);
place = (455, 141);
type = Stem;
},
{
place = (74, 131);
place = (74, 131);
type = Stem;
},
{
horizontal = 1;
place = (524, -20);
target = down;
type = TopGhost;
}
);
layerId = m01;
shapes = (
{
closed = 1;
nodes = (
(200,-37,ls),
(209,-37,o),
(214,-32,o),
(214,-23,cs),
(214,249,ls),
(214,356,o),
(279,407,o),
(348,407,cs),
(421,407,o),
(455,364,o),
(455,271,cs),
(455,-23,ls),
(455,-32,o),
(460,-37,o),
(469,-37,cs),
(582,-37,ls),
(590,-37,o),
(596,-32,o),
(596,-23,cs),
(596,328,ls),
(596,457,o),
(521,535,o),
(391,535,cs),
(319,535,o),
(249,506,o),
(208,446,c),
(205,510,ls),
(205,520,o),
(198,524,o),
(190,524,cs),
(88,524,ls),
(79,524,o),
(74,519,o),
(74,510,cs),
(74,-23,ls),
(74,-32,o),
(79,-37,o),
(88,-37,cs)
);
}
);
vertWidth = 1000;
width = 665;
}
);
note = cid00079;
unicode = 110;
}
{
glyphname = o;
kernLeft = a;
kernRight = b;
layers = (
{
hints = (
{
horizontal = 1;
place = (-48, 128);
place = (-48, 128);
type = Stem;
},
{
horizontal = 1;
place = (407, 128);
place = (407, 128);
type = Stem;
},
{
place = (41, 145);
place = (41, 145);
type = Stem;
},
{
place = (490, 145);
place = (490, 145);
type = Stem;
}
);
layerId = m01;
shapes = (
{
closed = 1;
nodes = (
(518,-48,o),
(635,73,o),
(635,243,cs),
(635,414,o),
(518,535,o),
(338,535,cs),
(158,535,o),
(41,414,o),
(41,243,cs),
(41,73,o),
(158,-48,o),
(338,-48,cs)
);
},
{
closed = 1;
nodes = (
(186,340,o),
(248,407,o),
(338,407,cs),
(428,407,o),
(490,340,o),
(490,243,cs),
(490,147,o),
(428,80,o),
(338,80,cs),
(248,80,o),
(186,147,o),
(186,243,cs)
);
}
);
vertWidth = 1000;
width = 676;
}
);
note = cid00080;
unicode = 111;
}
{
glyphname = p;
kernLeft = m;
kernRight = b;
layers = (
{
hints = (
{
horizontal = 1;
place = (-273, 21);
target = up;
type = BottomGhost;
},
{
horizontal = 1;
place = (-48, 128);
place = (-48, 128);
type = Stem;
},
{
horizontal = 1;
place = (407, 128);
place = (407, 128);
type = Stem;
},
{
place = (74, 140);
place = (74, 140);
type = Stem;
},
{
place = (508, 145);
place = (508, 145);
type = Stem;
},
{
place = (74, 131);
place = (74, 131);
type = Stem;
},
{
horizontal = 1;
place = (524, -20);
target = down;
type = TopGhost;
}
);
layerId = m01;
shapes = (
{
closed = 1;
nodes = (
(200,-273,ls),
(209,-273,o),
(214,-268,o),
(214,-259,cs),
(214,31,l),
(256,-19,o),
(317,-48,o),
(391,-48,cs),
(551,-48,o),
(653,71,o),
(653,243,cs),
(653,416,o),
(551,535,o),
(391,535,cs),
(313,535,o),
(248,502,o),
(208,447,c),
(205,510,ls),
(205,520,o),
(198,524,o),
(190,524,cs),
(88,524,ls),
(79,524,o),
(74,519,o),
(74,510,cs),
(74,-259,ls),
(74,-268,o),
(79,-273,o),
(88,-273,cs)
);
},
{
closed = 1;
nodes = (
(205,340,o),
(266,407,o),
(356,407,cs),
(446,407,o),
(508,340,o),
(508,243,cs),
(508,147,o),
(446,80,o),
(356,80,cs),
(266,80,o),
(205,147,o),
(205,243,cs)
);
}
);
vertWidth = 1000;
width = 694;
}
);
note = cid00081;
unicode = 112;
}
{
glyphname = q;
kernLeft = a;
layers = (
{
hints = (
{
horizontal = 1;
place = (-273, 21);
target = up;
type = BottomGhost;
},
{
horizontal = 1;
place = (-48, 128);
place = (-48, 128);
type = Stem;
},
{
horizontal = 1;
place = (407, 128);
place = (407, 128);
type = Stem;
},
{
place = (41, 145);
place = (41, 145);
type = Stem;
},
{
place = (480, 141);
place = (480, 141);
type = Stem;
},
{
horizontal = 1;
place = (524, -20);
target = down;
type = TopGhost;
},
{
place = (490, 131);
place = (490, 131);
type = Stem;
}
);
layerId = m01;
shapes = (
{
closed = 1;
nodes = (
(606,-273,ls),
(615,-273,o),
(621,-268,o),
(621,-259,cs),
(621,510,ls),
(621,519,o),
(615,524,o),
(606,524,cs),
(505,524,ls),
(496,524,o),
(490,520,o),
(490,510,cs),
(486,447,l),
(446,502,o),
(381,535,o),
(303,535,cs),
(143,535,o),
(41,416,o),
(41,243,cs),
(41,71,o),
(143,-48,o),
(303,-48,cs),
(377,-48,o),
(439,-19,o),
(480,31,c),
(480,-259,ls),
(480,-268,o),
(485,-273,o),
(494,-273,cs)
);
},
{
closed = 1;
nodes = (
(186,340,o),
(248,407,o),
(338,407,cs),
(428,407,o),
(490,340,o),
(490,243,cs),
(490,147,o),
(428,80,o),
(338,80,cs),
(248,80,o),
(186,147,o),
(186,243,cs)
);
}
);
vertWidth = 1000;
width = 694;
}
);
note = cid00082;
unicode = 113;
}
{
glyphname = u;
kernLeft = u;
kernRight = a;
layers = (
{
hints = (
{
horizontal = 1;
place = (-48, 128);
place = (-48, 128);
type = Stem;
},
{
horizontal = 1;
place = (524, -20);
target = down;
type = TopGhost;
},
{
place = (69, 141);
place = (69, 141);
type = Stem;
},
{
place = (451, 140);
place = (451, 140);
type = Stem;
},
{
place = (460, 131);
place = (460, 131);
type = Stem;
},
{
horizontal = 1;
place = (-37, 117);
place = (-37, 117);
type = Stem;
}
);
layerId = m01;
shapes = (
{
closed = 1;
nodes = (
(345,-48,o),
(416,-19,o),
(457,41,c),
(460,-23,ls),
(460,-33,o),
(467,-37,o),
(475,-37,cs),
(577,-37,ls),
(586,-37,o),
(591,-32,o),
(591,-23,cs),
(591,510,ls),
(591,519,o),
(586,524,o),
(577,524,cs),
(465,524,ls),
(456,524,o),
(451,519,o),
(451,510,cs),
(451,238,ls),
(451,131,o),
(386,80,o),
(317,80,cs),
(244,80,o),
(210,123,o),
(210,216,cs),
(210,510,ls),
(210,519,o),
(205,524,o),
(196,524,cs),
(83,524,ls),
(75,524,o),
(69,519,o),
(69,510,cs),
(69,159,ls),
(69,30,o),
(144,-48,o),
(274,-48,cs)
);
}
);
vertWidth = 1000;
width = 665;
}
);
note = cid00086;
unicode = 117;
}
{
glyphname = v;
kernLeft = v;
kernRight = v;
layers = (
{
hints = (
{
horizontal = 1;
place = (524, -20);
target = down;
type = TopGhost;
},
{
place = (22, 586);
place = (22, 586);
type = Stem;
}
);
layerId = m01;
shapes = (
{
closed = 1;
nodes = (
(351,-37,ls),
(358,-37,o),
(364,-33,o),
(367,-26,cs),
(606,508,l),
(611,517,o),
(606,524,o),
(596,524,cs),
(470,524,ls),
(462,524,o),
(457,521,o),
(454,513,cs),
(319,172,l),
(185,513,ls),
(182,521,o),
(177,524,o),
(169,524,cs),
(35,524,ls),
(27,524,o),
(22,520,o),
(22,515,cs),
(22,513,o),
(23,510,o),
(24,508,cs),
(263,-26,ls),
(266,-33,o),
(272,-37,o),
(279,-37,cs)
);
}
);
vertWidth = 1000;
width = 630;
}
);
note = cid00087;
unicode = 118;
}
{
glyphname = x;
kernLeft = x;
kernRight = x;
layers = (
{
hints = (
{
horizontal = 1;
place = (524, -20);
target = down;
type = TopGhost;
},
{
place = (26, 555);
place = (26, 555);
type = Stem;
}
);
layerId = m01;
shapes = (
{
closed = 1;
nodes = (
(158,-37,ls),
(166,-37,o),
(171,-34,o),
(175,-28,cs),
(300,155,l),
(423,-28,l),
(428,-34,o),
(433,-37,o),
(441,-37,cs),
(570,-37,ls),
(577,-37,o),
(581,-33,o),
(581,-28,cs),
(581,-26,o),
(580,-23,o),
(578,-20,cs),
(389,251,l),
(567,507,ls),
(569,510,o),
(570,513,o),
(570,516,cs),
(570,521,o),
(566,524,o),
(559,524,cs),
(439,524,ls),
(431,524,o),
(426,521,o),
(421,515,c),
(308,349,l),
(195,515,ls),
(191,521,o),
(185,524,o),
(178,524,cs),
(49,524,ls),
(41,524,o),
(37,520,o),
(37,515,cs),
(37,513,o),
(38,510,o),
(40,507,cs),
(219,251,l),
(29,-20,ls),
(27,-23,o),
(26,-26,o),
(26,-28,cs),
(26,-33,o),
(30,-37,o),
(38,-37,cs)
);
}
);
vertWidth = 1000;
width = 608;
}
);
note = cid00089;
unicode = 120;
}
{
glyphname = braceleft;
kernRight = parenleft;
layers = (
{
hints = (
{
horizontal = 1;
place = (-199, 130);
place = (-199, 130);
type = Stem;
},
{
horizontal = 1;
place = (248, 123);
place = (248, 123);
type = Stem;
},
{
horizontal = 1;
place = (689, 130);
place = (689, 130);
type = Stem;
},
{
place = (143, 141);
place = (143, 141);
type = Stem;
}
);
layerId = m01;
shapes = (
{
closed = 1;
nodes = (
(419,-199,ls),
(428,-199,o),
(433,-194,o),
(433,-185,cs),
(433,-84,ls),
(433,-75,o),
(428,-69,o),
(419,-69,cs),
(414,-69,ls),
(325,-69,o),
(284,-26,o),
(284,58,cs),
(284,215,ls),
(284,265,o),
(266,298,o),
(227,310,c),
(266,321,o),
(284,354,o),
(284,404,cs),
(284,561,ls),
(284,645,o),
(325,689,o),
(414,689,cs),
(419,689,ls),
(428,689,o),
(433,694,o),
(433,703,cs),
(433,804,ls),
(433,813,o),
(428,819,o),
(419,819,cs),
(402,819,ls),
(248,819,o),
(143,749,o),
(143,568,cs),
(143,432,ls),
(143,384,o),
(131,371,o),
(101,371,cs),
(66,371,ls),
(57,371,o),
(52,366,o),
(52,357,cs),
(52,262,ls),
(52,253,o),
(57,248,o),
(66,248,cs),
(101,248,ls),
(131,248,o),
(143,235,o),
(143,187,cs),
(143,51,ls),
(143,-130,o),
(248,-199,o),
(402,-199,cs)
);
}
);
vertWidth = 1000;
width = 455;
}
);
note = cid00092;
unicode = 123;
}
{
glyphname = bar;
layers = (
{
hints = (
{
horizontal = 1;
place = (775, -20);
target = down;
type = TopGhost;
},
{
place = (93, 141);
place = (93, 141);
type = Stem;
}
);
layerId = m01;
shapes = (
{
closed = 1;
nodes = (
(220,-156,ls),
(227,-156,o),
(234,-150,o),
(234,-142,cs),
(234,761,ls),
(234,769,o),
(227,775,o),
(220,775,cs),
(107,775,ls),
(100,775,o),
(93,769,o),
(93,761,cs),
(93,-142,ls),
(93,-150,o),
(100,-156,o),
(107,-156,cs)
);
}
);
vertWidth = 1000;
width = 327;
}
);
note = cid00099;
unicode = 124;
}
{
glyphname = braceright;
kernLeft = parenright;
layers = (
{
hints = (
{
horizontal = 1;
place = (-199, 130);
place = (-199, 130);
type = Stem;
},
{
horizontal = 1;
place = (248, 123);
place = (248, 123);
type = Stem;
},
{
horizontal = 1;
place = (689, 130);
place = (689, 130);
type = Stem;
},
{
place = (171, 141);
place = (171, 141);
type = Stem;
}
);
layerId = m01;
shapes = (
{
closed = 1;
nodes = (
(53,-199,ls),
(207,-199,o),
(312,-130,o),
(312,51,cs),
(312,187,ls),
(312,235,o),
(324,248,o),
(354,248,cs),
(389,248,ls),
(397,248,o),
(403,253,o),
(403,262,cs),
(403,357,ls),
(403,366,o),
(397,371,o),
(389,371,cs),
(354,371,ls),
(324,371,o),
(312,384,o),
(312,432,cs),
(312,568,ls),
(312,749,o),
(207,819,o),
(53,819,cs),
(36,819,ls),
(27,819,o),
(22,813,o),
(22,804,cs),
(22,703,ls),
(22,694,o),
(27,689,o),
(36,689,cs),
(41,689,ls),
(130,689,o),
(171,645,o),
(171,561,cs),
(171,404,ls),
(171,354,o),
(188,321,o),
(227,310,c),
(188,298,o),
(171,265,o),
(171,215,cs),
(171,58,ls),
(171,-26,o),
(130,-69,o),
(41,-69,cs),
(36,-69,ls),
(27,-69,o),
(22,-75,o),
(22,-84,cs),
(22,-185,ls),
(22,-194,o),
(27,-199,o),
(36,-199,cs)
);
}
);
vertWidth = 1000;
width = 455;
}
);
note = cid00094;
unicode = 125;
}
{
glyphname = asciitilde;
layers = (
{
hints = (
{
horizontal = 1;
place = (172, 136);
place = (172, 136);
type = Stem;
},
{
place = (43, 119);
place = (43, 119);
type = Stem;
},
{
place = (488, 120);
place = (488, 120);
type = Stem;
},
{
horizontal = 1;
place = (303, 137);
place = (303, 137);
type = Stem;
}
);
layerId = m01;
shapes = (
{
closed = 1;
nodes = (
(545,172,o),
(602,255,o),
(608,404,cs),
(608,418,o),
(602,425,o),
(593,425,cs),
(503,425,ls),
(494,425,o),
(488,420,o),
(488,411,cs),
(485,343,o),
(467,308,o),
(433,308,cs),
(371,308,o),
(341,440,o),
(207,440,cs),
(106,440,o),
(47,353,o),
(43,200,cs),
(43,192,o),
(49,186,o),
(57,186,cs),
(148,186,ls),
(157,186,o),
(162,192,o),
(162,200,cs),
(166,268,o),
(184,303,o),
(218,303,cs),
(279,303,o),
(310,172,o),
(444,172,cs)
);
}
);
vertWidth = 1000;
width = 650;
}
);
note = cid00100;
unicode = (126,8764);
}
{
glyphname = exclamdown;
layers = (
{
hints = (
{
horizontal = 1;
place = (538, -20);
target = down;
type = TopGhost;
},
{
place = (64.5, 144);
place = (64.5, 144);
type = Stem;
},
{
place = (40, 194);
place = (40, 194);
type = Stem;
},
{
horizontal = 1;
place = (347, 191);
place = (347, 191);
type = Stem;
}
);
layerId = m01;
shapes = (
{
closed = 1;
nodes = (
(66,79,l),
(63,-330,l),
(211,-330,l),
(206,78,l),
(196,304,l),
(75,304,l)
);
},
{
closed = 1;
nodes = (
(234,495,o),
(190,538,o),
(137,538,cs),
(84,538,o),
(40,495,o),
(40,442,cs),
(40,390,o),
(84,347,o),
(137,347,cs),
(190,347,o),
(234,390,o),
(234,443,cs)
);
}
);
vertWidth = 1000;
width = 272;
}
);
note = cid00101;
unicode = 161;
}
{
glyphname = cent;
layers = (
{
hints = (
{
horizontal = 1;
place = (-37, 795);
place = (-37, 795);
type = Stem;
},
{
place = (41, 145);
place = (41, 145);
type = Stem;
},
{
place = (274, 108);
place = (274, 108);
type = Stem;
}
);
layerId = m01;
shapes = (
{
closed = 1;
nodes = (
(368,-37,ls),
(377,-37,o),
(382,-32,o),
(382,-23,cs),
(382,66,l),
(480,80,o),
(554,133,o),
(592,232,c),
(596,240,o),
(592,247,o),
(584,249,cs),
(481,274,ls),
(473,276,o),
(467,273,o),
(462,265,c),
(445,229,o),
(418,207,o),
(382,196,c),
(382,512,l),
(417,502,o),
(444,481,o),
(461,446,c),
(465,440,o),
(470,436,o),
(475,436,c),
(573,464,ls),
(580,466,o),
(584,471,o),
(584,477,cs),
(584,479,o),
(584,481,o),
(583,483,cs),
(548,577,o),
(479,628,o),
(382,642,c),
(382,744,ls),
(382,753,o),
(377,758,o),
(368,758,cs),
(288,758,ls),
(279,758,o),
(274,753,o),
(274,744,cs),
(274,641,l),
(130,619,o),
(41,508,o),
(41,354,cs),
(41,200,o),
(129,89,o),
(274,67,c),
(274,-23,ls),
(274,-32,o),
(279,-37,o),
(288,-37,cs)
);
},
{
closed = 1;
nodes = (
(186,422,o),
(214,482,o),
(274,506,c),
(274,202,l),
(214,226,o),
(186,286,o),
(186,354,cs)
);
}
);
vertWidth = 1000;
width = 628;
}
);
note = cid00102;
unicode = 162;
}
{
glyphname = sterling;
layers = (
{
hints = (
{
horizontal = 1;
place = (-37, 138);
place = (-37, 138);
type = Stem;
},
{
horizontal = 1;
place = (289, 108);
place = (289, 108);
type = Stem;
},
{
horizontal = 1;
place = (630, 143);
place = (630, 143);
type = Stem;
},
{
place = (107, 152);
place = (107, 152);
type = Stem;
},
{
place = (149, 144);
place = (149, 144);
type = Stem;
}
);
layerId = m01;
shapes = (
{
closed = 1;
nodes = (
(614,-37,ls),
(623,-37,o),
(628,-32,o),
(628,-23,cs),
(628,86,ls),
(628,95,o),
(623,101,o),
(614,101,cs),
(250,101,l),
(284,169,o),
(293,227,o),
(293,289,c),
(454,289,ls),
(462,289,o),
(468,294,o),
(468,303,cs),
(468,383,ls),
(468,392,o),
(462,397,o),
(454,397,cs),
(277,397,l),
(268,435,o),
(259,474,o),
(259,510,cs),
(259,592,o),
(304,630,o),
(375,630,cs),
(436,630,o),
(484,594,o),
(509,526,cs),
(511,519,o),
(516,515,o),
(522,515,c),
(637,547,ls),
(643,549,o),
(648,552,o),
(648,559,c),
(647,564,l),
(605,694,o),
(504,773,o),
(367,773,cs),
(212,773,o),
(107,677,o),
(107,541,cs),
(107,486,o),
(116,440,o),
(126,397,c),
(74,397,ls),
(65,397,o),
(60,392,o),
(60,383,cs),
(60,303,ls),
(60,294,o),
(65,289,o),
(74,289,cs),
(146,289,l),
(148,275,o),
(149,260,o),
(149,245,cs),
(149,167,o),
(126,109,o),
(74,29,cs),
(70,24,o),
(68,18,o),
(68,12,cs),
(68,-23,ls),
(68,-32,o),
(74,-37,o),
(82,-37,cs)
);
}
);
vertWidth = 1000;
width = 689;
}
);
note = cid00103;
unicode = 163;
}
{
glyphname = currency;
layers = (
{
hints = (
{
horizontal = 1;
place = (158, 108);
place = (158, 108);
type = Stem;
},
{
horizontal = 1;
place = (496, 108);
place = (496, 108);
type = Stem;
},
{
place = (87, 119);
place = (87, 119);
type = Stem;
},
{
place = (433, 119);
place = (433, 119);
type = Stem;
}
);
layerId = m01;
shapes = (
{
closed = 1;
nodes = (
(103,117,ls),
(106,114,o),
(109,112,o),
(113,112,cs),
(116,112,o),
(120,114,o),
(123,118,cs),
(191,190,l),
(226,170,o),
(271,158,o),
(319,158,cs),
(368,158,o),
(413,170,o),
(448,190,c),
(517,118,l),
(520,114,o),
(524,112,o),
(527,112,cs),
(531,112,o),
(534,114,o),
(537,117,cs),
(593,169,ls),
(597,172,o),
(599,176,o),
(599,180,cs),
(599,183,o),
(598,186,o),
(595,189,cs),
(523,265,l),
(542,298,o),
(552,337,o),
(552,381,cs),
(552,425,o),
(542,466,o),
(522,498,c),
(595,574,ls),
(598,577,o),
(599,580,o),
(599,583,cs),
(599,587,o),
(597,591,o),
(593,594,cs),
(537,646,ls),
(534,649,o),
(531,651,o),
(527,651,cs),
(524,651,o),
(520,649,o),
(517,645,cs),
(448,572,l),
(413,592,o),
(368,604,o),
(319,604,cs),
(271,604,o),
(227,592,o),
(192,572,c),
(123,645,ls),
(120,649,o),
(116,651,o),
(113,651,cs),
(109,651,o),
(106,649,o),
(103,646,cs),
(47,594,ls),
(43,591,o),
(41,587,o),
(41,583,cs),
(41,580,o),
(42,577,o),
(45,574,cs),
(117,499,l),
(97,466,o),
(87,425,o),
(87,381,cs),
(87,337,o),
(97,297,o),
(117,264,c),
(45,189,ls),
(42,186,o),
(41,183,o),
(41,180,cs),
(41,176,o),
(43,172,o),
(47,169,cs)
);
},
{
closed = 1;
nodes = (
(206,450,o),
(252,496,o),
(319,496,cs),
(387,496,o),
(433,450,o),
(433,381,cs),
(433,312,o),
(387,266,o),
(319,266,cs),
(252,266,o),
(206,312,o),
(206,381,cs)
);
}
);
vertWidth = 1000;
width = 640;
}
);
note = cid00107;
unicode = 164;
}
{
glyphname = yen;
layers = (
{
hints = (
{
horizontal = 1;
place = (104, 86);
place = (104, 86);
type = Stem;
},
{
horizontal = 1;
place = (260, 86);
place = (260, 86);
type = Stem;
},
{
place = (312, 146);
place = (312, 146);
type = Stem;
}
);
layerId = m01;
shapes = (
{
closed = 1;
nodes = (
(312,104,l),
(312,-23,ls),
(312,-32,o),
(317,-37,o),
(326,-37,cs),
(444,-37,ls),
(453,-37,o),
(458,-32,o),
(458,-23,cs),
(458,104,l),
(628,104,ls),
(637,104,o),
(642,109,o),
(642,118,cs),
(642,176,ls),
(642,185,o),
(637,190,o),
(628,190,cs),
(458,190,l),
(458,260,l),
(628,260,ls),
(637,260,o),
(642,265,o),
(642,274,cs),
(642,332,ls),
(642,341,o),
(637,346,o),
(628,346,cs),
(507,346,l),
(746,741,ls),
(752,750,o),
(747,758,o),
(736,758,cs),
(602,758,ls),
(595,758,o),
(589,755,o),
(586,748,c),
(387,397,l),
(186,748,l),
(183,755,o),
(178,758,o),
(170,758,cs),
(34,758,ls),
(26,758,o),
(21,754,o),
(21,748,cs),
(21,746,o),
(22,744,o),
(24,741,cs),
(262,346,l),
(143,346,ls),
(134,346,o),
(129,341,o),
(129,332,cs),
(129,274,ls),
(129,265,o),
(134,260,o),
(143,260,cs),
(312,260,l),
(312,190,l),
(143,190,ls),
(134,190,o),
(129,185,o),
(129,176,cs),
(129,118,ls),
(129,109,o),
(134,104,o),
(143,104,cs)
);
}
);
vertWidth = 1000;
width = 770;
}
);
note = cid00061;
unicode = 165;
}
{
glyphname = brokenbar;
layers = (
{
hints = (
{
horizontal = 1;
place = (775, -20);
target = down;
type = TopGhost;
},
{
place = (93, 141);
place = (93, 141);
type = Stem;
}
);
layerId = m01;
shapes = (
{
closed = 1;
nodes = (
(220,-156,ls),
(229,-156,o),
(234,-151,o),
(234,-142,cs),
(234,196,ls),
(234,205,o),
(229,210,o),
(220,210,cs),
(107,210,ls),
(98,210,o),
(93,205,o),
(93,196,cs),
(93,-142,ls),
(93,-151,o),
(98,-156,o),
(107,-156,cs)
);
},
{
closed = 1;
nodes = (
(93,423,ls),
(93,414,o),
(98,409,o),
(107,409,cs),
(220,409,ls),
(229,409,o),
(234,414,o),
(234,423,cs),
(234,761,ls),
(234,770,o),
(229,775,o),
(220,775,cs),
(107,775,ls),
(98,775,o),
(93,770,o),
(93,761,cs)
);
}
);
vertWidth = 1000;
width = 327;
}
);
note = cid00093;
unicode = 166;
}
{
glyphname = section.full;
layers = (
{
hints = (
{
horizontal = 1;
place = (-83, 118);
place = (-83, 118);
type = Stem;
},
{
horizontal = 1;
place = (167, 106);
place = (167, 106);
type = Stem;
},
{
horizontal = 1;
place = (486, 106);
place = (486, 106);
type = Stem;
},
{
horizontal = 1;
place = (725, 118);
place = (725, 118);
type = Stem;
},
{
place = (276, 120);
place = (276, 120);
type = Stem;
},
{
place = (604, 120);
place = (604, 120);
type = Stem;
},
{
place = (539, 134);
place = (539, 134);
type = Stem;
},
{
place = (324, 135);
place = (324, 135);
type = Stem;
}
);
layerId = m01;
shapes = (
{
closed = 1;
nodes = (
(289,69,ls),
(282,67,o),
(278,63,o),
(278,57,cs),
(278,55,o),
(278,53,o),
(279,51,cs),
(307,-41,o),
(377,-83,o),
(480,-83,cs),
(599,-83,o),
(673,-8,o),
(673,85,cs),
(673,125,o),
(662,161,o),
(635,205,c),
(690,242,o),
(724,305,o),
(724,380,cs),
(724,503,o),
(634,592,o),
(500,592,cs),
(492,592,o),
(486,592,o),
(479,591,c),
(467,617,o),
(459,644,o),
(459,668,cs),
(459,699,o),
(486,725,o),
(526,725,cs),
(557,725,o),
(578,712,o),
(595,677,cs),
(598,671,o),
(603,668,o),
(609,668,cs),
(610,668,o),
(612,669,o),
(614,669,c),
(709,691,ls),
(716,693,o),
(720,697,o),
(720,703,cs),
(720,705,o),
(720,707,o),
(719,709,cs),
(690,801,o),
(620,843,o),
(517,843,cs),
(398,843,o),
(324,768,o),
(324,675,cs),
(324,634,o),
(336,598,o),
(363,553,c),
(308,516,o),
(276,454,o),
(276,380,cs),
(276,256,o),
(366,167,o),
(500,167,cs),
(506,167,o),
(513,167,o),
(519,168,c),
(530,142,o),
(539,116,o),
(539,93,cs),
(539,61,o),
(512,35,o),
(472,35,cs),
(440,35,o),
(419,48,o),
(402,83,cs),
(399,88,o),
(395,92,o),
(389,92,cs),
(388,92,o),
(386,92,o),
(384,91,c)
);
},
{
closed = 1;
nodes = (
(439,273,o),
(396,316,o),
(396,380,cs),
(396,443,o),
(439,486,o),
(500,486,cs),
(560,486,o),
(604,443,o),
(604,380,cs),
(604,316,o),
(560,273,o),
(500,273,cs)
);
}
);
vertWidth = 1000;
width = 1000;
}
);
note = cid00720;
unicode = 167;
}
{
glyphname = dieresis;
layers = (
{
hints = (
{
horizontal = 1;
place = (605, 144);
place = (605, 144);
type = Stem;
},
{
place = (322, 147);
place = (322, 147);
type = Stem;
},
{
place = (517, 147);
place = (517, 147);
type = Stem;
}
);
layerId = m01;
shapes = (
{
closed = 1;
nodes = (
(354,749,o),
(322,719,o),
(322,677,cs),
(322,635,o),
(354,605,o),
(395,605,cs),
(437,605,o),
(469,634,o),
(469,677,cs),
(469,719,o),
(437,749,o),
(395,749,cs)
);
},
{
closed = 1;
nodes = (
(549,749,o),
(517,719,o),
(517,677,cs),
(517,635,o),
(549,605,o),
(591,605,cs),
(632,605,o),
(664,634,o),
(664,677,cs),
(664,719,o),
(632,749,o),
(591,749,cs)
);
}
);
vertWidth = 1000;
width = 1000;
}
);
note = cid00647;
unicode = 168;
}
{
glyphname = copyright;
layers = (
{
hints = (
{
horizontal = 1;
place = (-52, 63);
place = (-52, 63);
type = Stem;
},
{
horizontal = 1;
place = (137, 96);
place = (137, 96);
type = Stem;
},
{
horizontal = 1;
place = (488, 96);
place = (488, 96);
type = Stem;
},
{
horizontal = 1;
place = (710, 63);
place = (710, 63);
type = Stem;
},
{
place = (54, 67);
place = (54, 67);
type = Stem;
},
{
place = (252, 109);
place = (252, 109);
type = Stem;
},
{
place = (812, 67);
place = (812, 67);
type = Stem;
}
);
layerId = m01;
shapes = (
{
closed = 1;
nodes = (
(705,-52,o),
(879,117,o),
(879,360,cs),
(879,604,o),
(705,773,o),
(467,773,cs),
(229,773,o),
(54,604,o),
(54,360,cs),
(54,117,o),
(229,-52,o),
(467,-52,cs)
);
},
{
closed = 1;
nodes = (
(121,564,o),
(258,710,o),
(467,710,cs),
(675,710,o),
(812,564,o),
(812,360,cs),
(812,156,o),
(675,11,o),
(467,11,cs),
(258,11,o),
(121,156,o),
(121,360,cs)
);
},
{
closed = 1;
nodes = (
(252,229,o),
(337,137,o),
(470,137,cs),
(559,137,o),
(634,180,o),
(666,262,cs),
(669,271,o),
(665,277,o),
(656,279,cs),
(585,299,ls),
(577,301,o),
(571,298,o),
(567,289,cs),
(550,251,o),
(518,233,o),
(475,233,cs),
(399,233,o),
(361,290,o),
(361,360,cs),
(361,430,o),
(397,488,o),
(473,488,cs),
(513,488,o),
(547,471,o),
(565,435,c),
(569,429,o),
(573,426,o),
(579,426,c),
(650,445,ls),
(656,447,o),
(661,451,o),
(661,457,cs),
(660,462,l),
(629,545,o),
(557,584,o),
(468,584,cs),
(337,584,o),
(252,492,o),
(252,360,cs)
);
}
);
vertWidth = 1000;
width = 934;
}
);
note = cid00152;
unicode = 169;
}
{
glyphname = ordfeminine;
layers = (
{
hints = (
{
horizontal = 1;
place = (324, 102);
place = (324, 102);
type = Stem;
},
{
horizontal = 1;
place = (674, 101);
place = (674, 101);
type = Stem;
},
{
place = (39, 125);
place = (39, 125);
type = Stem;
},
{
place = (380, 115);
place = (380, 115);
type = Stem;
},
{
horizontal = 1;
place = (332, 94);
place = (332, 94);
type = Stem;
},
{
horizontal = 1;
place = (674, 93);
place = (674, 93);
type = Stem;
},
{
place = (377, 118);
place = (377, 118);
type = Stem;
}
);
layerId = m01;
shapes = (
{
closed = 1;
nodes = (
(123,775,o),
(39,683,o),
(39,550,cs),
(39,416,o),
(123,324,o),
(233,324,cs),
(296,324,o),
(350,351,o),
(378,401,c),
(380,347,ls),
(380,337,o),
(385,332,o),
(394,332,cs),
(480,332,ls),
(490,332,o),
(495,337,o),
(495,347,cs),
(495,753,ls),
(495,762,o),
(490,767,o),
(480,767,cs),
(394,767,ls),
(385,767,o),
(380,762,o),
(380,753,cs),
(378,697,l),
(350,748,o),
(296,775,o),
(233,775,cs)
);
},
{
closed = 1;
nodes = (
(333,674,o),
(377,624,o),
(377,550,cs),
(377,477,o),
(333,426,o),
(271,426,cs),
(208,426,o),
(164,477,o),
(164,550,cs),
(164,624,o),
(208,674,o),
(271,674,cs)
);
}
);
vertWidth = 1000;
width = 526;
}
);
note = cid00140;
unicode = 170;
}
{
glyphname = guillemetleft;
layers = (
{
hints = (
{
horizontal = 1;
place = (42, 549);
place = (42, 549);
type = Stem;
},
{
place = (59, 595);
place = (59, 595);
type = Stem;
}
);
layerId = m01;
shapes = (
{
closed = 1;
nodes = (
(189,317,l),
(376,456,ls),
(383,462,o),
(387,469,o),
(387,479,cs),
(387,583,ls),
(387,592,o),
(383,594,o),
(376,588,cs),
(71,361,ls),
(63,355,o),
(59,348,o),
(59,338,cs),
(59,295,ls),
(59,285,o),
(63,278,o),
(71,272,cs),
(376,45,ls),
(383,40,o),
(387,41,o),
(387,51,cs),
(387,155,ls),
(387,165,o),
(383,172,o),
(376,178,cs)
);
},
{
closed = 1;
nodes = (
(471,317,l),
(643,440,ls),
(651,445,o),
(654,452,o),
(654,462,cs),
(654,582,ls),
(654,592,o),
(651,593,o),
(643,588,cs),
(282,325,ls),
(274,319,o),
(274,314,o),
(282,308,cs),
(643,45,ls),
(651,40,o),
(654,42,o),
(654,51,cs),
(654,172,ls),
(654,182,o),
(651,189,o),
(643,194,cs)
);
}
);
vertWidth = 1000;
width = 725;
}
);
note = cid00109;
unicode = 171;
}
{
glyphname = logicalnot;
layers = (
{
hints = (
{
horizontal = 1;
place = (281, 134);
place = (281, 134);
type = Stem;
},
{
place = (410, 137);
place = (410, 137);
type = Stem;
}
);
layerId = m01;
shapes = (
{
closed = 1;
nodes = (
(533,85,ls),
(542,85,o),
(547,91,o),
(547,99,cs),
(547,401,ls),
(547,409,o),
(542,415,o),
(533,415,cs),
(69,415,ls),
(61,415,o),
(55,409,o),
(55,401,cs),
(55,295,ls),
(55,287,o),
(61,281,o),
(69,281,cs),
(410,281,l),
(410,99,ls),
(410,91,o),
(416,85,o),
(428,85,cs)
);
}
);
vertWidth = 1000;
width = 650;
}
);
note = cid00153;
unicode = 172;
}
{
glyphname = registered;
layers = (
{
hints = (
{
horizontal = 1;
place = (214, 55);
place = (214, 55);
type = Stem;
},
{
horizontal = 1;
place = (463, 48);
place = (463, 48);
type = Stem;
},
{
horizontal = 1;
place = (586, 49);
place = (586, 49);
type = Stem;
},
{
horizontal = 1;
place = (728, 54);
place = (728, 54);
type = Stem;
},
{
place = (54, 57);
place = (54, 57);
type = Stem;
},
{
place = (250, 54);
place = (250, 54);
type = Stem;
},
{
place = (394, 55);
place = (394, 55);
type = Stem;
},
{
place = (561, 56);
place = (561, 56);
type = Stem;
}
);
layerId = m01;
shapes = (
{
closed = 1;
nodes = (
(500,214,o),
(617,330,o),
(617,498,cs),
(617,666,o),
(500,782,o),
(336,782,cs),
(171,782,o),
(54,666,o),
(54,498,cs),
(54,330,o),
(171,214,o),
(336,214,cs)
);
},
{
closed = 1;
nodes = (
(111,628,o),
(194,728,o),
(336,728,cs),
(477,728,o),
(561,628,o),
(561,498,cs),
(561,368,o),
(477,269,o),
(336,269,cs),
(194,269,o),
(111,368,o),
(111,498,cs)
);
},
{
closed = 1;
nodes = (
(250,377,ls),
(250,372,o),
(253,369,o),
(258,369,cs),
(295,369,ls),
(300,369,o),
(304,372,o),
(304,377,cs),
(304,463,l),
(344,463,l),
(397,374,ls),
(399,371,o),
(402,369,o),
(407,369,cs),
(447,369,ls),
(451,369,o),
(454,371,o),
(454,374,cs),
(454,375,o),
(453,377,o),
(452,379,cs),
(397,471,l),
(434,486,o),
(449,515,o),
(449,549,cs),
(449,598,o),
(420,635,o),
(344,635,cs),
(258,635,ls),
(253,635,o),
(250,632,o),
(250,626,cs)
);
},
{
closed = 1;
nodes = (
(304,511,l),
(304,586,l),
(343,586,ls),
(379,586,o),
(394,571,o),
(394,549,cs),
(394,526,o),
(379,511,o),
(343,511,cs)
);
}
);
vertWidth = 1000;
width = 671;
}
);
note = cid00154;
unicode = 174;
}
{
glyphname = macroncomb;
layers = (
{
hints = (
{
horizontal = 1;
place = (633, 106);
place = (633, 106);
type = Stem;
},
{
place = (70, 334);
place = (70, 334);
type = Stem;
}
);
layerId = m01;
shapes = (
{
closed = 1;
nodes = (
(84,739,ls),
(75,739,o),
(70,734,o),
(70,725,cs),
(70,647,ls),
(70,638,o),
(75,633,o),
(84,633,cs),
(390,633,ls),
(399,633,o),
(404,638,o),
(404,647,cs),
(404,725,ls),
(404,734,o),
(399,739,o),
(390,739,cs)
);
}
);
vertWidth = 1000;
width = 473;
}
);
note = cid00129;
unicode = (175,772);
}
{
glyphname = degree.full;
layers = (
{
hints = (
{
horizontal = 1;
place = (578, 66);
place = (578, 66);
type = Stem;
},
{
horizontal = 1;
place = (789, 67);
place = (789, 67);
type = Stem;
},
{
place = (8, 67);
place = (8, 67);
type = Stem;
},
{
place = (220, 66);
place = (220, 66);
type = Stem;
}
);
layerId = m01;
shapes = (
{
closed = 1;
nodes = (
(70,856,o),
(8,793,o),
(8,717,cs),
(8,639,o),
(70,578,o),
(148,578,cs),
(225,578,o),
(286,640,o),
(286,717,cs),
(286,794,o),
(224,856,o),
(148,856,cs)
);
},
{
closed = 1;
nodes = (
(187,789,o),
(220,757,o),
(220,717,cs),
(220,677,o),
(188,644,o),
(147,644,cs),
(107,644,o),
(75,677,o),
(75,717,cs),
(75,757,o),
(107,789,o),
(147,789,cs)
);
}
);
vertWidth = 1000;
width = 1000;
}
);
note = cid00707;
unicode = 176;
}
{
glyphname = plusminus.full;
layers = (
{
hints = (
{
horizontal = 1;
place = (0, 131);
place = (0, 131);
type = Stem;
},
{
horizontal = 1;
place = (381, 131);
place = (381, 131);
type = Stem;
},
{
place = (434, 133);
place = (434, 133);
type = Stem;
}
);
layerId = m01;
shapes = (
{
closed = 1;
nodes = (
(434,381,l),
(434,192,ls),
(434,183,o),
(439,178,o),
(448,178,cs),
(553,178,ls),
(562,178,o),
(567,183,o),
(567,192,cs),
(567,381,l),
(796,381,ls),
(805,381,o),
(810,386,o),
(810,395,cs),
(810,498,ls),
(810,507,o),
(805,512,o),
(796,512,cs),
(567,512,l),
(567,700,ls),
(567,709,o),
(562,714,o),
(553,714,cs),
(448,714,ls),
(439,714,o),
(434,709,o),
(434,700,cs),
(434,512,l),
(204,512,ls),
(195,512,o),
(190,507,o),
(190,498,cs),
(190,395,ls),
(190,386,o),
(195,381,o),
(204,381,cs)
);
},
{
closed = 1;
nodes = (
(796,0,ls),
(805,0,o),
(810,5,o),
(810,14,cs),
(810,117,ls),
(810,126,o),
(805,131,o),
(796,131,cs),
(204,131,ls),
(195,131,o),
(190,126,o),
(190,117,cs),
(190,14,ls),
(190,5,o),
(195,0,o),
(204,0,cs)
);
}
);
vertWidth = 1000;
width = 1000;
}
);
note = cid00694;
unicode = 177;
}
{
glyphname = twosuperior;
layers = (
{
hints = (
{
horizontal = 1;
place = (322, 94);
place = (322, 94);
type = Stem;
},
{
horizontal = 1;
place = (671, 97);
place = (671, 97);
type = Stem;
},
{
place = (260, 120);
place = (260, 120);
type = Stem;
}
);
layerId = m01;
shapes = (
{
closed = 1;
nodes = (
(370,322,ls),
(379,322,o),
(384,327,o),
(384,336,cs),
(384,402,ls),
(384,411,o),
(379,416,o),
(370,416,cs),
(239,416,l),
(276,453,ls),
(326,503,o),
(380,565,o),
(380,637,cs),
(380,718,o),
(314,768,o),
(222,768,cs),
(145,768,o),
(81,723,o),
(57,651,cs),
(54,643,o),
(58,637,o),
(67,634,c),
(138,618,l),
(147,617,o),
(152,619,o),
(155,627,cs),
(168,657,o),
(188,671,o),
(215,671,cs),
(241,671,o),
(260,656,o),
(260,627,cs),
(260,595,o),
(246,557,o),
(187,496,cs),
(66,372,ls),
(61,367,o),
(59,361,o),
(59,354,cs),
(59,336,ls),
(59,327,o),
(64,322,o),
(73,322,cs)
);
}
);
vertWidth = 1000;
width = 500;
}
);
note = cid00157;
unicode = 178;
}
{
glyphname = threesuperior;
layers = (
{
hints = (
{
horizontal = 1;
place = (312, 97);
place = (312, 97);
type = Stem;
},
{
horizontal = 1;
place = (508, 85);
place = (508, 85);
type = Stem;
},
{
horizontal = 1;
place = (671, 98);
place = (671, 98);
type = Stem;
},
{
place = (270, 118);
place = (270, 118);
type = Stem;
},
{
place = (263, 114);
place = (263, 114);
type = Stem;
}
);
layerId = m01;
shapes = (
{
closed = 1;
nodes = (
(308,312,o),
(388,365,o),
(388,446,cs),
(388,499,o),
(360,534,o),
(315,551,c),
(354,572,o),
(377,610,o),
(377,650,cs),
(377,723,o),
(312,769,o),
(217,769,cs),
(142,769,o),
(75,728,o),
(53,662,cs),
(50,653,o),
(54,646,o),
(63,644,cs),
(133,628,ls),
(141,626,o),
(147,629,o),
(152,637,cs),
(164,658,o),
(183,671,o),
(211,671,cs),
(238,671,o),
(263,658,o),
(263,636,cs),
(263,606,o),
(244,593,o),
(206,593,cs),
(188,593,ls),
(180,593,o),
(174,588,o),
(174,579,cs),
(174,522,ls),
(174,513,o),
(180,508,o),
(188,508,cs),
(206,508,ls),
(247,508,o),
(270,488,o),
(270,457,cs),
(270,425,o),
(244,409,o),
(212,409,cs),
(174,409,o),
(149,430,o),
(135,459,cs),
(132,465,o),
(127,469,o),
(122,469,c),
(50,451,ls),
(43,449,o),
(39,445,o),
(39,440,cs),
(39,438,o),
(39,436,o),
(40,434,cs),
(62,367,o),
(114,312,o),
(219,312,cs)
);
}
);
vertWidth = 1000;
width = 500;
}
);
note = cid00158;
unicode = 179;
}
{
glyphname = acute.full;
layers = (
{
hints = (
{
horizontal = 1;
place = (597, 173);
place = (597, 173);
type = Stem;
},
{
place = (380, 239);
place = (380, 239);
type = Stem;
}
);
layerId = m01;
shapes = (
{
closed = 1;
nodes = (
(481,770,ls),
(473,770,o),
(468,767,o),
(464,760,cs),
(382,612,ls),
(378,604,o),
(380,597,o),
(391,597,cs),
(496,597,ls),
(503,597,o),
(509,599,o),
(513,606,cs),
(617,756,ls),
(622,763,o),
(620,770,o),
(609,770,cs)
);
}
);
vertWidth = 1000;
width = 1000;
}
);
note = cid00645;
unicode = 180;
}
{
glyphname = micro;
layers = (
{
hints = (
{
horizontal = 1;
place = (-36, 113);
place = (-36, 113);
type = Stem;
},
{
horizontal = 1;
place = (533, -20);
target = down;
type = TopGhost;
},
{
place = (75, 143);
place = (75, 143);
type = Stem;
},
{
place = (458, 144);
place = (458, 144);
type = Stem;
},
{
horizontal = 1;
place = (-43, 127);
place = (-43, 127);
type = Stem;
}
);
layerId = m01;
shapes = (
{
closed = 1;
nodes = (
(685,-29,o),
(691,-23,o),
(691,-12,cs),
(691,67,ls),
(691,78,o),
(686,82,o),
(675,80,cs),
(662,77,o),
(652,77,o),
(644,77,cs),
(618,78,o),
(602,95,o),
(602,131,cs),
(602,519,ls),
(602,528,o),
(596,533,o),
(587,533,cs),
(473,533,ls),
(464,533,o),
(458,528,o),
(458,519,cs),
(458,228,ls),
(458,125,o),
(401,84,o),
(337,84,cs),
(265,84,o),
(218,126,o),
(218,216,cs),
(218,519,ls),
(218,527,o),
(214,532,o),
(204,533,c),
(89,533,ls),
(82,533,o),
(76,529,o),
(75,519,c),
(75,-256,ls),
(75,-265,o),
(80,-270,o),
(89,-270,cs),
(204,-270,ls),
(213,-270,o),
(218,-265,o),
(218,-256,cs),
(218,11,l),
(240,-21,o),
(286,-43,o),
(341,-43,cs),
(411,-43,o),
(477,-3,o),
(498,62,c),
(511,1,o),
(558,-36,o),
(621,-36,cs),
(633,-36,o),
(654,-34,o),
(675,-31,cs)
);
}
);
vertWidth = 1000;
width = 701;
}
);
note = cid00159;
unicode = 181;
}
{
glyphname = paragraph.full;
layers = (
{
hints = (
{
horizontal = 1;
place = (716, 100);
place = (716, 100);
type = Stem;
},
{
place = (432, 109);
place = (432, 109);
type = Stem;
},
{
place = (599, 108);
place = (599, 108);
type = Stem;
}
);
layerId = m01;
shapes = (
{
closed = 1;
nodes = (
(541,716,l),
(599,716,l),
(599,-62,ls),
(599,-71,o),
(604,-76,o),
(613,-76,cs),
(693,-76,ls),
(702,-76,o),
(707,-71,o),
(707,-62,cs),
(707,802,ls),
(707,811,o),
(702,816,o),
(693,816,cs),
(450,816,ls),
(306,816,o),
(177,720,o),
(177,541,cs),
(177,370,o),
(296,273,o),
(432,266,c),
(432,-62,ls),
(432,-71,o),
(437,-76,o),
(446,-76,cs),
(527,-76,ls),
(536,-76,o),
(541,-71,o),
(541,-62,cs)
);
}
);
vertWidth = 1000;
width = 1000;
}
);
note = cid00778;
unicode = 182;
}
{
glyphname = periodcentered;
layers = (
{
hints = (
{
horizontal = 1;
place = (245, 171);
place = (245, 171);
type = Stem;
},
{
place = (100, 175);
place = (100, 175);
type = Stem;
}
);
layerId = m01;
shapes = (
{
closed = 1;
nodes = (
(237,245,o),
(275,280,o),
(275,330,cs),
(275,380,o),
(237,416,o),
(187,416,cs),
(138,416,o),
(100,380,o),
(100,330,cs),
(100,280,o),
(138,245,o),
(187,245,cs)
);
}
);
vertWidth = 1000;
width = 361;
}
);
note = cid00117;
unicode = (183,8729);
}
{
glyphname = cedillacomb;
layers = (
{
hints = (
{
horizontal = 1;
place = (-302, 86);
place = (-302, 86);
type = Stem;
},
{
horizontal = 1;
place = (-163, 165);
place = (-163, 165);
type = Stem;
},
{
place = (263, 119);
place = (263, 119);
type = Stem;
}
);
layerId = m01;
shapes = (
{
closed = 1;
nodes = (
(200,2,ls),
(191,2,o),
(185,-2,o),
(182,-11,cs),
(140,-150,ls),
(137,-159,o),
(140,-163,o),
(150,-163,cs),
(173,-163,o),
(199,-164,o),
(220,-167,cs),
(247,-171,o),
(263,-179,o),
(263,-191,cs),
(263,-207,o),
(244,-216,o),
(200,-216,cs),
(174,-216,o),
(145,-212,o),
(117,-207,cs),
(107,-205,o),
(103,-209,o),
(104,-218,cs),
(108,-272,ls),
(109,-281,o),
(114,-287,o),
(123,-289,cs),
(153,-297,o),
(183,-302,o),
(214,-302,cs),
(313,-302,o),
(382,-254,o),
(382,-189,cs),
(382,-128,o),
(321,-95,o),
(261,-89,c),
(279,-12,ls),
(281,-3,o),
(277,2,o),
(268,2,cs)
);
}
);
vertWidth = 1000;
width = 459;
}
);
note = cid00134;
unicode = (184,807);
}
{
glyphname = onesuperior;
layers = (
{
hints = (
{
horizontal = 1;
place = (323, 435);
place = (323, 435);
type = Stem;
},
{
place = (192, 113);
place = (192, 113);
type = Stem;
}
);
layerId = m01;
shapes = (
{
closed = 1;
nodes = (
(291,323,ls),
(300,323,o),
(305,328,o),
(305,337,cs),
(305,744,ls),
(305,753,o),
(300,758,o),
(291,758,cs),
(237,758,ls),
(231,758,o),
(225,757,o),
(220,753,cs),
(83,651,l),
(79,647,o),
(77,643,o),
(77,638,cs),
(77,636,o),
(77,633,o),
(78,631,cs),
(91,604,l),
(93,598,o),
(97,595,o),
(102,595,cs),
(104,595,o),
(107,596,o),
(109,597,cs),
(192,629,l),
(192,337,ls),
(192,328,o),
(197,323,o),
(206,323,cs)
);
}
);
vertWidth = 1000;
width = 500;
}
);
note = cid00160;
unicode = 185;
}
{
glyphname = ordmasculine;
layers = (
{
hints = (
{
horizontal = 1;
place = (314, 109);
place = (314, 109);
type = Stem;
},
{
horizontal = 1;
place = (676, 109);
place = (676, 109);
type = Stem;
},
{
place = (37, 122);
place = (37, 122);
type = Stem;
},
{
place = (381, 122);
place = (381, 122);
type = Stem;
}
);
layerId = m01;
shapes = (
{
closed = 1;
nodes = (
(130,785,o),
(37,688,o),
(37,550,cs),
(37,411,o),
(130,314,o),
(270,314,cs),
(411,314,o),
(503,411,o),
(503,550,cs),
(503,688,o),
(411,785,o),
(270,785,cs)
);
},
{
closed = 1;
nodes = (
(336,676,o),
(381,625,o),
(381,550,cs),
(381,474,o),
(336,423,o),
(270,423,cs),
(205,423,o),
(159,474,o),
(159,550,cs),
(159,625,o),
(205,676,o),
(270,676,cs)
);
}
);
vertWidth = 1000;
width = 541;
}
);
note = cid00144;
unicode = 186;
}
{
glyphname = guillemetright;
layers = (
{
hints = (
{
horizontal = 1;
place = (42, 549);
place = (42, 549);
type = Stem;
},
{
place = (70, 595);
place = (70, 595);
type = Stem;
}
);
layerId = m01;
shapes = (
{
closed = 1;
nodes = (
(253,317,l),
(82,194,ls),
(74,189,o),
(70,182,o),
(70,172,cs),
(70,51,ls),
(70,42,o),
(74,40,o),
(82,45,cs),
(443,308,ls),
(451,314,o),
(451,319,o),
(443,325,cs),
(82,588,ls),
(74,593,o),
(70,592,o),
(70,582,cs),
(70,462,ls),
(70,452,o),
(74,445,o),
(82,440,cs)
);
},
{
closed = 1;
nodes = (
(535,317,l),
(349,178,ls),
(341,172,o),
(338,165,o),
(338,155,cs),
(338,51,ls),
(338,41,o),
(341,40,o),
(349,45,cs),
(654,272,ls),
(662,278,o),
(665,285,o),
(665,295,cs),
(665,338,ls),
(665,348,o),
(662,355,o),
(654,361,cs),
(349,588,ls),
(341,594,o),
(338,592,o),
(338,583,cs),
(338,479,ls),
(338,469,o),
(341,462,o),
(349,456,cs)
);
}
);
vertWidth = 1000;
width = 725;
}
);
note = cid00123;
unicode = 187;
}
{
glyphname = onequarter;
layers = (
{
hints = (
{
horizontal = 1;
place = (40, 87);
place = (40, 87);
type = Stem;
},
{
place = (192, 113);
place = (192, 113);
type = Stem;
},
{
place = (811, 113);
place = (811, 113);
type = Stem;
}
);
layerId = m01;
shapes = (
{
closed = 1;
nodes = (
(91,604,l),
(93,598,o),
(97,595,o),
(102,595,cs),
(104,595,o),
(107,596,o),
(109,597,cs),
(192,629,l),
(192,337,ls),
(192,328,o),
(197,323,o),
(206,323,cs),
(291,323,ls),
(300,323,o),
(305,328,o),
(305,337,cs),
(305,744,ls),
(305,753,o),
(300,758,o),
(291,758,cs),
(237,758,ls),
(231,758,o),
(225,757,o),
(220,753,cs),
(83,651,l),
(79,647,o),
(77,643,o),
(77,638,cs),
(77,636,o),
(77,633,o),
(78,631,cs)
);
},
{
closed = 1;
nodes = (
(338,-37,ls),
(345,-37,o),
(351,-34,o),
(355,-27,cs),
(852,741,ls),
(854,744,o),
(855,746,o),
(855,749,cs),
(855,754,o),
(850,758,o),
(843,758,cs),
(734,758,ls),
(727,758,o),
(721,755,o),
(717,748,cs),
(220,-20,ls),
(218,-23,o),
(217,-25,o),
(217,-28,cs),
(217,-33,o),
(222,-37,o),
(230,-37,cs)
);
},
{
closed = 1;
nodes = (
(593,54,ls),
(593,45,o),
(599,40,o),
(608,40,cs),
(811,40,l),
(811,-23,ls),
(811,-32,o),
(817,-37,o),
(825,-37,cs),
(910,-37,ls),
(918,-37,o),
(924,-32,o),
(924,-23,cs),
(924,40,l),
(962,40,ls),
(970,40,o),
(976,45,o),
(976,54,cs),
(976,112,ls),
(976,121,o),
(970,127,o),
(962,127,cs),
(924,127,l),
(924,384,ls),
(924,393,o),
(918,398,o),
(910,398,cs),
(844,398,ls),
(836,398,o),
(831,395,o),
(826,390,c),
(599,90,ls),
(595,84,o),
(593,79,o),
(593,72,cs)
);
},
{
closed = 1;
nodes = (
(811,127,l),
(717,127,l),
(811,250,l)
);
}
);
vertWidth = 1000;
width = 1009;
}
);
note = cid00161;
unicode = 188;
}
{
glyphname = onehalf;
layers = (
{
hints = (
{
horizontal = 1;
place = (-37, 94);
place = (-37, 94);
type = Stem;
},
{
horizontal = 1;
place = (312, 97);
place = (312, 97);
type = Stem;
},
{
place = (192, 113);
place = (192, 113);
type = Stem;
},
{
place = (828, 120);
place = (828, 120);
type = Stem;
}
);
layerId = m01;
shapes = (
{
closed = 1;
nodes = (
(295,-37,ls),
(302,-37,o),
(308,-34,o),
(312,-27,cs),
(809,741,ls),
(815,750,o),
(810,758,o),
(799,758,cs),
(691,758,ls),
(683,758,o),
(678,755,o),
(674,748,cs),
(177,-20,ls),
(175,-23,o),
(174,-26,o),
(174,-28,cs),
(174,-33,o),
(178,-37,o),
(186,-37,cs)
);
},
{
closed = 1;
nodes = (
(91,604,l),
(93,598,o),
(97,595,o),
(102,595,cs),
(104,595,o),
(107,596,o),
(109,597,cs),
(192,629,l),
(192,337,ls),
(192,328,o),
(197,323,o),
(206,323,cs),
(291,323,ls),
(300,323,o),
(305,328,o),
(305,337,cs),
(305,744,ls),
(305,753,o),
(300,758,o),
(291,758,cs),
(237,758,ls),
(231,758,o),
(225,757,o),
(220,753,cs),
(83,651,l),
(79,647,o),
(77,643,o),
(77,638,cs),
(77,636,o),
(77,633,o),
(78,631,cs)
);
},
{
closed = 1;
nodes = (
(622,284,o),
(626,277,o),
(635,275,cs),
(706,259,l),
(714,256,o),
(720,260,o),
(723,268,cs),
(736,298,o),
(756,312,o),
(783,312,cs),
(809,312,o),
(828,297,o),
(828,268,cs),
(828,236,o),
(813,198,o),
(755,137,cs),
(634,13,ls),
(629,8,o),
(627,2,o),
(627,-5,cs),
(627,-23,ls),
(627,-32,o),
(632,-37,o),
(641,-37,cs),
(938,-37,ls),
(947,-37,o),
(952,-32,o),
(952,-23,cs),
(952,43,ls),
(952,52,o),
(947,57,o),
(938,57,cs),
(807,57,l),
(844,94,ls),
(893,144,o),
(948,206,o),
(948,278,cs),
(948,359,o),
(882,409,o),
(790,409,cs),
(713,409,o),
(649,364,o),
(625,292,cs)
);
}
);
vertWidth = 1000;
width = 1009;
}
);
note = cid00162;
unicode = 189;
}
{
glyphname = threequarters;
layers = (
{
hints = (
{
horizontal = 1;
place = (40, 87);
place = (40, 87);
type = Stem;
},
{
horizontal = 1;
place = (312, 97);
place = (312, 97);
type = Stem;
},
{
horizontal = 1;
place = (508, 85);
place = (508, 85);
type = Stem;
},
{
horizontal = 1;
place = (671, 98);
place = (671, 98);
type = Stem;
},
{
place = (270, 118);
place = (270, 118);
type = Stem;
},
{
place = (811, 113);
place = (811, 113);
type = Stem;
},
{
place = (263, 114);
place = (263, 114);
type = Stem;
}
);
layerId = m01;
shapes = (
{
closed = 1;
nodes = (
(308,312,o),
(388,365,o),
(388,446,cs),
(388,499,o),
(360,534,o),
(315,551,c),
(354,572,o),
(377,610,o),
(377,650,cs),
(377,723,o),
(312,769,o),
(217,769,cs),
(142,769,o),
(75,728,o),
(53,662,cs),
(50,653,o),
(54,646,o),
(63,644,cs),
(133,628,ls),
(141,626,o),
(147,629,o),
(152,637,cs),
(164,658,o),
(183,671,o),
(211,671,cs),
(238,671,o),
(263,658,o),
(263,636,cs),
(263,606,o),
(244,593,o),
(206,593,cs),
(188,593,ls),
(180,593,o),
(174,588,o),
(174,579,cs),
(174,522,ls),
(174,513,o),
(180,508,o),
(188,508,cs),
(206,508,ls),
(247,508,o),
(270,488,o),
(270,457,cs),
(270,425,o),
(244,409,o),
(212,409,cs),
(174,409,o),
(149,430,o),
(135,459,cs),
(132,465,o),
(127,469,o),
(122,469,c),
(50,451,ls),
(43,449,o),
(39,445,o),
(39,440,cs),
(39,438,o),
(39,436,o),
(40,434,cs),
(62,367,o),
(114,312,o),
(219,312,cs)
);
},
{
closed = 1;
nodes = (
(220,-20,ls),
(218,-23,o),
(217,-25,o),
(217,-28,cs),
(217,-33,o),
(222,-37,o),
(230,-37,cs),
(338,-37,ls),
(345,-37,o),
(351,-34,o),
(355,-27,cs),
(852,741,ls),
(854,744,o),
(855,746,o),
(855,749,cs),
(855,754,o),
(850,758,o),
(843,758,cs),
(734,758,ls),
(727,758,o),
(721,755,o),
(717,748,cs)
);
},
{
closed = 1;
nodes = (
(593,54,ls),
(593,45,o),
(599,40,o),
(608,40,cs),
(811,40,l),
(811,-23,ls),
(811,-32,o),
(817,-37,o),
(825,-37,cs),
(910,-37,ls),
(918,-37,o),
(924,-32,o),
(924,-23,cs),
(924,40,l),
(962,40,ls),
(970,40,o),
(976,45,o),
(976,54,cs),
(976,112,ls),
(976,121,o),
(970,127,o),
(962,127,cs),
(924,127,l),
(924,384,ls),
(924,393,o),
(918,398,o),
(910,398,cs),
(844,398,ls),
(836,398,o),
(831,395,o),
(826,390,c),
(599,90,ls),
(595,84,o),
(593,79,o),
(593,72,cs)
);
},
{
closed = 1;
nodes = (
(811,127,l),
(717,127,l),
(811,250,l)
);
}
);
vertWidth = 1000;
width = 1009;
}
);
note = cid00163;
unicode = 190;
}
{
glyphname = questiondown;
layers = (
{
hints = (
{
horizontal = 1;
place = (-286, 143);
place = (-286, 143);
type = Stem;
},
{
horizontal = 1;
place = (84, 221);
place = (84, 221);
type = Stem;
},
{
horizontal = 1;
place = (369, 166);
place = (369, 166);
type = Stem;
},
{
place = (44, 152);
place = (44, 152);
type = Stem;
},
{
place = (265, 133);
place = (265, 133);
type = Stem;
},
{
place = (246, 173);
place = (246, 173);
type = Stem;
}
);
layerId = m01;
shapes = (
{
closed = 1;
nodes = (
(279,305,ls),
(271,305,o),
(265,301,o),
(265,291,cs),
(263,203,l),
(121,180,o),
(44,72,o),
(44,-51,cs),
(44,-194,o),
(149,-286,o),
(299,-286,cs),
(433,-286,o),
(534,-215,o),
(576,-95,cs),
(579,-87,o),
(575,-80,o),
(566,-78,cs),
(452,-49,ls),
(445,-47,o),
(438,-50,o),
(434,-58,cs),
(410,-111,o),
(370,-143,o),
(310,-143,cs),
(238,-143,o),
(196,-102,o),
(196,-37,cs),
(196,33,o),
(242,84,o),
(350,84,cs),
(389,84,ls),
(397,84,o),
(403,90,o),
(403,98,cs),
(398,291,ls),
(398,301,o),
(393,305,o),
(384,305,cs)
);
},
{
closed = 1;
nodes = (
(419,501,o),
(381,535,o),
(332,535,cs),
(284,535,o),
(246,501,o),
(246,451,cs),
(246,402,o),
(284,369,o),
(332,369,cs),
(381,369,o),
(419,402,o),
(419,451,cs)
);
}
);
vertWidth = 1000;
width = 603;
}
);
note = cid00126;
unicode = 191;
}
{
glyphname = Agrave;
layers = (
{
hints = (
{
horizontal = 1;
place = (122, 136);
place = (122, 136);
type = Stem;
},
{
horizontal = 1;
place = (834, 174);
place = (834, 174);
type = Stem;
},
{
place = (22, 771);
place = (22, 771);
type = Stem;
}
);
layerId = m01;
shapes = (
{
closed = 1;
nodes = (
(169,-37,ls),
(177,-37,o),
(182,-34,o),
(185,-26,cs),
(242,122,l),
(572,122,l),
(628,-26,ls),
(631,-34,o),
(637,-37,o),
(644,-37,cs),
(781,-37,ls),
(789,-37,o),
(793,-33,o),
(793,-27,cs),
(793,-25,o),
(793,-23,o),
(792,-21,cs),
(474,747,ls),
(471,755,o),
(466,758,o),
(458,758,cs),
(357,758,ls),
(350,758,o),
(344,755,o),
(341,747,cs),
(24,-21,ls),
(19,-31,o),
(25,-37,o),
(35,-37,cs)
);
},
{
closed = 1;
nodes = (
(270,1008,ls),
(261,1008,o),
(259,1004,o),
(264,997,cs),
(368,846,ls),
(373,838,o),
(380,834,o),
(390,834,cs),
(494,834,ls),
(504,834,o),
(506,838,o),
(502,847,c),
(420,996,ls),
(415,1004,o),
(409,1008,o),
(399,1008,cs)
);
},
{
closed = 1;
nodes = (
(520,258,l),
(292,258,l),
(406,559,l)
);
}
);
vertWidth = 1000;
width = 815;
}
);
note = cid00164;
unicode = 192;
}
{
glyphname = Aacute;
layers = (
{
hints = (
{
horizontal = 1;
place = (122, 136);
place = (122, 136);
type = Stem;
},
{
horizontal = 1;
place = (841, 174);
place = (841, 174);
type = Stem;
},
{
place = (22, 771);
place = (22, 771);
type = Stem;
}
);
layerId = m01;
shapes = (
{
closed = 1;
nodes = (
(169,-37,ls),
(177,-37,o),
(182,-34,o),
(185,-26,cs),
(242,122,l),
(572,122,l),
(628,-26,ls),
(631,-34,o),
(637,-37,o),
(644,-37,cs),
(781,-37,ls),
(789,-37,o),
(793,-33,o),
(793,-27,cs),
(793,-25,o),
(793,-23,o),
(792,-21,cs),
(474,747,ls),
(471,755,o),
(466,758,o),
(458,758,cs),
(357,758,ls),
(350,758,o),
(344,755,o),
(341,747,cs),
(24,-21,ls),
(19,-31,o),
(25,-37,o),
(35,-37,cs)
);
},
{
closed = 1;
nodes = (
(412,1015,ls),
(404,1015,o),
(399,1011,o),
(395,1004,cs),
(314,856,ls),
(310,848,o),
(311,841,o),
(322,841,cs),
(427,841,ls),
(435,841,o),
(440,844,o),
(444,850,cs),
(548,1000,ls),
(553,1008,o),
(551,1015,o),
(540,1015,cs)
);
},
{
closed = 1;
nodes = (
(520,258,l),
(292,258,l),
(406,559,l)
);
}
);
vertWidth = 1000;
width = 815;
}
);
note = cid00165;
unicode = 193;
}
{
glyphname = Atilde;
layers = (
{
hints = (
{
horizontal = 1;
place = (122, 136);
place = (122, 136);
type = Stem;
},
{
horizontal = 1;
place = (867, 161);
place = (867, 161);
type = Stem;
},
{
place = (208, 108);
place = (208, 108);
type = Stem;
},
{
place = (480, 108);
place = (480, 108);
type = Stem;
},
{
horizontal = 1;
place = (929, 99);
place = (929, 99);
type = Stem;
},
{
horizontal = 1;
place = (863, 161);
place = (863, 161);
type = Stem;
},
{
horizontal = 1;
place = (863, 99);
place = (863, 99);
type = Stem;
}
);
layerId = m01;
shapes = (
{
closed = 1;
nodes = (
(169,-37,ls),
(177,-37,o),
(182,-34,o),
(185,-26,cs),
(242,122,l),
(572,122,l),
(628,-26,ls),
(631,-34,o),
(637,-37,o),
(644,-37,cs),
(781,-37,ls),
(789,-37,o),
(793,-33,o),
(793,-27,cs),
(793,-25,o),
(793,-23,o),
(792,-21,cs),
(474,747,ls),
(471,755,o),
(466,758,o),
(458,758,cs),
(357,758,ls),
(350,758,o),
(344,755,o),
(341,747,cs),
(24,-21,ls),
(19,-31,o),
(25,-37,o),
(35,-37,cs)
);
},
{
closed = 1;
nodes = (
(208,872,o),
(214,867,o),
(224,867,cs),
(302,867,ls),
(312,867,o),
(316,871,o),
(316,882,cs),
(317,911,o),
(329,929,o),
(342,929,cs),
(373,929,o),
(405,863,o),
(476,863,cs),
(544,863,o),
(589,924,o),
(588,1009,cs),
(588,1019,o),
(583,1024,o),
(573,1024,cs),
(494,1024,ls),
(485,1024,o),
(481,1019,o),
(480,1009,cs),
(480,980,o),
(467,962,o),
(454,962,cs),
(425,962,o),
(391,1028,o),
(321,1028,cs),
(253,1028,o),
(208,963,o),
(208,882,cs)
);
},
{
closed = 1;
nodes = (
(520,258,l),
(292,258,l),
(406,559,l)
);
}
);
vertWidth = 1000;
width = 815;
}
);
note = cid00167;
unicode = 195;
}
{
glyphname = Adieresis;
layers = (
{
hints = (
{
horizontal = 1;
place = (122, 136);
place = (122, 136);
type = Stem;
},
{
horizontal = 1;
place = (850, 144);
place = (850, 144);
type = Stem;
},
{
place = (234, 147);
place = (234, 147);
type = Stem;
},
{
place = (429, 147);
place = (429, 147);
type = Stem;
}
);
layerId = m01;
shapes = (
{
closed = 1;
nodes = (
(169,-37,ls),
(177,-37,o),
(182,-34,o),
(185,-26,cs),
(242,122,l),
(572,122,l),
(628,-26,ls),
(631,-34,o),
(637,-37,o),
(644,-37,cs),
(781,-37,ls),
(789,-37,o),
(793,-33,o),
(793,-27,cs),
(793,-25,o),
(793,-23,o),
(792,-21,cs),
(474,747,ls),
(471,755,o),
(466,758,o),
(458,758,cs),
(357,758,ls),
(350,758,o),
(344,755,o),
(341,747,cs),
(24,-21,ls),
(19,-31,o),
(25,-37,o),
(35,-37,cs)
);
},
{
closed = 1;
nodes = (
(266,994,o),
(234,964,o),
(234,921,cs),
(234,879,o),
(266,850,o),
(307,850,cs),
(349,850,o),
(381,879,o),
(381,921,cs),
(381,964,o),
(349,994,o),
(307,994,cs)
);
},
{
closed = 1;
nodes = (
(461,994,o),
(429,964,o),
(429,921,cs),
(429,879,o),
(461,850,o),
(503,850,cs),
(544,850,o),
(576,879,o),
(576,921,cs),
(576,964,o),
(544,994,o),
(503,994,cs)
);
},
{
closed = 1;
nodes = (
(520,258,l),
(292,258,l),
(406,559,l)
);
}
);
vertWidth = 1000;
width = 815;
}
);
note = cid00168;
unicode = 196;
}
{
glyphname = Aring;
layers = (
{
hints = (
{
horizontal = 1;
place = (122, 136);
place = (122, 136);
type = Stem;
},
{
horizontal = 1;
place = (814, 76);
place = (814, 76);
type = Stem;
},
{
horizontal = 1;
place = (979, 76);
place = (979, 76);
type = Stem;
},
{
place = (281, 79);
place = (281, 79);
type = Stem;
},
{
place = (450, 79);
place = (450, 79);
type = Stem;
}
);
layerId = m01;
shapes = (
{
closed = 1;
nodes = (
(169,-37,ls),
(177,-37,o),
(182,-34,o),
(185,-26,cs),
(242,122,l),
(572,122,l),
(628,-26,ls),
(631,-34,o),
(637,-37,o),
(644,-37,cs),
(781,-37,ls),
(789,-37,o),
(793,-33,o),
(793,-27,cs),
(793,-25,o),
(793,-23,o),
(792,-21,cs),
(474,747,ls),
(471,755,o),
(466,758,o),
(458,758,cs),
(357,758,ls),
(350,758,o),
(344,755,o),
(341,747,cs),
(24,-21,ls),
(19,-31,o),
(25,-37,o),
(35,-37,cs)
);
},
{
closed = 1;
nodes = (
(281,868,o),
(337,814,o),
(405,814,cs),
(473,814,o),
(529,868,o),
(529,935,cs),
(529,1001,o),
(473,1055,o),
(405,1055,cs),
(337,1055,o),
(281,1001,o),
(281,935,cs)
);
},
{
closed = 1;
nodes = (
(520,258,l),
(292,258,l),
(406,559,l)
);
},
{
closed = 1;
nodes = (
(360,959,o),
(381,979,o),
(405,979,cs),
(429,979,o),
(450,959,o),
(450,934,cs),
(450,909,o),
(429,890,o),
(405,890,cs),
(381,890,o),
(360,909,o),
(360,934,cs)
);
}
);
vertWidth = 1000;
width = 815;
}
);
note = cid00169;
unicode = 197;
}
{
glyphname = AE;
layers = (
{
hints = (
{
horizontal = 1;
place = (-32, 130);
place = (-32, 130);
type = Stem;
},
{
horizontal = 1;
place = (139, 123);
place = (139, 123);
type = Stem;
},
{
horizontal = 1;
place = (316, 126);
place = (316, 126);
type = Stem;
},
{
horizontal = 1;
place = (638, 130);
place = (638, 130);
type = Stem;
},
{
place = (554, 147);
place = (554, 147);
type = Stem;
}
);
layerId = m01;
shapes = (
{
closed = 1;
nodes = (
(480,768,ls),
(472,768,o),
(466,764,o),
(462,757,cs),
(24,-17,ls),
(19,-26,o),
(24,-32,o),
(35,-32,cs),
(162,-32,ls),
(170,-32,o),
(175,-29,o),
(179,-21,cs),
(272,139,l),
(554,139,l),
(554,-18,ls),
(554,-27,o),
(559,-32,o),
(568,-32,cs),
(1086,-32,ls),
(1094,-32,o),
(1100,-27,o),
(1100,-18,cs),
(1100,83,ls),
(1100,92,o),
(1094,98,o),
(1086,98,cs),
(701,98,l),
(701,316,l),
(1034,316,ls),
(1044,316,o),
(1049,321,o),
(1049,331,cs),
(1049,428,ls),
(1049,437,o),
(1044,442,o),
(1034,442,cs),
(701,442,l),
(701,638,l),
(1073,638,ls),
(1081,638,o),
(1088,644,o),
(1088,653,cs),
(1088,754,ls),
(1088,763,o),
(1081,768,o),
(1073,768,cs)
);
},
{
closed = 1;
nodes = (
(554,262,l),
(338,262,l),
(554,636,l)
);
}
);
vertWidth = 1000;
width = 1142;
}
);
note = cid00139;
unicode = 198;
}
{
glyphname = Ccedilla;
layers = (
{
hints = (
{
horizontal = 1;
place = (-297, 85);
place = (-297, 85);
type = Stem;
},
{
horizontal = 1;
place = (-50, 141);
place = (-50, 141);
type = Stem;
},
{
horizontal = 1;
place = (630, 143);
place = (630, 143);
type = Stem;
},
{
place = (61, 151);
place = (61, 151);
type = Stem;
},
{
horizontal = 1;
place = (-159, 250);
place = (-159, 250);
type = Stem;
},
{
place = (498, 119);
place = (498, 119);
type = Stem;
}
);
layerId = m01;
shapes = (
{
closed = 1;
nodes = (
(810,208,o),
(807,213,o),
(798,215,cs),
(683,248,ls),
(675,250,o),
(669,247,o),
(666,238,cs),
(630,138,o),
(554,91,o),
(453,91,cs),
(302,91,o),
(212,197,o),
(212,360,cs),
(212,523,o),
(301,630,o),
(453,630,cs),
(543,630,o),
(611,590,o),
(649,517,c),
(651,511,o),
(656,508,o),
(661,508,c),
(782,541,ls),
(789,543,o),
(792,547,o),
(792,554,cs),
(792,556,o),
(792,558,o),
(791,560,cs),
(738,695,o),
(617,773,o),
(451,773,cs),
(223,773,o),
(61,611,o),
(61,360,cs),
(61,126,o),
(197,-31,o),
(404,-50,c),
(375,-145,ls),
(372,-154,o),
(375,-158,o),
(385,-159,cs),
(408,-159,o),
(434,-159,o),
(455,-162,cs),
(482,-166,o),
(498,-174,o),
(498,-186,cs),
(498,-202,o),
(479,-212,o),
(435,-212,cs),
(409,-212,o),
(380,-207,o),
(352,-202,cs),
(342,-200,o),
(338,-204,o),
(339,-213,cs),
(343,-267,ls),
(344,-277,o),
(349,-282,o),
(358,-285,cs),
(388,-292,o),
(418,-297,o),
(449,-297,cs),
(548,-297,o),
(617,-249,o),
(617,-184,cs),
(617,-123,o),
(556,-90,o),
(496,-84,c),
(504,-49,l),
(666,-31,o),
(770,67,o),
(808,201,cs)
);
}
);
vertWidth = 1000;
width = 863;
}
);
note = cid00170;
unicode = 199;
}
{
glyphname = Egrave;
layers = (
{
hints = (
{
horizontal = 1;
place = (-37, 138);
place = (-37, 138);
type = Stem;
},
{
horizontal = 1;
place = (304, 136);
place = (304, 136);
type = Stem;
},
{
horizontal = 1;
place = (620, 138);
place = (620, 138);
type = Stem;
},
{
horizontal = 1;
place = (824, 174);
place = (824, 174);
type = Stem;
},
{
place = (87, 146);
place = (87, 146);
type = Stem;
}
);
layerId = m01;
shapes = (
{
closed = 1;
nodes = (
(616,-37,ls),
(625,-37,o),
(630,-32,o),
(630,-23,cs),
(630,86,ls),
(630,95,o),
(625,101,o),
(616,101,cs),
(233,101,l),
(233,304,l),
(567,304,ls),
(576,304,o),
(582,310,o),
(582,318,cs),
(582,425,ls),
(582,434,o),
(576,440,o),
(567,440,cs),
(233,440,l),
(233,620,l),
(603,620,ls),
(612,620,o),
(617,626,o),
(617,634,cs),
(617,744,ls),
(617,753,o),
(612,758,o),
(603,758,cs),
(101,758,ls),
(92,758,o),
(87,753,o),
(87,744,cs),
(87,-23,ls),
(87,-32,o),
(92,-37,o),
(101,-37,cs)
);
},
{
closed = 1;
nodes = (
(223,998,ls),
(213,998,o),
(211,994,o),
(217,986,cs),
(321,836,ls),
(326,828,o),
(333,824,o),
(343,824,cs),
(447,824,ls),
(456,824,o),
(459,828,o),
(454,836,cs),
(373,985,ls),
(368,994,o),
(361,998,o),
(352,998,cs)
);
}
);
vertWidth = 1000;
width = 671;
}
);
note = cid00171;
unicode = 200;
}
{
glyphname = Eacute;
layers = (
{
hints = (
{
horizontal = 1;
place = (-37, 138);
place = (-37, 138);
type = Stem;
},
{
horizontal = 1;
place = (304, 136);
place = (304, 136);
type = Stem;
},
{
horizontal = 1;
place = (620, 138);
place = (620, 138);
type = Stem;
},
{
horizontal = 1;
place = (831, 173);
place = (831, 173);
type = Stem;
},
{
place = (87, 146);
place = (87, 146);
type = Stem;
}
);
layerId = m01;
shapes = (
{
closed = 1;
nodes = (
(616,-37,ls),
(625,-37,o),
(630,-32,o),
(630,-23,cs),
(630,86,ls),
(630,95,o),
(625,101,o),
(616,101,cs),
(233,101,l),
(233,304,l),
(567,304,ls),
(576,304,o),
(582,310,o),
(582,318,cs),
(582,425,ls),
(582,434,o),
(576,440,o),
(567,440,cs),
(233,440,l),
(233,620,l),
(603,620,ls),
(612,620,o),
(617,626,o),
(617,634,cs),
(617,744,ls),
(617,753,o),
(612,758,o),
(603,758,cs),
(101,758,ls),
(92,758,o),
(87,753,o),
(87,744,cs),
(87,-23,ls),
(87,-32,o),
(92,-37,o),
(101,-37,cs)
);
},
{
closed = 1;
nodes = (
(365,1004,ls),
(357,1004,o),
(352,1001,o),
(348,994,cs),
(266,846,ls),
(262,838,o),
(264,831,o),
(275,831,cs),
(380,831,ls),
(387,831,o),
(393,833,o),
(397,840,cs),
(500,990,l),
(506,997,o),
(504,1004,o),
(493,1004,cs)
);
}
);
vertWidth = 1000;
width = 671;
}
);
note = cid00172;
unicode = 201;
}
{
glyphname = Ecircumflex;
layers = (
{
hints = (
{
horizontal = 1;
place = (-37, 138);
place = (-37, 138);
type = Stem;
},
{
horizontal = 1;
place = (304, 136);
place = (304, 136);
type = Stem;
},
{
horizontal = 1;
place = (620, 138);
place = (620, 138);
type = Stem;
},
{
horizontal = 1;
place = (831, 177);
place = (831, 177);
type = Stem;
},
{
place = (87, 146);
place = (87, 146);
type = Stem;
}
);
layerId = m01;
shapes = (
{
closed = 1;
nodes = (
(616,-37,ls),
(625,-37,o),
(630,-32,o),
(630,-23,cs),
(630,86,ls),
(630,95,o),
(625,101,o),
(616,101,cs),
(233,101,l),
(233,304,l),
(567,304,ls),
(576,304,o),
(582,310,o),
(582,318,cs),
(582,425,ls),
(582,434,o),
(576,440,o),
(567,440,cs),
(233,440,l),
(233,620,l),
(603,620,ls),
(612,620,o),
(617,626,o),
(617,634,cs),
(617,744,ls),
(617,753,o),
(612,758,o),
(603,758,cs),
(101,758,ls),
(92,758,o),
(87,753,o),
(87,744,cs),
(87,-23,ls),
(87,-32,o),
(92,-37,o),
(101,-37,cs)
);
},
{
closed = 1;
nodes = (
(276,831,ls),
(285,831,o),
(293,834,o),
(298,842,c),
(358,917,l),
(418,842,ls),
(424,834,o),
(431,831,o),
(441,831,cs),
(538,831,ls),
(547,831,o),
(549,834,o),
(544,842,c),
(426,997,ls),
(420,1004,o),
(413,1008,o),
(404,1008,cs),
(313,1008,ls),
(303,1008,o),
(296,1004,o),
(290,997,cs),
(173,842,ls),
(167,834,o),
(169,831,o),
(178,831,cs)
);
}
);
vertWidth = 1000;
width = 671;
}
);
note = cid00173;
unicode = 202;
}
{
glyphname = Edieresis;
layers = (
{
hints = (
{
horizontal = 1;
place = (-37, 138);
place = (-37, 138);
type = Stem;
},
{
horizontal = 1;
place = (304, 136);
place = (304, 136);
type = Stem;
},
{
horizontal = 1;
place = (620, 138);
place = (620, 138);
type = Stem;
},
{
place = (87, 146);
place = (87, 146);
type = Stem;
},
{
horizontal = 1;
place = (839, 144);
place = (839, 144);
type = Stem;
},
{
place = (186, 147);
place = (186, 147);
type = Stem;
},
{
place = (382, 147);
place = (382, 147);
type = Stem;
}
);
layerId = m01;
shapes = (
{
closed = 1;
nodes = (
(616,-37,ls),
(625,-37,o),
(630,-32,o),
(630,-23,cs),
(630,86,ls),
(630,95,o),
(625,101,o),
(616,101,cs),
(233,101,l),
(233,304,l),
(567,304,ls),
(576,304,o),
(582,310,o),
(582,318,cs),
(582,425,ls),
(582,434,o),
(576,440,o),
(567,440,cs),
(233,440,l),
(233,620,l),
(603,620,ls),
(612,620,o),
(617,626,o),
(617,634,cs),
(617,744,ls),
(617,753,o),
(612,758,o),
(603,758,cs),
(101,758,ls),
(92,758,o),
(87,753,o),
(87,744,cs),
(87,-23,ls),
(87,-32,o),
(92,-37,o),
(101,-37,cs)
);
},
{
closed = 1;
nodes = (
(219,983,o),
(186,953,o),
(186,911,cs),
(186,869,o),
(219,839,o),
(260,839,cs),
(302,839,o),
(333,868,o),
(333,911,cs),
(333,953,o),
(302,983,o),
(260,983,cs)
);
},
{
closed = 1;
nodes = (
(413,983,o),
(382,953,o),
(382,911,cs),
(382,869,o),
(413,839,o),
(455,839,cs),
(496,839,o),
(529,868,o),
(529,911,cs),
(529,953,o),
(497,983,o),
(455,983,cs)
);
}
);
vertWidth = 1000;
width = 671;
}
);
note = cid00174;
unicode = 203;
}
{
glyphname = Igrave;
layers = (
{
hints = (
{
horizontal = 1;
place = (824, 174);
place = (824, 174);
type = Stem;
},
{
place = (87, 146);
place = (87, 146);
type = Stem;
}
);
layerId = m01;
shapes = (
{
closed = 1;
nodes = (
(219,-37,ls),
(227,-37,o),
(233,-32,o),
(233,-23,cs),
(233,744,ls),
(233,753,o),
(227,758,o),
(219,758,cs),
(101,758,ls),
(92,758,o),
(87,753,o),
(87,744,cs),
(87,-23,ls),
(87,-32,o),
(92,-37,o),
(101,-37,cs)
);
},
{
closed = 1;
nodes = (
(28,998,ls),
(18,998,o),
(16,994,o),
(22,986,cs),
(126,836,ls),
(131,828,o),
(138,824,o),
(148,824,cs),
(252,824,ls),
(261,824,o),
(264,828,o),
(259,836,cs),
(178,985,ls),
(173,994,o),
(166,998,o),
(157,998,cs)
);
}
);
vertWidth = 1000;
width = 319;
}
);
note = cid00175;
unicode = 204;
}
{
glyphname = Iacute;
layers = (
{
hints = (
{
horizontal = 1;
place = (831, 173);
place = (831, 173);
type = Stem;
},
{
place = (87, 146);
place = (87, 146);
type = Stem;
}
);
layerId = m01;
shapes = (
{
closed = 1;
nodes = (
(219,-37,ls),
(227,-37,o),
(233,-32,o),
(233,-23,cs),
(233,744,ls),
(233,753,o),
(227,758,o),
(219,758,cs),
(101,758,ls),
(92,758,o),
(87,753,o),
(87,744,cs),
(87,-23,ls),
(87,-32,o),
(92,-37,o),
(101,-37,cs)
);
},
{
closed = 1;
nodes = (
(170,1004,ls),
(162,1004,o),
(157,1001,o),
(153,994,cs),
(71,846,ls),
(67,838,o),
(69,831,o),
(80,831,cs),
(185,831,ls),
(192,831,o),
(198,833,o),
(202,840,cs),
(306,990,ls),
(311,997,o),
(309,1004,o),
(298,1004,cs)
);
}
);
vertWidth = 1000;
width = 319;
}
);
note = cid00176;
unicode = 205;
}
{
glyphname = Icircumflex;
layers = (
{
hints = (
{
horizontal = 1;
place = (831, 177);
place = (831, 177);
type = Stem;
},
{
place = (87, 146);
place = (87, 146);
type = Stem;
}
);
layerId = m01;
shapes = (
{
closed = 1;
nodes = (
(219,-37,ls),
(227,-37,o),
(233,-32,o),
(233,-23,cs),
(233,744,ls),
(233,753,o),
(227,758,o),
(219,758,cs),
(101,758,ls),
(92,758,o),
(87,753,o),
(87,744,cs),
(87,-23,ls),
(87,-32,o),
(92,-37,o),
(101,-37,cs)
);
},
{
closed = 1;
nodes = (
(81,831,ls),
(90,831,o),
(98,834,o),
(103,842,c),
(163,917,l),
(223,842,ls),
(229,834,o),
(236,831,o),
(246,831,cs),
(343,831,ls),
(353,831,o),
(354,834,o),
(349,842,c),
(231,997,ls),
(225,1004,o),
(218,1008,o),
(209,1008,cs),
(118,1008,ls),
(108,1008,o),
(101,1004,o),
(95,997,cs),
(-22,842,ls),
(-28,834,o),
(-26,831,o),
(-17,831,cs)
);
}
);
vertWidth = 1000;
width = 319;
}
);
note = cid00177;
unicode = 206;
}
{
glyphname = Ntilde;
layers = (
{
hints = (
{
horizontal = 1;
place = (768, -20);
target = down;
type = TopGhost;
},
{
horizontal = 1;
place = (856, 157);
place = (856, 157);
type = Stem;
},
{
place = (87, 136);
place = (87, 136);
type = Stem;
},
{
place = (604, 136);
place = (604, 136);
type = Stem;
},
{
place = (227, 103);
place = (227, 103);
type = Stem;
},
{
horizontal = 1;
place = (918, 95);
place = (918, 95);
type = Stem;
},
{
horizontal = 1;
place = (852, 156);
place = (852, 156);
type = Stem;
},
{
horizontal = 1;
place = (852, 95);
place = (852, 95);
type = Stem;
}
);
layerId = m01;
shapes = (
{
closed = 1;
nodes = (
(101,768,ls),
(92,768,o),
(87,762,o),
(87,754,cs),
(87,-17,ls),
(87,-26,o),
(92,-31,o),
(101,-31,cs),
(209,-31,ls),
(218,-31,o),
(223,-26,o),
(223,-17,cs),
(223,549,l),
(590,-22,ls),
(594,-28,o),
(599,-31,o),
(606,-31,cs),
(726,-31,ls),
(735,-31,o),
(740,-26,o),
(740,-17,cs),
(740,754,ls),
(740,762,o),
(735,768,o),
(726,768,cs),
(618,768,ls),
(609,768,o),
(604,762,o),
(604,754,cs),
(604,189,l),
(238,758,ls),
(233,765,o),
(229,768,o),
(221,768,cs)
);
},
{
closed = 1;
nodes = (
(228,861,o),
(233,856,o),
(242,856,cs),
(317,856,ls),
(326,856,o),
(330,860,o),
(330,870,cs),
(331,900,o),
(344,918,o),
(362,918,cs),
(397,918,o),
(420,852,o),
(490,852,cs),
(556,852,o),
(601,911,o),
(600,994,cs),
(600,1003,o),
(595,1008,o),
(585,1008,cs),
(511,1008,ls),
(502,1008,o),
(498,1004,o),
(497,994,cs),
(496,965,o),
(484,947,o),
(466,947,cs),
(431,947,o),
(408,1013,o),
(338,1013,cs),
(271,1013,o),
(227,950,o),
(227,870,c)
);
}
);
vertWidth = 1000;
width = 827;
}
);
note = cid00180;
unicode = 209;
}
{
glyphname = Oacute;
layers = (
{
hints = (
{
horizontal = 1;
place = (-52, 143);
place = (-52, 143);
type = Stem;
},
{
horizontal = 1;
place = (630, 143);
place = (630, 143);
type = Stem;
},
{
horizontal = 1;
place = (840, 174);
place = (840, 174);
type = Stem;
},
{
place = (61, 151);
place = (61, 151);
type = Stem;
},
{
place = (710, 152);
place = (710, 152);
type = Stem;
}
);
layerId = m01;
shapes = (
{
closed = 1;
nodes = (
(693,-52,o),
(862,111,o),
(862,360,cs),
(862,610,o),
(693,773,o),
(461,773,cs),
(230,773,o),
(61,610,o),
(61,360,cs),
(61,111,o),
(230,-52,o),
(461,-52,cs)
);
},
{
closed = 1;
nodes = (
(465,1014,ls),
(458,1014,o),
(452,1011,o),
(449,1004,c),
(367,855,ls),
(363,847,o),
(364,840,o),
(376,840,cs),
(481,840,ls),
(488,840,o),
(493,843,o),
(498,849,cs),
(601,999,ls),
(607,1007,o),
(605,1014,o),
(593,1014,cs)
);
},
{
closed = 1;
nodes = (
(212,517,o),
(309,630,o),
(461,630,cs),
(614,630,o),
(710,517,o),
(710,360,cs),
(710,203,o),
(614,91,o),
(461,91,cs),
(309,91,o),
(212,203,o),
(212,360,cs)
);
}
);
vertWidth = 1000;
width = 923;
}
);
note = cid00182;
unicode = 211;
}
{
glyphname = Ocircumflex;
layers = (
{
hints = (
{
horizontal = 1;
place = (-52, 143);
place = (-52, 143);
type = Stem;
},
{
horizontal = 1;
place = (630, 143);
place = (630, 143);
type = Stem;
},
{
horizontal = 1;
place = (840, 177);
place = (840, 177);
type = Stem;
},
{
place = (61, 151);
place = (61, 151);
type = Stem;
},
{
place = (710, 152);
place = (710, 152);
type = Stem;
}
);
layerId = m01;
shapes = (
{
closed = 1;
nodes = (
(693,-52,o),
(862,111,o),
(862,360,cs),
(862,610,o),
(693,773,o),
(461,773,cs),
(230,773,o),
(61,610,o),
(61,360,cs),
(61,111,o),
(230,-52,o),
(461,-52,cs)
);
},
{
closed = 1;
nodes = (
(376,840,ls),
(386,840,o),
(393,844,o),
(399,851,cs),
(459,926,l),
(519,851,ls),
(524,844,o),
(532,840,o),
(541,840,cs),
(639,840,ls),
(648,840,o),
(650,844,o),
(644,851,cs),
(527,1006,ls),
(521,1014,o),
(514,1017,o),
(504,1017,cs),
(413,1017,ls),
(404,1017,o),
(397,1014,o),
(391,1006,cs),
(273,851,ls),
(268,844,o),
(270,840,o),
(279,840,cs)
);
},
{
closed = 1;
nodes = (
(212,517,o),
(309,630,o),
(461,630,cs),
(614,630,o),
(710,517,o),
(710,360,cs),
(710,203,o),
(614,91,o),
(461,91,cs),
(309,91,o),
(212,203,o),
(212,360,cs)
);
}
);
vertWidth = 1000;
width = 923;
}
);
note = cid00183;
unicode = 212;
}
{
glyphname = Otilde;
layers = (
{
hints = (
{
horizontal = 1;
place = (-52, 143);
place = (-52, 143);
type = Stem;
},
{
horizontal = 1;
place = (630, 143);
place = (630, 143);
type = Stem;
},
{
horizontal = 1;
place = (866, 161);
place = (866, 161);
type = Stem;
},
{
place = (61, 151);
place = (61, 151);
type = Stem;
},
{
place = (262, 107);
place = (262, 107);
type = Stem;
},
{
place = (710, 152);
place = (710, 152);
type = Stem;
},
{
horizontal = 1;
place = (929, 98);
place = (929, 98);
type = Stem;
},
{
horizontal = 1;
place = (862, 161);
place = (862, 161);
type = Stem;
},
{
place = (534, 107);
place = (534, 107);
type = Stem;
},
{
horizontal = 1;
place = (862, 99);
place = (862, 99);
type = Stem;
}
);
layerId = m01;
shapes = (
{
closed = 1;
nodes = (
(693,-52,o),
(862,111,o),
(862,360,cs),
(862,610,o),
(693,773,o),
(461,773,cs),
(230,773,o),
(61,610,o),
(61,360,cs),
(61,111,o),
(230,-52,o),
(461,-52,cs)
);
},
{
closed = 1;
nodes = (
(262,871,o),
(267,866,o),
(277,866,cs),
(355,866,ls),
(365,866,o),
(369,871,o),
(369,881,cs),
(370,910,o),
(382,929,o),
(395,929,cs),
(426,929,o),
(458,862,o),
(529,862,cs),
(597,862,o),
(642,923,o),
(641,1008,cs),
(641,1018,o),
(636,1023,o),
(626,1023,cs),
(548,1023,ls),
(538,1023,o),
(534,1019,o),
(534,1008,cs),
(533,979,o),
(521,961,o),
(508,961,cs),
(478,961,o),
(445,1027,o),
(374,1027,cs),
(306,1027,o),
(261,963,o),
(262,881,cs)
);
},
{
closed = 1;
nodes = (
(212,517,o),
(309,630,o),
(461,630,cs),
(614,630,o),
(710,517,o),
(710,360,cs),
(710,203,o),
(614,91,o),
(461,91,cs),
(309,91,o),
(212,203,o),
(212,360,cs)
);
}
);
vertWidth = 1000;
width = 923;
}
);
note = cid00184;
unicode = 213;
}
{
glyphname = Odieresis;
layers = (
{
hints = (
{
horizontal = 1;
place = (-52, 143);
place = (-52, 143);
type = Stem;
},
{
horizontal = 1;
place = (630, 143);
place = (630, 143);
type = Stem;
},
{
horizontal = 1;
place = (849, 144);
place = (849, 144);
type = Stem;
},
{
place = (61, 151);
place = (61, 151);
type = Stem;
},
{
place = (287, 147);
place = (287, 147);
type = Stem;
},
{
place = (482, 147);
place = (482, 147);
type = Stem;
},
{
place = (710, 152);
place = (710, 152);
type = Stem;
}
);
layerId = m01;
shapes = (
{
closed = 1;
nodes = (
(693,-52,o),
(862,111,o),
(862,360,cs),
(862,610,o),
(693,773,o),
(461,773,cs),
(230,773,o),
(61,610,o),
(61,360,cs),
(61,111,o),
(230,-52,o),
(461,-52,cs)
);
},
{
closed = 1;
nodes = (
(319,993,o),
(287,963,o),
(287,920,cs),
(287,878,o),
(319,849,o),
(361,849,cs),
(402,849,o),
(434,878,o),
(434,920,cs),
(434,963,o),
(403,993,o),
(361,993,cs)
);
},
{
closed = 1;
nodes = (
(514,993,o),
(482,963,o),
(482,920,cs),
(482,878,o),
(514,849,o),
(556,849,cs),
(597,849,o),
(629,878,o),
(629,920,cs),
(629,963,o),
(597,993,o),
(556,993,cs)
);
},
{
closed = 1;
nodes = (
(212,517,o),
(309,630,o),
(461,630,cs),
(614,630,o),
(710,517,o),
(710,360,cs),
(710,203,o),
(614,91,o),
(461,91,cs),
(309,91,o),
(212,203,o),
(212,360,cs)
);
}
);
vertWidth = 1000;
width = 923;
}
);
note = cid00185;
unicode = 214;
}
{
glyphname = multiply.full;
layers = (
{
hints = (
{
horizontal = 1;
place = (90, 580);
place = (90, 580);
type = Stem;
},
{
place = (210, 581);
place = (210, 581);
type = Stem;
}
);
layerId = m01;
shapes = (
{
closed = 1;
nodes = (
(500,286,l),
(692,94,ls),
(695,91,o),
(699,90,o),
(702,90,cs),
(706,90,o),
(709,91,o),
(712,94,cs),
(786,168,ls),
(789,171,o),
(791,174,o),
(791,178,cs),
(791,181,o),
(789,184,o),
(786,187,cs),
(593,380,l),
(786,572,ls),
(789,575,o),
(791,579,o),
(791,582,cs),
(791,586,o),
(789,589,o),
(786,592,cs),
(712,665,ls),
(709,668,o),
(706,670,o),
(702,670,cs),
(699,670,o),
(695,668,o),
(692,665,cs),
(500,473,l),
(308,665,ls),
(305,668,o),
(302,670,o),
(298,670,cs),
(295,670,o),
(291,668,o),
(288,665,cs),
(214,592,ls),
(211,589,o),
(210,586,o),
(210,582,cs),
(210,579,o),
(211,575,o),
(214,572,cs),
(407,380,l),
(214,187,ls),
(211,184,o),
(210,181,o),
(210,178,cs),
(210,174,o),
(211,171,o),
(214,168,cs),
(288,94,ls),
(291,91,o),
(295,90,o),
(298,90,cs),
(302,90,o),
(305,91,o),
(308,94,cs)
);
}
);
vertWidth = 1000;
width = 1000;
}
);
note = cid00695;
unicode = 215;
}
{
glyphname = Oslash;
layers = (
{
hints = (
{
horizontal = 1;
place = (-52, 143);
place = (-52, 143);
type = Stem;
},
{
horizontal = 1;
place = (630, 143);
place = (630, 143);
type = Stem;
},
{
place = (61, 151);
place = (61, 151);
type = Stem;
},
{
place = (710, 152);
place = (710, 152);
type = Stem;
}
);
layerId = m01;
shapes = (
{
closed = 1;
nodes = (
(212,517,o),
(309,630,o),
(461,630,cs),
(510,630,o),
(554,618,o),
(590,597,c),
(255,200,l),
(227,243,o),
(212,298,o),
(212,360,cs)
);
},
{
closed = 1;
nodes = (
(408,91,o),
(361,105,o),
(324,129,c),
(662,530,l),
(693,485,o),
(710,426,o),
(710,360,cs),
(710,203,o),
(614,91,o),
(461,91,cs)
);
},
{
closed = 1;
nodes = (
(693,-52,o),
(862,111,o),
(862,360,cs),
(862,478,o),
(824,576,o),
(761,647,c),
(852,756,ls),
(858,763,o),
(858,770,o),
(850,776,cs),
(796,820,ls),
(789,826,o),
(783,826,o),
(777,819,cs),
(686,711,l),
(623,751,o),
(546,773,o),
(461,773,cs),
(230,773,o),
(61,610,o),
(61,360,cs),
(61,247,o),
(96,152,o),
(155,82,c),
(61,-30,ls),
(55,-37,o),
(55,-44,o),
(63,-50,cs),
(117,-94,ls),
(124,-100,o),
(130,-100,o),
(136,-93,cs),
(228,16,l),
(292,-28,o),
(372,-52,o),
(461,-52,cs)
);
}
);
vertWidth = 1000;
width = 923;
}
);
note = cid00142;
unicode = 216;
}
{
glyphname = Ugrave;
layers = (
{
hints = (
{
horizontal = 1;
place = (-52, 143);
place = (-52, 143);
type = Stem;
},
{
horizontal = 1;
place = (824, 174);
place = (824, 174);
type = Stem;
},
{
place = (81, 146);
place = (81, 146);
type = Stem;
},
{
place = (579, 147);
place = (579, 147);
type = Stem;
}
);
layerId = m01;
shapes = (
{
closed = 1;
nodes = (
(559,-52,o),
(726,34,o),
(726,287,cs),
(726,744,ls),
(726,753,o),
(720,758,o),
(712,758,cs),
(593,758,ls),
(585,758,o),
(579,753,o),
(579,744,cs),
(579,313,ls),
(579,157,o),
(501,91,o),
(403,91,cs),
(303,91,o),
(227,157,o),
(227,313,cs),
(227,744,ls),
(227,753,o),
(222,758,o),
(213,758,cs),
(95,758,ls),
(87,758,o),
(81,753,o),
(81,744,cs),
(81,287,ls),
(81,34,o),
(247,-52,o),
(403,-52,cs)
);
},
{
closed = 1;
nodes = (
(273,998,ls),
(263,998,o),
(261,994,o),
(267,986,cs),
(371,836,ls),
(376,828,o),
(383,824,o),
(393,824,cs),
(497,824,ls),
(506,824,o),
(509,828,o),
(504,836,cs),
(423,985,ls),
(418,994,o),
(411,998,o),
(402,998,cs)
);
}
);
vertWidth = 1000;
width = 807;
}
);
note = cid00187;
unicode = 217;
}
{
glyphname = Uacute;
layers = (
{
hints = (
{
horizontal = 1;
place = (-52, 143);
place = (-52, 143);
type = Stem;
},
{
horizontal = 1;
place = (831, 173);
place = (831, 173);
type = Stem;
},
{
place = (81, 146);
place = (81, 146);
type = Stem;
},
{
place = (579, 147);
place = (579, 147);
type = Stem;
}
);
layerId = m01;
shapes = (
{
closed = 1;
nodes = (
(559,-52,o),
(726,34,o),
(726,287,cs),
(726,744,ls),
(726,753,o),
(720,758,o),
(712,758,cs),
(593,758,ls),
(585,758,o),
(579,753,o),
(579,744,cs),
(579,313,ls),
(579,157,o),
(501,91,o),
(403,91,cs),
(303,91,o),
(227,157,o),
(227,313,cs),
(227,744,ls),
(227,753,o),
(222,758,o),
(213,758,cs),
(95,758,ls),
(87,758,o),
(81,753,o),
(81,744,cs),
(81,287,ls),
(81,34,o),
(247,-52,o),
(403,-52,cs)
);
},
{
closed = 1;
nodes = (
(415,1004,ls),
(407,1004,o),
(402,1001,o),
(398,994,cs),
(316,846,ls),
(312,838,o),
(314,831,o),
(325,831,cs),
(430,831,ls),
(437,831,o),
(443,833,o),
(447,840,cs),
(550,990,l),
(556,997,o),
(554,1004,o),
(543,1004,cs)
);
}
);
vertWidth = 1000;
width = 807;
}
);
note = cid00188;
unicode = 218;
}
{
glyphname = Ucircumflex;
layers = (
{
hints = (
{
horizontal = 1;
place = (-52, 143);
place = (-52, 143);
type = Stem;
},
{
horizontal = 1;
place = (831, 177);
place = (831, 177);
type = Stem;
},
{
place = (81, 146);
place = (81, 146);
type = Stem;
},
{
place = (579, 147);
place = (579, 147);
type = Stem;
}
);
layerId = m01;
shapes = (
{
closed = 1;
nodes = (
(559,-52,o),
(726,34,o),
(726,287,cs),
(726,744,ls),
(726,753,o),
(720,758,o),
(712,758,cs),
(593,758,ls),
(585,758,o),
(579,753,o),
(579,744,cs),
(579,313,ls),
(579,157,o),
(501,91,o),
(403,91,cs),
(303,91,o),
(227,157,o),
(227,313,cs),
(227,744,ls),
(227,753,o),
(222,758,o),
(213,758,cs),
(95,758,ls),
(87,758,o),
(81,753,o),
(81,744,cs),
(81,287,ls),
(81,34,o),
(247,-52,o),
(403,-52,cs)
);
},
{
closed = 1;
nodes = (
(326,831,ls),
(335,831,o),
(343,834,o),
(348,842,c),
(408,917,l),
(468,842,ls),
(474,834,o),
(481,831,o),
(491,831,cs),
(588,831,ls),
(597,831,o),
(599,834,o),
(594,842,c),
(476,997,ls),
(470,1004,o),
(463,1008,o),
(454,1008,cs),
(363,1008,ls),
(353,1008,o),
(346,1004,o),
(340,997,cs),
(223,842,ls),
(217,834,o),
(219,831,o),
(228,831,cs)
);
}
);
vertWidth = 1000;
width = 807;
}
);
note = cid00189;
unicode = 219;
}
{
glyphname = Udieresis;
layers = (
{
hints = (
{
horizontal = 1;
place = (-52, 143);
place = (-52, 143);
type = Stem;
},
{
horizontal = 1;
place = (839, 144);
place = (839, 144);
type = Stem;
},
{
place = (81, 146);
place = (81, 146);
type = Stem;
},
{
place = (579, 147);
place = (579, 147);
type = Stem;
},
{
place = (236, 147);
place = (236, 147);
type = Stem;
},
{
place = (432, 147);
place = (432, 147);
type = Stem;
}
);
layerId = m01;
shapes = (
{
closed = 1;
nodes = (
(559,-52,o),
(726,34,o),
(726,287,cs),
(726,744,ls),
(726,753,o),
(720,758,o),
(712,758,cs),
(593,758,ls),
(585,758,o),
(579,753,o),
(579,744,cs),
(579,313,ls),
(579,157,o),
(501,91,o),
(403,91,cs),
(303,91,o),
(227,157,o),
(227,313,cs),
(227,744,ls),
(227,753,o),
(222,758,o),
(213,758,cs),
(95,758,ls),
(87,758,o),
(81,753,o),
(81,744,cs),
(81,287,ls),
(81,34,o),
(247,-52,o),
(403,-52,cs)
);
},
{
closed = 1;
nodes = (
(269,983,o),
(236,953,o),
(236,911,cs),
(236,869,o),
(269,839,o),
(310,839,cs),
(352,839,o),
(383,868,o),
(383,911,cs),
(383,953,o),
(352,983,o),
(310,983,cs)
);
},
{
closed = 1;
nodes = (
(463,983,o),
(432,953,o),
(432,911,cs),
(432,869,o),
(463,839,o),
(505,839,cs),
(546,839,o),
(579,868,o),
(579,911,cs),
(579,953,o),
(547,983,o),
(505,983,cs)
);
}
);
vertWidth = 1000;
width = 807;
}
);
note = cid00190;
unicode = 220;
}
{
glyphname = Yacute;
layers = (
{
hints = (
{
horizontal = 1;
place = (832, 173);
place = (832, 173);
type = Stem;
},
{
place = (312, 146);
place = (312, 146);
type = Stem;
}
);
layerId = m01;
shapes = (
{
closed = 1;
nodes = (
(444,-37,ls),
(453,-37,o),
(458,-32,o),
(458,-23,cs),
(458,266,l),
(746,741,ls),
(752,750,o),
(747,758,o),
(736,758,cs),
(602,758,ls),
(595,758,o),
(589,755,o),
(586,748,c),
(387,397,l),
(186,748,l),
(183,755,o),
(178,758,o),
(170,758,cs),
(34,758,ls),
(26,758,o),
(21,754,o),
(21,748,cs),
(21,746,o),
(22,744,o),
(24,741,cs),
(312,265,l),
(312,-23,ls),
(312,-32,o),
(317,-37,o),
(326,-37,cs)
);
},
{
closed = 1;
nodes = (
(402,1005,ls),
(394,1005,o),
(389,1002,o),
(385,995,cs),
(303,847,ls),
(299,839,o),
(301,832,o),
(312,832,cs),
(417,832,ls),
(424,832,o),
(430,834,o),
(434,841,cs),
(537,991,l),
(543,998,o),
(541,1005,o),
(530,1005,cs)
);
}
);
vertWidth = 1000;
width = 770;
}
);
note = cid00191;
unicode = 221;
}
{
glyphname = Thorn;
layers = (
{
hints = (
{
horizontal = 1;
place = (98, 126);
place = (98, 126);
type = Stem;
},
{
horizontal = 1;
place = (531, 126);
place = (531, 126);
type = Stem;
},
{
place = (88, 147);
place = (88, 147);
type = Stem;
},
{
place = (522, 152);
place = (522, 152);
type = Stem;
},
{
place = (88, 146);
place = (88, 146);
type = Stem;
}
);
layerId = m01;
shapes = (
{
closed = 1;
nodes = (
(234,657,l),
(234,744,ls),
(234,754,o),
(230,758,o),
(220,758,cs),
(102,758,ls),
(93,758,o),
(88,754,o),
(88,744,cs),
(88,-22,ls),
(88,-32,o),
(93,-36,o),
(102,-36,cs),
(221,-36,ls),
(230,-36,o),
(235,-32,o),
(235,-22,cs),
(235,98,l),
(355,98,ls),
(564,98,o),
(674,197,o),
(674,378,cs),
(674,558,o),
(563,657,o),
(355,657,cs)
);
},
{
closed = 1;
nodes = (
(235,224,l),
(235,531,l),
(350,531,ls),
(458,531,o),
(522,483,o),
(522,379,cs),
(522,271,o),
(458,224,o),
(350,224,cs)
);
}
);
vertWidth = 1000;
width = 723;
}
);
note = cid00192;
unicode = 222;
}
{
glyphname = germandbls;
layers = (
{
hints = (
{
horizontal = 1;
place = (-45, 118);
place = (-45, 118);
type = Stem;
},
{
horizontal = 1;
place = (325, 123);
place = (325, 123);
type = Stem;
},
{
horizontal = 1;
place = (674, 122);
place = (674, 122);
type = Stem;
},
{
place = (72, 145);
place = (72, 145);
type = Stem;
},
{
place = (485, 144);
place = (485, 144);
type = Stem;
},
{
horizontal = 1;
place = (-32, 105);
place = (-32, 105);
type = Stem;
},
{
place = (446, 133);
place = (446, 133);
type = Stem;
}
);
layerId = m01;
shapes = (
{
closed = 1;
nodes = (
(72,-16,ls),
(72,-27,o),
(78,-32,o),
(88,-32,cs),
(201,-32,ls),
(211,-32,o),
(217,-27,o),
(217,-16,cs),
(217,535,ls),
(217,615,o),
(256,674,o),
(333,674,cs),
(403,674,o),
(448,628,o),
(446,564,cs),
(445,492,o),
(393,449,o),
(317,448,cs),
(306,448,o),
(301,443,o),
(301,433,cs),
(301,339,ls),
(301,329,o),
(306,324,o),
(316,325,cs),
(325,325,o),
(336,326,o),
(349,325,cs),
(427,322,o),
(485,276,o),
(485,203,cs),
(485,120,o),
(417,73,o),
(315,73,cs),
(305,73,o),
(294,73,o),
(283,75,cs),
(273,76,o),
(267,72,o),
(267,61,cs),
(267,-28,ls),
(267,-39,o),
(273,-44,o),
(283,-45,cs),
(502,-52,o),
(630,40,o),
(629,190,cs),
(628,298,o),
(561,373,o),
(468,397,c),
(545,427,o),
(579,508,o),
(579,577,cs),
(579,705,o),
(474,796,o),
(335,796,cs),
(164,796,o),
(72,688,o),
(72,540,cs)
);
}
);
vertWidth = 1000;
width = 684;
}
);
note = cid00150;
unicode = 223;
}
{
glyphname = agrave;
layers = (
{
hints = (
{
horizontal = 1;
place = (-48, 128);
place = (-48, 128);
type = Stem;
},
{
horizontal = 1;
place = (407, 128);
place = (407, 128);
type = Stem;
},
{
horizontal = 1;
place = (590, 174);
place = (590, 174);
type = Stem;
},
{
place = (41, 145);
place = (41, 145);
type = Stem;
},
{
place = (490, 131);
place = (490, 131);
type = Stem;
},
{
horizontal = 1;
place = (-37, 117);
place = (-37, 117);
type = Stem;
},
{
horizontal = 1;
place = (524, -20);
target = down;
type = TopGhost;
}
);
layerId = m01;
shapes = (
{
closed = 1;
nodes = (
(381,-48,o),
(446,-15,o),
(486,40,c),
(490,-23,ls),
(490,-33,o),
(496,-37,o),
(505,-37,cs),
(606,-37,ls),
(615,-37,o),
(621,-32,o),
(621,-23,cs),
(621,510,ls),
(621,519,o),
(615,524,o),
(606,524,cs),
(505,524,ls),
(496,524,o),
(490,520,o),
(490,510,cs),
(486,447,l),
(446,502,o),
(381,535,o),
(303,535,cs),
(143,535,o),
(41,416,o),
(41,243,cs),
(41,71,o),
(143,-48,o),
(303,-48,cs)
);
},
{
closed = 1;
nodes = (
(197,764,ls),
(187,764,o),
(185,760,o),
(191,752,cs),
(295,602,ls),
(300,594,o),
(307,590,o),
(317,590,cs),
(421,590,ls),
(430,590,o),
(433,594,o),
(428,602,cs),
(347,751,ls),
(342,760,o),
(335,764,o),
(326,764,cs)
);
},
{
closed = 1;
nodes = (
(186,340,o),
(248,407,o),
(338,407,cs),
(428,407,o),
(490,340,o),
(490,243,cs),
(490,147,o),
(428,80,o),
(338,80,cs),
(248,80,o),
(186,147,o),
(186,243,cs)
);
}
);
vertWidth = 1000;
width = 694;
}
);
note = cid00193;
unicode = 224;
}
{
glyphname = aacute;
layers = (
{
hints = (
{
horizontal = 1;
place = (-48, 128);
place = (-48, 128);
type = Stem;
},
{
horizontal = 1;
place = (407, 128);
place = (407, 128);
type = Stem;
},
{
horizontal = 1;
place = (597, 173);
place = (597, 173);
type = Stem;
},
{
place = (41, 145);
place = (41, 145);
type = Stem;
},
{
place = (490, 131);
place = (490, 131);
type = Stem;
},
{
horizontal = 1;
place = (-37, 117);
place = (-37, 117);
type = Stem;
},
{
horizontal = 1;
place = (524, -20);
target = down;
type = TopGhost;
}
);
layerId = m01;
shapes = (
{
closed = 1;
nodes = (
(381,-48,o),
(446,-15,o),
(486,40,c),
(490,-23,ls),
(490,-33,o),
(496,-37,o),
(505,-37,cs),
(606,-37,ls),
(615,-37,o),
(621,-32,o),
(621,-23,cs),
(621,510,ls),
(621,519,o),
(615,524,o),
(606,524,cs),
(505,524,ls),
(496,524,o),
(490,520,o),
(490,510,cs),
(486,447,l),
(446,502,o),
(381,535,o),
(303,535,cs),
(143,535,o),
(41,416,o),
(41,243,cs),
(41,71,o),
(143,-48,o),
(303,-48,cs)
);
},
{
closed = 1;
nodes = (
(339,770,ls),
(331,770,o),
(326,767,o),
(322,760,cs),
(240,612,ls),
(236,604,o),
(238,597,o),
(249,597,cs),
(354,597,ls),
(361,597,o),
(367,599,o),
(371,606,cs),
(474,756,l),
(480,763,o),
(478,770,o),
(467,770,cs)
);
},
{
closed = 1;
nodes = (
(186,340,o),
(248,407,o),
(338,407,cs),
(428,407,o),
(490,340,o),
(490,243,cs),
(490,147,o),
(428,80,o),
(338,80,cs),
(248,80,o),
(186,147,o),
(186,243,cs)
);
}
);
vertWidth = 1000;
width = 694;
}
);
note = cid00194;
unicode = 225;
}
{
glyphname = acircumflex;
layers = (
{
hints = (
{
horizontal = 1;
place = (-48, 128);
place = (-48, 128);
type = Stem;
},
{
horizontal = 1;
place = (407, 128);
place = (407, 128);
type = Stem;
},
{
horizontal = 1;
place = (597, 177);
place = (597, 177);
type = Stem;
},
{
place = (41, 145);
place = (41, 145);
type = Stem;
},
{
place = (490, 131);
place = (490, 131);
type = Stem;
},
{
horizontal = 1;
place = (-37, 117);
place = (-37, 117);
type = Stem;
},
{
horizontal = 1;
place = (524, -20);
target = down;
type = TopGhost;
},
{
horizontal = 1;
place = (683, 91);
place = (683, 91);
type = Stem;
}
);
layerId = m01;
shapes = (
{
closed = 1;
nodes = (
(381,-48,o),
(446,-15,o),
(486,40,c),
(490,-23,ls),
(490,-33,o),
(496,-37,o),
(505,-37,cs),
(606,-37,ls),
(615,-37,o),
(621,-32,o),
(621,-23,cs),
(621,510,ls),
(621,519,o),
(615,524,o),
(606,524,cs),
(505,524,ls),
(496,524,o),
(490,520,o),
(490,510,cs),
(486,447,l),
(446,502,o),
(381,535,o),
(303,535,cs),
(143,535,o),
(41,416,o),
(41,243,cs),
(41,71,o),
(143,-48,o),
(303,-48,cs)
);
},
{
closed = 1;
nodes = (
(250,597,ls),
(259,597,o),
(267,600,o),
(272,608,c),
(332,683,l),
(392,608,ls),
(398,600,o),
(405,597,o),
(415,597,cs),
(512,597,ls),
(521,597,o),
(523,600,o),
(518,608,c),
(400,763,ls),
(394,770,o),
(387,774,o),
(378,774,cs),
(287,774,ls),
(277,774,o),
(270,770,o),
(264,763,cs),
(147,608,ls),
(141,600,o),
(143,597,o),
(152,597,cs)
);
},
{
closed = 1;
nodes = (
(186,340,o),
(248,407,o),
(338,407,cs),
(428,407,o),
(490,340,o),
(490,243,cs),
(490,147,o),
(428,80,o),
(338,80,cs),
(248,80,o),
(186,147,o),
(186,243,cs)
);
}
);
vertWidth = 1000;
width = 694;
}
);
note = cid00195;
unicode = 226;
}
{
glyphname = atilde;
layers = (
{
hints = (
{
horizontal = 1;
place = (-48, 128);
place = (-48, 128);
type = Stem;
},
{
horizontal = 1;
place = (407, 128);
place = (407, 128);
type = Stem;
},
{
horizontal = 1;
place = (623, 161);
place = (623, 161);
type = Stem;
},
{
place = (41, 145);
place = (41, 145);
type = Stem;
},
{
place = (490, 131);
place = (490, 131);
type = Stem;
},
{
horizontal = 1;
place = (-37, 117);
place = (-37, 117);
type = Stem;
},
{
horizontal = 1;
place = (524, -20);
target = down;
type = TopGhost;
},
{
place = (135, 108);
place = (135, 108);
type = Stem;
},
{
horizontal = 1;
place = (685, 99);
place = (685, 99);
type = Stem;
},
{
horizontal = 1;
place = (618, 161);
place = (618, 161);
type = Stem;
},
{
place = (407, 108);
place = (407, 108);
type = Stem;
},
{
horizontal = 1;
place = (618, 100);
place = (618, 100);
type = Stem;
}
);
layerId = m01;
shapes = (
{
closed = 1;
nodes = (
(381,-48,o),
(446,-15,o),
(486,40,c),
(490,-23,ls),
(490,-33,o),
(496,-37,o),
(505,-37,cs),
(606,-37,ls),
(615,-37,o),
(621,-32,o),
(621,-23,cs),
(621,510,ls),
(621,519,o),
(615,524,o),
(606,524,cs),
(505,524,ls),
(496,524,o),
(490,520,o),
(490,510,cs),
(486,447,l),
(446,502,o),
(381,535,o),
(303,535,cs),
(143,535,o),
(41,416,o),
(41,243,cs),
(41,71,o),
(143,-48,o),
(303,-48,cs)
);
},
{
closed = 1;
nodes = (
(135,628,o),
(140,623,o),
(150,623,cs),
(229,623,ls),
(238,623,o),
(242,627,o),
(243,637,cs),
(243,666,o),
(256,685,o),
(269,685,cs),
(299,685,o),
(332,618,o),
(402,618,cs),
(470,618,o),
(516,680,o),
(515,765,cs),
(515,774,o),
(509,779,o),
(499,779,cs),
(421,779,ls),
(411,779,o),
(407,775,o),
(407,765,cs),
(406,736,o),
(394,718,o),
(381,718,cs),
(351,718,o),
(318,784,o),
(247,784,cs),
(180,784,o),
(134,719,o),
(135,637,cs)
);
},
{
closed = 1;
nodes = (
(186,340,o),
(248,407,o),
(338,407,cs),
(428,407,o),
(490,340,o),
(490,243,cs),
(490,147,o),
(428,80,o),
(338,80,cs),
(248,80,o),
(186,147,o),
(186,243,cs)
);
}
);
vertWidth = 1000;
width = 694;
}
);
note = cid00196;
unicode = 227;
}
{
glyphname = adieresis;
layers = (
{
hints = (
{
horizontal = 1;
place = (-48, 128);
place = (-48, 128);
type = Stem;
},
{
horizontal = 1;
place = (407, 128);
place = (407, 128);
type = Stem;
},
{
horizontal = 1;
place = (605, 144);
place = (605, 144);
type = Stem;
},
{
place = (41, 145);
place = (41, 145);
type = Stem;
},
{
place = (490, 131);
place = (490, 131);
type = Stem;
},
{
horizontal = 1;
place = (-37, 117);
place = (-37, 117);
type = Stem;
},
{
horizontal = 1;
place = (524, -20);
target = down;
type = TopGhost;
},
{
place = (160, 147);
place = (160, 147);
type = Stem;
},
{
place = (356, 147);
place = (356, 147);
type = Stem;
}
);
layerId = m01;
shapes = (
{
closed = 1;
nodes = (
(381,-48,o),
(446,-15,o),
(486,40,c),
(490,-23,ls),
(490,-33,o),
(496,-37,o),
(505,-37,cs),
(606,-37,ls),
(615,-37,o),
(621,-32,o),
(621,-23,cs),
(621,510,ls),
(621,519,o),
(615,524,o),
(606,524,cs),
(505,524,ls),
(496,524,o),
(490,520,o),
(490,510,cs),
(486,447,l),
(446,502,o),
(381,535,o),
(303,535,cs),
(143,535,o),
(41,416,o),
(41,243,cs),
(41,71,o),
(143,-48,o),
(303,-48,cs)
);
},
{
closed = 1;
nodes = (
(193,749,o),
(160,719,o),
(160,677,cs),
(160,635,o),
(193,605,o),
(234,605,cs),
(276,605,o),
(307,634,o),
(307,677,cs),
(307,719,o),
(276,749,o),
(234,749,cs)
);
},
{
closed = 1;
nodes = (
(387,749,o),
(356,719,o),
(356,677,cs),
(356,635,o),
(387,605,o),
(429,605,cs),
(470,605,o),
(503,634,o),
(503,677,cs),
(503,719,o),
(471,749,o),
(429,749,cs)
);
},
{
closed = 1;
nodes = (
(186,340,o),
(248,407,o),
(338,407,cs),
(428,407,o),
(490,340,o),
(490,243,cs),
(490,147,o),
(428,80,o),
(338,80,cs),
(248,80,o),
(186,147,o),
(186,243,cs)
);
}
);
vertWidth = 1000;
width = 694;
}
);
note = cid00197;
unicode = 228;
}
{
glyphname = aring;
layers = (
{
hints = (
{
horizontal = 1;
place = (-48, 128);
place = (-48, 128);
type = Stem;
},
{
horizontal = 1;
place = (407, 128);
place = (407, 128);
type = Stem;
},
{
horizontal = 1;
place = (569, 76);
place = (569, 76);
type = Stem;
},
{
horizontal = 1;
place = (735, 76);
place = (735, 76);
type = Stem;
},
{
place = (41, 145);
place = (41, 145);
type = Stem;
},
{
place = (376, 80);
place = (376, 80);
type = Stem;
},
{
place = (490, 131);
place = (490, 131);
type = Stem;
},
{
horizontal = 1;
place = (-37, 117);
place = (-37, 117);
type = Stem;
},
{
horizontal = 1;
place = (524, -20);
target = down;
type = TopGhost;
},
{
place = (207, 80);
place = (207, 80);
type = Stem;
}
);
layerId = m01;
shapes = (
{
closed = 1;
nodes = (
(381,-48,o),
(446,-15,o),
(486,40,c),
(490,-23,ls),
(490,-33,o),
(496,-37,o),
(505,-37,cs),
(606,-37,ls),
(615,-37,o),
(621,-32,o),
(621,-23,cs),
(621,510,ls),
(621,519,o),
(615,524,o),
(606,524,cs),
(505,524,ls),
(496,524,o),
(490,520,o),
(490,510,cs),
(486,447,l),
(446,502,o),
(381,535,o),
(303,535,cs),
(143,535,o),
(41,416,o),
(41,243,cs),
(41,71,o),
(143,-48,o),
(303,-48,cs)
);
},
{
closed = 1;
nodes = (
(207,623,o),
(263,569,o),
(332,569,cs),
(400,569,o),
(456,623,o),
(456,690,cs),
(456,756,o),
(400,811,o),
(332,811,cs),
(263,811,o),
(207,756,o),
(207,690,cs)
);
},
{
closed = 1;
nodes = (
(186,340,o),
(248,407,o),
(338,407,cs),
(428,407,o),
(490,340,o),
(490,243,cs),
(490,147,o),
(428,80,o),
(338,80,cs),
(248,80,o),
(186,147,o),
(186,243,cs)
);
},
{
closed = 1;
nodes = (
(287,715,o),
(308,735,o),
(332,735,cs),
(356,735,o),
(376,715,o),
(376,690,cs),
(376,665,o),
(356,645,o),
(332,645,cs),
(308,645,o),
(287,665,o),
(287,690,cs)
);
}
);
vertWidth = 1000;
width = 694;
}
);
note = cid00198;
unicode = 229;
}
{
glyphname = ae;
layers = (
{
hints = (
{
horizontal = 1;
place = (-48, 125);
place = (-48, 125);
type = Stem;
},
{
horizontal = 1;
place = (200, 105);
place = (200, 105);
type = Stem;
},
{
horizontal = 1;
place = (410, 125);
place = (410, 125);
type = Stem;
},
{
place = (41, 144);
place = (41, 144);
type = Stem;
},
{
horizontal = 1;
place = (-58, 114);
place = (-58, 114);
type = Stem;
},
{
horizontal = 1;
place = (208, 100);
place = (208, 100);
type = Stem;
},
{
horizontal = 1;
place = (414, 122);
place = (414, 122);
type = Stem;
}
);
layerId = m01;
shapes = (
{
closed = 1;
nodes = (
(845,-48,o),
(938,-3,o),
(988,95,cs),
(992,104,o),
(989,110,o),
(980,114,cs),
(884,147,ls),
(876,149,o),
(870,148,o),
(865,141,cs),
(839,98,o),
(799,77,o),
(742,77,cs),
(667,77,o),
(620,123,o),
(607,200,c),
(991,200,ls),
(1000,200,o),
(1005,205,o),
(1006,214,cs),
(1012,407,o),
(913,535,o),
(741,535,cs),
(643,535,o),
(566,498,o),
(517,435,c),
(476,504,o),
(393,536,o),
(308,536,cs),
(196,536,o),
(107,493,o),
(53,398,cs),
(48,390,o),
(50,385,o),
(59,380,cs),
(142,335,ls),
(150,331,o),
(157,333,o),
(162,341,cs),
(195,391,o),
(238,414,o),
(303,414,cs),
(381,414,o),
(438,367,o),
(438,305,cs),
(438,290,l),
(393,302,o),
(338,308,o),
(286,308,cs),
(142,308,o),
(41,238,o),
(41,127,cs),
(41,18,o),
(139,-58,o),
(278,-58,cs),
(368,-58,o),
(455,-25,o),
(510,61,c),
(558,-7,o),
(638,-48,o),
(741,-48,cs)
);
},
{
closed = 1;
nodes = (
(220,56,o),
(185,87,o),
(185,131,cs),
(185,181,o),
(243,208,o),
(308,208,cs),
(356,208,o),
(406,196,o),
(443,177,c),
(422,95,o),
(349,56,o),
(281,56,cs)
);
},
{
closed = 1;
nodes = (
(609,305,l),
(626,372,o),
(674,410,o),
(740,410,cs),
(800,410,o),
(843,371,o),
(856,305,c)
);
}
);
vertWidth = 1000;
width = 1037;
}
);
note = cid00145;
unicode = 230;
}
{
glyphname = ccedilla;
layers = (
{
hints = (
{
horizontal = 1;
place = (-302, 86);
place = (-302, 86);
type = Stem;
},
{
horizontal = 1;
place = (407, 128);
place = (407, 128);
type = Stem;
},
{
place = (41, 145);
place = (41, 145);
type = Stem;
},
{
place = (372, 119);
place = (372, 119);
type = Stem;
}
);
layerId = m01;
shapes = (
{
closed = 1;
nodes = (
(596,130,o),
(592,136,o),
(584,138,cs),
(481,163,l),
(473,166,o),
(467,162,o),
(462,155,c),
(439,105,o),
(395,80,o),
(337,80,cs),
(235,80,o),
(186,155,o),
(186,243,cs),
(186,332,o),
(235,407,o),
(337,407,cs),
(395,407,o),
(436,383,o),
(461,336,cs),
(465,330,o),
(470,326,o),
(475,326,c),
(573,354,ls),
(580,356,o),
(584,361,o),
(584,367,cs),
(584,368,o),
(584,370,o),
(583,372,cs),
(542,483,o),
(454,535,o),
(328,535,cs),
(153,535,o),
(41,416,o),
(41,243,cs),
(41,87,o),
(132,-25,o),
(281,-45,c),
(249,-150,ls),
(246,-159,o),
(249,-163,o),
(259,-163,cs),
(282,-163,o),
(308,-164,o),
(329,-167,cs),
(356,-171,o),
(372,-179,o),
(372,-191,cs),
(372,-207,o),
(353,-216,o),
(309,-216,cs),
(283,-216,o),
(254,-212,o),
(226,-207,cs),
(216,-205,o),
(212,-209,o),
(213,-218,cs),
(217,-272,ls),
(218,-281,o),
(223,-287,o),
(232,-289,cs),
(262,-297,o),
(292,-302,o),
(323,-302,cs),
(422,-302,o),
(491,-254,o),
(491,-189,cs),
(491,-128,o),
(430,-95,o),
(370,-89,c),
(380,-45,l),
(479,-32,o),
(554,22,o),
(592,121,cs)
);
}
);
vertWidth = 1000;
width = 626;
}
);
note = cid00199;
unicode = 231;
}
{
glyphname = egrave;
layers = (
{
hints = (
{
horizontal = 1;
place = (-48, 125);
place = (-48, 125);
type = Stem;
},
{
horizontal = 1;
place = (200, 105);
place = (200, 105);
type = Stem;
},
{
horizontal = 1;
place = (410, 125);
place = (410, 125);
type = Stem;
},
{
horizontal = 1;
place = (590, 174);
place = (590, 174);
type = Stem;
},
{
place = (41, 549);
place = (41, 549);
type = Stem;
}
);
layerId = m01;
shapes = (
{
closed = 1;
nodes = (
(429,-48,o),
(522,-3,o),
(572,95,cs),
(576,104,o),
(573,110,o),
(564,114,cs),
(468,147,ls),
(460,149,o),
(454,148,o),
(449,141,cs),
(423,98,o),
(383,77,o),
(326,77,cs),
(251,77,o),
(204,123,o),
(191,200,c),
(575,200,ls),
(584,200,o),
(589,205,o),
(590,214,cs),
(596,407,o),
(497,535,o),
(325,535,cs),
(148,535,o),
(41,414,o),
(41,243,cs),
(41,73,o),
(148,-48,o),
(325,-48,cs)
);
},
{
closed = 1;
nodes = (
(192,764,ls),
(182,764,o),
(180,760,o),
(186,752,cs),
(290,602,ls),
(295,594,o),
(302,590,o),
(312,590,cs),
(416,590,ls),
(425,590,o),
(428,594,o),
(423,602,cs),
(342,751,ls),
(337,760,o),
(330,764,o),
(321,764,cs)
);
},
{
closed = 1;
nodes = (
(193,305,l),
(210,372,o),
(258,410,o),
(324,410,cs),
(384,410,o),
(427,371,o),
(440,305,c)
);
}
);
vertWidth = 1000;
width = 621;
}
);
note = cid00200;
unicode = 232;
}
{
glyphname = eacute;
layers = (
{
hints = (
{
horizontal = 1;
place = (-48, 125);
place = (-48, 125);
type = Stem;
},
{
horizontal = 1;
place = (200, 105);
place = (200, 105);
type = Stem;
},
{
horizontal = 1;
place = (410, 125);
place = (410, 125);
type = Stem;
},
{
horizontal = 1;
place = (597, 173);
place = (597, 173);
type = Stem;
},
{
place = (41, 549);
place = (41, 549);
type = Stem;
}
);
layerId = m01;
shapes = (
{
closed = 1;
nodes = (
(429,-48,o),
(522,-3,o),
(572,95,cs),
(576,104,o),
(573,110,o),
(564,114,cs),
(468,147,ls),
(460,149,o),
(454,148,o),
(449,141,cs),
(423,98,o),
(383,77,o),
(326,77,cs),
(251,77,o),
(204,123,o),
(191,200,c),
(575,200,ls),
(584,200,o),
(589,205,o),
(590,214,cs),
(596,407,o),
(497,535,o),
(325,535,cs),
(148,535,o),
(41,414,o),
(41,243,cs),
(41,73,o),
(148,-48,o),
(325,-48,cs)
);
},
{
closed = 1;
nodes = (
(334,770,ls),
(326,770,o),
(321,767,o),
(317,760,cs),
(235,612,ls),
(231,604,o),
(233,597,o),
(244,597,cs),
(349,597,ls),
(356,597,o),
(362,599,o),
(366,606,cs),
(469,756,l),
(475,763,o),
(473,770,o),
(462,770,cs)
);
},
{
closed = 1;
nodes = (
(193,305,l),
(210,372,o),
(258,410,o),
(324,410,cs),
(384,410,o),
(427,371,o),
(440,305,c)
);
}
);
vertWidth = 1000;
width = 621;
}
);
note = cid00201;
unicode = 233;
}
{
glyphname = ecircumflex;
layers = (
{
hints = (
{
horizontal = 1;
place = (-48, 125);
place = (-48, 125);
type = Stem;
},
{
horizontal = 1;
place = (200, 105);
place = (200, 105);
type = Stem;
},
{
horizontal = 1;
place = (410, 125);
place = (410, 125);
type = Stem;
},
{
horizontal = 1;
place = (597, 177);
place = (597, 177);
type = Stem;
},
{
place = (41, 549);
place = (41, 549);
type = Stem;
},
{
horizontal = 1;
place = (683, 91);
place = (683, 91);
type = Stem;
}
);
layerId = m01;
shapes = (
{
closed = 1;
nodes = (
(429,-48,o),
(522,-3,o),
(572,95,cs),
(576,104,o),
(573,110,o),
(564,114,cs),
(468,147,ls),
(460,149,o),
(454,148,o),
(449,141,cs),
(423,98,o),
(383,77,o),
(326,77,cs),
(251,77,o),
(204,123,o),
(191,200,c),
(575,200,ls),
(584,200,o),
(589,205,o),
(590,214,cs),
(596,407,o),
(497,535,o),
(325,535,cs),
(148,535,o),
(41,414,o),
(41,243,cs),
(41,73,o),
(148,-48,o),
(325,-48,cs)
);
},
{
closed = 1;
nodes = (
(245,597,ls),
(254,597,o),
(262,600,o),
(267,608,c),
(327,683,l),
(387,608,ls),
(393,600,o),
(400,597,o),
(410,597,cs),
(507,597,ls),
(516,597,o),
(518,600,o),
(513,608,c),
(395,763,ls),
(389,770,o),
(382,774,o),
(373,774,cs),
(282,774,ls),
(272,774,o),
(265,770,o),
(259,763,cs),
(142,608,ls),
(136,600,o),
(138,597,o),
(147,597,cs)
);
},
{
closed = 1;
nodes = (
(193,305,l),
(210,372,o),
(258,410,o),
(324,410,cs),
(384,410,o),
(427,371,o),
(440,305,c)
);
}
);
vertWidth = 1000;
width = 621;
}
);
note = cid00202;
unicode = 234;
}
{
glyphname = edieresis;
layers = (
{
hints = (
{
horizontal = 1;
place = (-48, 125);
place = (-48, 125);
type = Stem;
},
{
horizontal = 1;
place = (200, 105);
place = (200, 105);
type = Stem;
},
{
horizontal = 1;
place = (410, 125);
place = (410, 125);
type = Stem;
},
{
horizontal = 1;
place = (605, 144);
place = (605, 144);
type = Stem;
},
{
place = (155, 147);
place = (155, 147);
type = Stem;
},
{
place = (351, 147);
place = (351, 147);
type = Stem;
}
);
layerId = m01;
shapes = (
{
closed = 1;
nodes = (
(429,-48,o),
(522,-3,o),
(572,95,cs),
(576,104,o),
(573,110,o),
(564,114,cs),
(468,147,ls),
(460,149,o),
(454,148,o),
(449,141,cs),
(423,98,o),
(383,77,o),
(326,77,cs),
(251,77,o),
(204,123,o),
(191,200,c),
(575,200,ls),
(584,200,o),
(589,205,o),
(590,214,cs),
(596,407,o),
(497,535,o),
(325,535,cs),
(148,535,o),
(41,414,o),
(41,243,cs),
(41,73,o),
(148,-48,o),
(325,-48,cs)
);
},
{
closed = 1;
nodes = (
(188,749,o),
(155,719,o),
(155,677,cs),
(155,635,o),
(188,605,o),
(229,605,cs),
(271,605,o),
(302,634,o),
(302,677,cs),
(302,719,o),
(271,749,o),
(229,749,cs)
);
},
{
closed = 1;
nodes = (
(382,749,o),
(351,719,o),
(351,677,cs),
(351,635,o),
(382,605,o),
(424,605,cs),
(465,605,o),
(498,634,o),
(498,677,cs),
(498,719,o),
(466,749,o),
(424,749,cs)
);
},
{
closed = 1;
nodes = (
(193,305,l),
(210,372,o),
(258,410,o),
(324,410,cs),
(384,410,o),
(427,371,o),
(440,305,c)
);
}
);
vertWidth = 1000;
width = 621;
}
);
note = cid00203;
unicode = 235;
}
{
glyphname = igrave;
layers = (
{
hints = (
{
horizontal = 1;
place = (524, -20);
target = down;
type = TopGhost;
},
{
horizontal = 1;
place = (590, 174);
place = (590, 174);
type = Stem;
},
{
place = (74, 143);
place = (74, 143);
type = Stem;
}
);
layerId = m01;
shapes = (
{
closed = 1;
nodes = (
(74,-22,ls),
(74,-31,o),
(79,-37,o),
(88,-37,cs),
(203,-37,ls),
(212,-37,o),
(217,-31,o),
(217,-22,cs),
(217,510,ls),
(217,518,o),
(212,524,o),
(203,524,cs),
(88,524,ls),
(79,524,o),
(74,518,o),
(74,510,cs)
);
},
{
closed = 1;
nodes = (
(10,764,ls),
(0,764,o),
(-2,760,o),
(4,752,cs),
(108,602,ls),
(113,594,o),
(120,590,o),
(130,590,cs),
(234,590,ls),
(243,590,o),
(246,594,o),
(241,602,cs),
(160,751,ls),
(155,760,o),
(148,764,o),
(139,764,cs)
);
}
);
vertWidth = 1000;
width = 288;
}
);
note = cid00204;
unicode = 236;
}
{
glyphname = iacute;
layers = (
{
hints = (
{
horizontal = 1;
place = (524, -20);
target = down;
type = TopGhost;
},
{
horizontal = 1;
place = (597, 173);
place = (597, 173);
type = Stem;
},
{
place = (74, 143);
place = (74, 143);
type = Stem;
}
);
layerId = m01;
shapes = (
{
closed = 1;
nodes = (
(74,-22,ls),
(74,-31,o),
(79,-37,o),
(88,-37,cs),
(203,-37,ls),
(212,-37,o),
(217,-31,o),
(217,-22,cs),
(217,510,ls),
(217,518,o),
(212,524,o),
(203,524,cs),
(88,524,ls),
(79,524,o),
(74,518,o),
(74,510,cs)
);
},
{
closed = 1;
nodes = (
(152,770,ls),
(144,770,o),
(139,767,o),
(135,760,cs),
(53,612,ls),
(49,604,o),
(51,597,o),
(62,597,cs),
(167,597,ls),
(174,597,o),
(180,599,o),
(184,606,cs),
(287,756,l),
(293,763,o),
(291,770,o),
(280,770,cs)
);
}
);
vertWidth = 1000;
width = 288;
}
);
note = cid00205;
unicode = 237;
}
{
glyphname = icircumflex;
layers = (
{
hints = (
{
horizontal = 1;
place = (524, -20);
target = down;
type = TopGhost;
},
{
horizontal = 1;
place = (597, 177);
place = (597, 177);
type = Stem;
},
{
place = (74, 143);
place = (74, 143);
type = Stem;
},
{
horizontal = 1;
place = (683, 91);
place = (683, 91);
type = Stem;
}
);
layerId = m01;
shapes = (
{
closed = 1;
nodes = (
(74,-22,ls),
(74,-31,o),
(79,-37,o),
(88,-37,cs),
(203,-37,ls),
(212,-37,o),
(217,-31,o),
(217,-22,cs),
(217,510,ls),
(217,518,o),
(212,524,o),
(203,524,cs),
(88,524,ls),
(79,524,o),
(74,518,o),
(74,510,cs)
);
},
{
closed = 1;
nodes = (
(63,597,ls),
(72,597,o),
(80,600,o),
(85,608,c),
(145,683,l),
(205,608,ls),
(211,600,o),
(218,597,o),
(228,597,cs),
(325,597,ls),
(334,597,o),
(336,600,o),
(331,608,c),
(213,763,ls),
(207,770,o),
(200,774,o),
(191,774,cs),
(100,774,ls),
(90,774,o),
(83,770,o),
(77,763,cs),
(-40,608,ls),
(-46,600,o),
(-44,597,o),
(-35,597,cs)
);
}
);
vertWidth = 1000;
width = 288;
}
);
note = cid00206;
unicode = 238;
}
{
glyphname = idieresis;
layers = (
{
hints = (
{
horizontal = 1;
place = (524, -20);
target = down;
type = TopGhost;
},
{
horizontal = 1;
place = (605, 144);
place = (605, 144);
type = Stem;
},
{
place = (74, 143);
place = (74, 143);
type = Stem;
},
{
place = (-27, 147);
place = (-27, 147);
type = Stem;
},
{
place = (169, 147);
place = (169, 147);
type = Stem;
}
);
layerId = m01;
shapes = (
{
closed = 1;
nodes = (
(74,-22,ls),
(74,-31,o),
(79,-37,o),
(88,-37,cs),
(203,-37,ls),
(212,-37,o),
(217,-31,o),
(217,-22,cs),
(217,510,ls),
(217,518,o),
(212,524,o),
(203,524,cs),
(88,524,ls),
(79,524,o),
(74,518,o),
(74,510,cs)
);
},
{
closed = 1;
nodes = (
(6,749,o),
(-27,719,o),
(-27,677,cs),
(-27,635,o),
(6,605,o),
(47,605,cs),
(89,605,o),
(120,634,o),
(120,677,cs),
(120,719,o),
(89,749,o),
(47,749,cs)
);
},
{
closed = 1;
nodes = (
(200,749,o),
(169,719,o),
(169,677,cs),
(169,635,o),
(200,605,o),
(242,605,cs),
(283,605,o),
(316,634,o),
(316,677,cs),
(316,719,o),
(284,749,o),
(242,749,cs)
);
}
);
vertWidth = 1000;
width = 288;
}
);
note = cid00207;
unicode = 239;
}
{
glyphname = eth;
layers = (
{
hints = (
{
horizontal = 1;
place = (-46, 127);
place = (-46, 127);
type = Stem;
},
{
horizontal = 1;
place = (364, 129);
place = (364, 129);
type = Stem;
},
{
horizontal = 1;
place = (653, 126);
place = (653, 126);
type = Stem;
},
{
place = (41, 146);
place = (41, 146);
type = Stem;
},
{
place = (471, 141);
place = (471, 141);
type = Stem;
}
);
layerId = m01;
shapes = (
{
closed = 1;
nodes = (
(162,543,l),
(156,535,o),
(157,529,o),
(164,523,cs),
(221,480,l),
(117,447,o),
(41,352,o),
(41,229,cs),
(41,69,o),
(163,-46,o),
(319,-46,cs),
(522,-46,o),
(612,123,o),
(612,311,cs),
(612,485,o),
(551,613,o),
(438,690,c),
(495,751,l),
(501,759,o),
(500,765,o),
(493,771,cs),
(435,814,ls),
(427,820,o),
(420,819,o),
(414,811,c),
(345,738,l),
(282,762,o),
(207,776,o),
(123,779,cs),
(113,779,o),
(108,774,o),
(108,764,cs),
(100,668,ls),
(100,658,o),
(105,653,o),
(114,653,cs),
(160,652,o),
(206,646,o),
(249,636,c)
);
},
{
closed = 1;
nodes = (
(187,303,o),
(243,364,o),
(329,364,cs),
(408,364,o),
(471,311,o),
(471,228,cs),
(471,143,o),
(416,81,o),
(329,81,cs),
(243,81,o),
(187,143,o),
(187,224,cs)
);
},
{
closed = 1;
nodes = (
(435,530,o),
(462,483,o),
(473,422,c),
(434,467,o),
(373,493,o),
(305,493,cs),
(285,493,o),
(265,491,o),
(246,487,c),
(350,597,l),
(367,587,o),
(383,576,o),
(398,564,cs)
);
}
);
vertWidth = 1000;
width = 667;
}
);
note = cid00208;
unicode = 240;
}
{
glyphname = ntilde;
layers = (
{
hints = (
{
horizontal = 1;
place = (407, 128);
place = (407, 128);
type = Stem;
},
{
horizontal = 1;
place = (623, 161);
place = (623, 161);
type = Stem;
},
{
place = (74, 140);
place = (74, 140);
type = Stem;
},
{
place = (455, 141);
place = (455, 141);
type = Stem;
},
{
place = (74, 131);
place = (74, 131);
type = Stem;
},
{
horizontal = 1;
place = (524, -20);
target = down;
type = TopGhost;
},
{
place = (157, 108);
place = (157, 108);
type = Stem;
},
{
horizontal = 1;
place = (685, 99);
place = (685, 99);
type = Stem;
},
{
horizontal = 1;
place = (618, 161);
place = (618, 161);
type = Stem;
},
{
place = (429, 108);
place = (429, 108);
type = Stem;
},
{
horizontal = 1;
place = (618, 100);
place = (618, 100);
type = Stem;
}
);
layerId = m01;
shapes = (
{
closed = 1;
nodes = (
(200,-37,ls),
(209,-37,o),
(214,-32,o),
(214,-23,cs),
(214,249,ls),
(214,356,o),
(279,407,o),
(348,407,cs),
(421,407,o),
(455,364,o),
(455,271,cs),
(455,-23,ls),
(455,-32,o),
(460,-37,o),
(469,-37,cs),
(582,-37,ls),
(590,-37,o),
(596,-32,o),
(596,-23,cs),
(596,328,ls),
(596,457,o),
(521,535,o),
(391,535,cs),
(319,535,o),
(249,506,o),
(208,446,c),
(205,510,ls),
(205,520,o),
(198,524,o),
(190,524,cs),
(88,524,ls),
(79,524,o),
(74,519,o),
(74,510,cs),
(74,-23,ls),
(74,-32,o),
(79,-37,o),
(88,-37,cs)
);
},
{
closed = 1;
nodes = (
(157,628,o),
(162,623,o),
(172,623,cs),
(251,623,ls),
(260,623,o),
(264,627,o),
(265,637,cs),
(265,666,o),
(278,685,o),
(291,685,cs),
(321,685,o),
(354,618,o),
(424,618,cs),
(492,618,o),
(538,680,o),
(537,765,cs),
(537,774,o),
(531,779,o),
(521,779,cs),
(443,779,ls),
(433,779,o),
(429,775,o),
(429,765,cs),
(428,736,o),
(416,718,o),
(403,718,cs),
(373,718,o),
(340,784,o),
(269,784,cs),
(202,784,o),
(156,719,o),
(157,637,cs)
);
}
);
vertWidth = 1000;
width = 665;
}
);
note = cid00209;
unicode = 241;
}
{
glyphname = ograve;
layers = (
{
hints = (
{
horizontal = 1;
place = (-48, 128);
place = (-48, 128);
type = Stem;
},
{
horizontal = 1;
place = (407, 128);
place = (407, 128);
type = Stem;
},
{
horizontal = 1;
place = (590, 174);
place = (590, 174);
type = Stem;
},
{
place = (41, 145);
place = (41, 145);
type = Stem;
},
{
place = (490, 145);
place = (490, 145);
type = Stem;
}
);
layerId = m01;
shapes = (
{
closed = 1;
nodes = (
(518,-48,o),
(635,73,o),
(635,243,cs),
(635,414,o),
(518,535,o),
(338,535,cs),
(158,535,o),
(41,414,o),
(41,243,cs),
(41,73,o),
(158,-48,o),
(338,-48,cs)
);
},
{
closed = 1;
nodes = (
(203,764,ls),
(193,764,o),
(191,760,o),
(197,752,cs),
(301,602,ls),
(306,594,o),
(313,590,o),
(323,590,cs),
(427,590,ls),
(436,590,o),
(439,594,o),
(434,602,cs),
(353,751,ls),
(348,760,o),
(341,764,o),
(332,764,cs)
);
},
{
closed = 1;
nodes = (
(186,340,o),
(248,407,o),
(338,407,cs),
(428,407,o),
(490,340,o),
(490,243,cs),
(490,147,o),
(428,80,o),
(338,80,cs),
(248,80,o),
(186,147,o),
(186,243,cs)
);
}
);
vertWidth = 1000;
width = 676;
}
);
note = cid00210;
unicode = 242;
}
{
glyphname = oacute;
layers = (
{
hints = (
{
horizontal = 1;
place = (-48, 128);
place = (-48, 128);
type = Stem;
},
{
horizontal = 1;
place = (407, 128);
place = (407, 128);
type = Stem;
},
{
horizontal = 1;
place = (597, 173);
place = (597, 173);
type = Stem;
},
{
place = (41, 145);
place = (41, 145);
type = Stem;
},
{
place = (490, 145);
place = (490, 145);
type = Stem;
}
);
layerId = m01;
shapes = (
{
closed = 1;
nodes = (
(518,-48,o),
(635,73,o),
(635,243,cs),
(635,414,o),
(518,535,o),
(338,535,cs),
(158,535,o),
(41,414,o),
(41,243,cs),
(41,73,o),
(158,-48,o),
(338,-48,cs)
);
},
{
closed = 1;
nodes = (
(345,770,ls),
(337,770,o),
(332,767,o),
(328,760,cs),
(246,612,ls),
(242,604,o),
(244,597,o),
(255,597,cs),
(360,597,ls),
(367,597,o),
(373,599,o),
(377,606,cs),
(480,756,l),
(486,763,o),
(484,770,o),
(473,770,cs)
);
},
{
closed = 1;
nodes = (
(186,340,o),
(248,407,o),
(338,407,cs),
(428,407,o),
(490,340,o),
(490,243,cs),
(490,147,o),
(428,80,o),
(338,80,cs),
(248,80,o),
(186,147,o),
(186,243,cs)
);
}
);
vertWidth = 1000;
width = 676;
}
);
note = cid00211;
unicode = 243;
}
{
glyphname = ocircumflex;
layers = (
{
hints = (
{
horizontal = 1;
place = (-48, 128);
place = (-48, 128);
type = Stem;
},
{
horizontal = 1;
place = (407, 128);
place = (407, 128);
type = Stem;
},
{
horizontal = 1;
place = (597, 177);
place = (597, 177);
type = Stem;
},
{
place = (41, 145);
place = (41, 145);
type = Stem;
},
{
place = (490, 145);
place = (490, 145);
type = Stem;
},
{
horizontal = 1;
place = (683, 91);
place = (683, 91);
type = Stem;
}
);
layerId = m01;
shapes = (
{
closed = 1;
nodes = (
(518,-48,o),
(635,73,o),
(635,243,cs),
(635,414,o),
(518,535,o),
(338,535,cs),
(158,535,o),
(41,414,o),
(41,243,cs),
(41,73,o),
(158,-48,o),
(338,-48,cs)
);
},
{
closed = 1;
nodes = (
(256,597,ls),
(265,597,o),
(273,600,o),
(278,608,c),
(338,683,l),
(398,608,ls),
(404,600,o),
(411,597,o),
(421,597,cs),
(518,597,ls),
(527,597,o),
(529,600,o),
(524,608,c),
(406,763,ls),
(400,770,o),
(393,774,o),
(384,774,cs),
(293,774,ls),
(283,774,o),
(276,770,o),
(270,763,cs),
(153,608,ls),
(147,600,o),
(149,597,o),
(158,597,cs)
);
},
{
closed = 1;
nodes = (
(186,340,o),
(248,407,o),
(338,407,cs),
(428,407,o),
(490,340,o),
(490,243,cs),
(490,147,o),
(428,80,o),
(338,80,cs),
(248,80,o),
(186,147,o),
(186,243,cs)
);
}
);
vertWidth = 1000;
width = 676;
}
);
note = cid00212;
unicode = 244;
}
{
glyphname = otilde;
layers = (
{
hints = (
{
horizontal = 1;
place = (-48, 128);
place = (-48, 128);
type = Stem;
},
{
horizontal = 1;
place = (407, 128);
place = (407, 128);
type = Stem;
},
{
horizontal = 1;
place = (623, 161);
place = (623, 161);
type = Stem;
},
{
place = (41, 145);
place = (41, 145);
type = Stem;
},
{
place = (490, 145);
place = (490, 145);
type = Stem;
},
{
place = (141, 108);
place = (141, 108);
type = Stem;
},
{
horizontal = 1;
place = (685, 99);
place = (685, 99);
type = Stem;
},
{
horizontal = 1;
place = (618, 161);
place = (618, 161);
type = Stem;
},
{
place = (413, 108);
place = (413, 108);
type = Stem;
},
{
horizontal = 1;
place = (618, 100);
place = (618, 100);
type = Stem;
}
);
layerId = m01;
shapes = (
{
closed = 1;
nodes = (
(518,-48,o),
(635,73,o),
(635,243,cs),
(635,414,o),
(518,535,o),
(338,535,cs),
(158,535,o),
(41,414,o),
(41,243,cs),
(41,73,o),
(158,-48,o),
(338,-48,cs)
);
},
{
closed = 1;
nodes = (
(141,628,o),
(146,623,o),
(156,623,cs),
(235,623,ls),
(244,623,o),
(248,627,o),
(249,637,cs),
(249,666,o),
(262,685,o),
(275,685,cs),
(305,685,o),
(338,618,o),
(408,618,cs),
(476,618,o),
(522,680,o),
(521,765,cs),
(521,774,o),
(515,779,o),
(505,779,cs),
(427,779,ls),
(417,779,o),
(413,775,o),
(413,765,cs),
(412,736,o),
(400,718,o),
(387,718,cs),
(357,718,o),
(324,784,o),
(253,784,cs),
(186,784,o),
(140,719,o),
(141,637,cs)
);
},
{
closed = 1;
nodes = (
(186,340,o),
(248,407,o),
(338,407,cs),
(428,407,o),
(490,340,o),
(490,243,cs),
(490,147,o),
(428,80,o),
(338,80,cs),
(248,80,o),
(186,147,o),
(186,243,cs)
);
}
);
vertWidth = 1000;
width = 676;
}
);
note = cid00213;
unicode = 245;
}
{
glyphname = odieresis;
layers = (
{
hints = (
{
horizontal = 1;
place = (-48, 128);
place = (-48, 128);
type = Stem;
},
{
horizontal = 1;
place = (407, 128);
place = (407, 128);
type = Stem;
},
{
horizontal = 1;
place = (605, 144);
place = (605, 144);
type = Stem;
},
{
place = (41, 145);
place = (41, 145);
type = Stem;
},
{
place = (490, 145);
place = (490, 145);
type = Stem;
},
{
place = (166, 147);
place = (166, 147);
type = Stem;
},
{
place = (362, 147);
place = (362, 147);
type = Stem;
}
);
layerId = m01;
shapes = (
{
closed = 1;
nodes = (
(518,-48,o),
(635,73,o),
(635,243,cs),
(635,414,o),
(518,535,o),
(338,535,cs),
(158,535,o),
(41,414,o),
(41,243,cs),
(41,73,o),
(158,-48,o),
(338,-48,cs)
);
},
{
closed = 1;
nodes = (
(199,749,o),
(166,719,o),
(166,677,cs),
(166,635,o),
(199,605,o),
(240,605,cs),
(282,605,o),
(313,634,o),
(313,677,cs),
(313,719,o),
(282,749,o),
(240,749,cs)
);
},
{
closed = 1;
nodes = (
(393,749,o),
(362,719,o),
(362,677,cs),
(362,635,o),
(393,605,o),
(435,605,cs),
(476,605,o),
(509,634,o),
(509,677,cs),
(509,719,o),
(477,749,o),
(435,749,cs)
);
},
{
closed = 1;
nodes = (
(186,340,o),
(248,407,o),
(338,407,cs),
(428,407,o),
(490,340,o),
(490,243,cs),
(490,147,o),
(428,80,o),
(338,80,cs),
(248,80,o),
(186,147,o),
(186,243,cs)
);
}
);
vertWidth = 1000;
width = 676;
}
);
note = cid00214;
unicode = 246;
}
{
glyphname = divide.full;
layers = (
{
hints = (
{
horizontal = 1;
place = (64, 168);
place = (64, 168);
type = Stem;
},
{
horizontal = 1;
place = (313, 134);
place = (313, 134);
type = Stem;
},
{
horizontal = 1;
place = (528, 168);
place = (528, 168);
type = Stem;
},
{
place = (414, 172);
place = (414, 172);
type = Stem;
}
);
layerId = m01;
shapes = (
{
closed = 1;
nodes = (
(550,528,o),
(586,563,o),
(586,613,cs),
(586,662,o),
(548,696,o),
(500,696,cs),
(452,696,o),
(414,662,o),
(414,613,cs),
(414,563,o),
(450,528,o),
(500,528,cs)
);
},
{
closed = 1;
nodes = (
(190,327,ls),
(190,318,o),
(195,313,o),
(204,313,cs),
(796,313,ls),
(805,313,o),
(810,318,o),
(810,327,cs),
(810,433,ls),
(810,442,o),
(805,447,o),
(796,447,cs),
(204,447,ls),
(195,447,o),
(190,442,o),
(190,433,cs)
);
},
{
closed = 1;
nodes = (
(548,64,o),
(586,97,o),
(586,146,cs),
(586,197,o),
(551,232,o),
(500,232,cs),
(449,232,o),
(414,197,o),
(414,146,cs),
(414,97,o),
(452,64,o),
(500,64,cs)
);
}
);
vertWidth = 1000;
width = 1000;
}
);
note = cid00696;
unicode = 247;
}
{
glyphname = oslash;
layers = (
{
hints = (
{
horizontal = 1;
place = (-48, 128);
place = (-48, 128);
type = Stem;
},
{
horizontal = 1;
place = (407, 128);
place = (407, 128);
type = Stem;
},
{
place = (42, 145);
place = (42, 145);
type = Stem;
},
{
place = (491, 145);
place = (491, 145);
type = Stem;
},
{
horizontal = 1;
place = (-5, 21);
target = up;
type = BottomGhost;
}
);
layerId = m01;
shapes = (
{
closed = 1;
nodes = (
(519,-48,o),
(636,73,o),
(636,243,cs),
(636,323,o),
(610,393,o),
(563,444,c),
(623,512,ls),
(630,520,o),
(630,527,o),
(622,533,cs),
(588,562,ls),
(580,569,o),
(573,568,o),
(567,561,cs),
(506,491,l),
(460,519,o),
(403,535,o),
(339,535,cs),
(159,535,o),
(42,414,o),
(42,243,cs),
(42,162,o),
(68,93,o),
(115,42,c),
(56,-26,ls),
(49,-34,o),
(49,-41,o),
(57,-47,cs),
(91,-76,ls),
(98,-82,o),
(105,-81,o),
(112,-74,cs),
(172,-5,l),
(218,-33,o),
(274,-48,o),
(339,-48,cs)
);
},
{
closed = 1;
nodes = (
(187,340,o),
(249,407,o),
(339,407,cs),
(368,407,o),
(394,400,o),
(416,387,c),
(210,151,l),
(195,176,o),
(187,208,o),
(187,243,cs)
);
},
{
closed = 1;
nodes = (
(491,147,o),
(429,80,o),
(339,80,cs),
(310,80,o),
(284,87,o),
(263,99,c),
(468,334,l),
(482,309,o),
(491,278,o),
(491,243,cs)
);
}
);
vertWidth = 1000;
width = 677;
}
);
note = cid00148;
unicode = 248;
}
{
glyphname = ugrave;
layers = (
{
hints = (
{
horizontal = 1;
place = (-48, 128);
place = (-48, 128);
type = Stem;
},
{
horizontal = 1;
place = (524, -20);
target = down;
type = TopGhost;
},
{
horizontal = 1;
place = (590, 174);
place = (590, 174);
type = Stem;
},
{
place = (69, 141);
place = (69, 141);
type = Stem;
},
{
place = (451, 140);
place = (451, 140);
type = Stem;
},
{
place = (460, 131);
place = (460, 131);
type = Stem;
},
{
horizontal = 1;
place = (-37, 117);
place = (-37, 117);
type = Stem;
}
);
layerId = m01;
shapes = (
{
closed = 1;
nodes = (
(345,-48,o),
(416,-19,o),
(457,41,c),
(460,-23,ls),
(460,-33,o),
(467,-37,o),
(475,-37,cs),
(577,-37,ls),
(586,-37,o),
(591,-32,o),
(591,-23,cs),
(591,510,ls),
(591,519,o),
(586,524,o),
(577,524,cs),
(465,524,ls),
(456,524,o),
(451,519,o),
(451,510,cs),
(451,238,ls),
(451,131,o),
(386,80,o),
(317,80,cs),
(244,80,o),
(210,123,o),
(210,216,cs),
(210,510,ls),
(210,519,o),
(205,524,o),
(196,524,cs),
(83,524,ls),
(75,524,o),
(69,519,o),
(69,510,cs),
(69,159,ls),
(69,30,o),
(144,-48,o),
(274,-48,cs)
);
},
{
closed = 1;
nodes = (
(202,764,ls),
(192,764,o),
(190,760,o),
(196,752,cs),
(300,602,ls),
(305,594,o),
(312,590,o),
(322,590,cs),
(426,590,ls),
(435,590,o),
(438,594,o),
(433,602,cs),
(352,751,ls),
(347,760,o),
(340,764,o),
(331,764,cs)
);
}
);
vertWidth = 1000;
width = 665;
}
);
note = cid00216;
unicode = 249;
}
{
glyphname = ucircumflex;
layers = (
{
hints = (
{
horizontal = 1;
place = (-48, 128);
place = (-48, 128);
type = Stem;
},
{
horizontal = 1;
place = (524, -20);
target = down;
type = TopGhost;
},
{
horizontal = 1;
place = (597, 177);
place = (597, 177);
type = Stem;
},
{
place = (69, 141);
place = (69, 141);
type = Stem;
},
{
place = (451, 140);
place = (451, 140);
type = Stem;
},
{
place = (460, 131);
place = (460, 131);
type = Stem;
},
{
horizontal = 1;
place = (-37, 117);
place = (-37, 117);
type = Stem;
},
{
horizontal = 1;
place = (683, 91);
place = (683, 91);
type = Stem;
},
{
place = (149, 61);
place = (149, 61);
type = Stem;
}
);
layerId = m01;
shapes = (
{
closed = 1;
nodes = (
(345,-48,o),
(416,-19,o),
(457,41,c),
(460,-23,ls),
(460,-33,o),
(467,-37,o),
(475,-37,cs),
(577,-37,ls),
(586,-37,o),
(591,-32,o),
(591,-23,cs),
(591,510,ls),
(591,519,o),
(586,524,o),
(577,524,cs),
(465,524,ls),
(456,524,o),
(451,519,o),
(451,510,cs),
(451,238,ls),
(451,131,o),
(386,80,o),
(317,80,cs),
(244,80,o),
(210,123,o),
(210,216,cs),
(210,510,ls),
(210,519,o),
(205,524,o),
(196,524,cs),
(83,524,ls),
(75,524,o),
(69,519,o),
(69,510,cs),
(69,159,ls),
(69,30,o),
(144,-48,o),
(274,-48,cs)
);
},
{
closed = 1;
nodes = (
(255,597,ls),
(264,597,o),
(272,600,o),
(277,608,c),
(337,683,l),
(397,608,ls),
(403,600,o),
(410,597,o),
(420,597,cs),
(517,597,ls),
(526,597,o),
(528,600,o),
(523,608,c),
(405,763,ls),
(399,770,o),
(392,774,o),
(383,774,cs),
(292,774,ls),
(282,774,o),
(275,770,o),
(269,763,cs),
(152,608,ls),
(146,600,o),
(148,597,o),
(157,597,cs)
);
}
);
vertWidth = 1000;
width = 665;
}
);
note = cid00218;
unicode = 251;
}
{
glyphname = udieresis;
layers = (
{
hints = (
{
horizontal = 1;
place = (-48, 128);
place = (-48, 128);
type = Stem;
},
{
horizontal = 1;
place = (524, -20);
target = down;
type = TopGhost;
},
{
horizontal = 1;
place = (605, 144);
place = (605, 144);
type = Stem;
},
{
place = (69, 141);
place = (69, 141);
type = Stem;
},
{
place = (451, 140);
place = (451, 140);
type = Stem;
},
{
place = (460, 131);
place = (460, 131);
type = Stem;
},
{
horizontal = 1;
place = (-37, 117);
place = (-37, 117);
type = Stem;
},
{
place = (165, 147);
place = (165, 147);
type = Stem;
},
{
place = (361, 147);
place = (361, 147);
type = Stem;
}
);
layerId = m01;
shapes = (
{
closed = 1;
nodes = (
(345,-48,o),
(416,-19,o),
(457,41,c),
(460,-23,ls),
(460,-33,o),
(467,-37,o),
(475,-37,cs),
(577,-37,ls),
(586,-37,o),
(591,-32,o),
(591,-23,cs),
(591,510,ls),
(591,519,o),
(586,524,o),
(577,524,cs),
(465,524,ls),
(456,524,o),
(451,519,o),
(451,510,cs),
(451,238,ls),
(451,131,o),
(386,80,o),
(317,80,cs),
(244,80,o),
(210,123,o),
(210,216,cs),
(210,510,ls),
(210,519,o),
(205,524,o),
(196,524,cs),
(83,524,ls),
(75,524,o),
(69,519,o),
(69,510,cs),
(69,159,ls),
(69,30,o),
(144,-48,o),
(274,-48,cs)
);
},
{
closed = 1;
nodes = (
(198,749,o),
(165,719,o),
(165,677,cs),
(165,635,o),
(198,605,o),
(239,605,cs),
(281,605,o),
(312,634,o),
(312,677,cs),
(312,719,o),
(281,749,o),
(239,749,cs)
);
},
{
closed = 1;
nodes = (
(392,749,o),
(361,719,o),
(361,677,cs),
(361,635,o),
(392,605,o),
(434,605,cs),
(475,605,o),
(508,634,o),
(508,677,cs),
(508,719,o),
(476,749,o),
(434,749,cs)
);
}
);
vertWidth = 1000;
width = 665;
}
);
note = cid00219;
unicode = 252;
}
{
glyphname = yacute;
layers = (
{
hints = (
{
horizontal = 1;
place = (-273, 21);
target = up;
type = BottomGhost;
},
{
horizontal = 1;
place = (524, -20);
target = down;
type = TopGhost;
},
{
horizontal = 1;
place = (597, 173);
place = (597, 173);
type = Stem;
},
{
place = (22, 585);
place = (22, 585);
type = Stem;
}
);
layerId = m01;
shapes = (
{
closed = 1;
nodes = (
(275,-273,ls),
(283,-273,o),
(288,-270,o),
(291,-262,cs),
(605,508,l),
(610,517,o),
(604,524,o),
(595,524,cs),
(471,524,ls),
(464,524,o),
(458,521,o),
(455,513,cs),
(322,169,l),
(185,513,ls),
(182,521,o),
(177,524,o),
(169,524,cs),
(35,524,ls),
(27,524,o),
(22,520,o),
(22,515,cs),
(22,513,o),
(23,510,o),
(24,508,cs),
(249,-1,l),
(146,-257,l),
(143,-267,o),
(147,-273,o),
(157,-273,cs)
);
},
{
closed = 1;
nodes = (
(330,770,ls),
(322,770,o),
(317,767,o),
(313,760,cs),
(231,612,ls),
(227,604,o),
(229,597,o),
(240,597,cs),
(345,597,ls),
(352,597,o),
(358,599,o),
(362,606,cs),
(466,756,ls),
(471,763,o),
(469,770,o),
(458,770,cs)
);
}
);
vertWidth = 1000;
width = 629;
}
);
note = cid00220;
unicode = 253;
}
{
glyphname = thorn;
layers = (
{
hints = (
{
horizontal = 1;
place = (-273, 21);
target = up;
type = BottomGhost;
},
{
horizontal = 1;
place = (-48, 128);
place = (-48, 128);
type = Stem;
},
{
horizontal = 1;
place = (407, 128);
place = (407, 128);
type = Stem;
},
{
horizontal = 1;
place = (775, -20);
target = down;
type = TopGhost;
},
{
place = (74, 140);
place = (74, 140);
type = Stem;
},
{
place = (508, 145);
place = (508, 145);
type = Stem;
},
{
place = (74, 131);
place = (74, 131);
type = Stem;
}
);
layerId = m01;
shapes = (
{
closed = 1;
nodes = (
(200,-273,ls),
(209,-273,o),
(214,-268,o),
(214,-259,cs),
(214,31,l),
(256,-19,o),
(317,-48,o),
(391,-48,cs),
(551,-48,o),
(653,71,o),
(653,243,cs),
(653,416,o),
(551,535,o),
(391,535,cs),
(317,535,o),
(254,505,o),
(214,455,c),
(214,761,ls),
(214,770,o),
(209,775,o),
(200,775,cs),
(88,775,ls),
(79,775,o),
(74,770,o),
(74,761,cs),
(74,-259,ls),
(74,-268,o),
(79,-273,o),
(88,-273,cs)
);
},
{
closed = 1;
nodes = (
(205,340,o),
(266,407,o),
(356,407,cs),
(446,407,o),
(508,340,o),
(508,243,cs),
(508,147,o),
(446,80,o),
(356,80,cs),
(266,80,o),
(205,147,o),
(205,243,cs)
);
}
);
vertWidth = 1000;
width = 694;
}
);
note = cid00221;
unicode = 254;
}
{
glyphname = ydieresis;
layers = (
{
hints = (
{
horizontal = 1;
place = (-273, 21);
target = up;
type = BottomGhost;
},
{
horizontal = 1;
place = (524, -20);
target = down;
type = TopGhost;
},
{
horizontal = 1;
place = (607, 144);
place = (607, 144);
type = Stem;
},
{
place = (152, 147);
place = (152, 147);
type = Stem;
},
{
place = (347, 147);
place = (347, 147);
type = Stem;
}
);
layerId = m01;
shapes = (
{
closed = 1;
nodes = (
(275,-273,ls),
(283,-273,o),
(288,-270,o),
(291,-262,cs),
(605,508,l),
(610,517,o),
(604,524,o),
(595,524,cs),
(471,524,ls),
(464,524,o),
(458,521,o),
(455,513,cs),
(322,169,l),
(185,513,ls),
(182,521,o),
(177,524,o),
(169,524,cs),
(35,524,ls),
(27,524,o),
(22,520,o),
(22,515,cs),
(22,513,o),
(23,510,o),
(24,508,cs),
(249,-1,l),
(146,-257,l),
(143,-267,o),
(147,-273,o),
(157,-273,cs)
);
},
{
closed = 1;
nodes = (
(184,751,o),
(152,721,o),
(152,679,cs),
(152,637,o),
(184,607,o),
(225,607,cs),
(267,607,o),
(299,636,o),
(299,679,cs),
(299,721,o),
(267,751,o),
(225,751,cs)
);
},
{
closed = 1;
nodes = (
(379,751,o),
(347,721,o),
(347,679,cs),
(347,637,o),
(379,607,o),
(421,607,cs),
(462,607,o),
(494,636,o),
(494,679,cs),
(494,721,o),
(462,751,o),
(421,751,cs)
);
}
);
vertWidth = 1000;
width = 629;
}
);
note = cid00222;
unicode = 255;
}
{
glyphname = Amacron;
layers = (
{
hints = (
{
horizontal = 1;
place = (122, 136);
place = (122, 136);
type = Stem;
},
{
horizontal = 1;
place = (877, 106);
place = (877, 106);
type = Stem;
},
{
place = (22, 771);
place = (22, 771);
type = Stem;
},
{
place = (239, 334);
place = (239, 334);
type = Stem;
}
);
layerId = m01;
shapes = (
{
closed = 1;
nodes = (
(169,-37,ls),
(177,-37,o),
(182,-34,o),
(185,-26,cs),
(242,122,l),
(572,122,l),
(628,-26,ls),
(631,-34,o),
(637,-37,o),
(644,-37,cs),
(781,-37,ls),
(789,-37,o),
(793,-33,o),
(793,-27,cs),
(793,-25,o),
(793,-23,o),
(792,-21,cs),
(474,747,ls),
(471,755,o),
(466,758,o),
(458,758,cs),
(357,758,ls),
(350,758,o),
(344,755,o),
(341,747,cs),
(24,-21,ls),
(19,-31,o),
(25,-37,o),
(35,-37,cs)
);
},
{
closed = 1;
nodes = (
(253,983,ls),
(243,983,o),
(239,978,o),
(239,969,cs),
(239,891,ls),
(239,882,o),
(243,877,o),
(253,877,cs),
(559,877,ls),
(568,877,o),
(573,882,o),
(573,891,cs),
(573,969,ls),
(573,978,o),
(568,983,o),
(559,983,cs)
);
},
{
closed = 1;
nodes = (
(520,258,l),
(292,258,l),
(406,559,l)
);
}
);
vertWidth = 1000;
width = 815;
}
);
note = cid25718;
unicode = 256;
}
{
glyphname = amacron;
layers = (
{
hints = (
{
horizontal = 1;
place = (-48, 128);
place = (-48, 128);
type = Stem;
},
{
horizontal = 1;
place = (407, 128);
place = (407, 128);
type = Stem;
},
{
horizontal = 1;
place = (633, 106);
place = (633, 106);
type = Stem;
},
{
place = (41, 145);
place = (41, 145);
type = Stem;
},
{
place = (490, 131);
place = (490, 131);
type = Stem;
},
{
horizontal = 1;
place = (-37, 117);
place = (-37, 117);
type = Stem;
},
{
horizontal = 1;
place = (524, -20);
target = down;
type = TopGhost;
},
{
place = (165, 334);
place = (165, 334);
type = Stem;
}
);
layerId = m01;
shapes = (
{
closed = 1;
nodes = (
(381,-48,o),
(446,-15,o),
(486,40,c),
(490,-23,ls),
(490,-33,o),
(496,-37,o),
(505,-37,cs),
(606,-37,ls),
(615,-37,o),
(621,-32,o),
(621,-23,cs),
(621,510,ls),
(621,519,o),
(615,524,o),
(606,524,cs),
(505,524,ls),
(496,524,o),
(490,520,o),
(490,510,cs),
(486,447,l),
(446,502,o),
(381,535,o),
(303,535,cs),
(143,535,o),
(41,416,o),
(41,243,cs),
(41,71,o),
(143,-48,o),
(303,-48,cs)
);
},
{
closed = 1;
nodes = (
(179,739,ls),
(170,739,o),
(165,734,o),
(165,725,cs),
(165,647,ls),
(165,638,o),
(170,633,o),
(179,633,cs),
(485,633,ls),
(495,633,o),
(499,638,o),
(499,647,cs),
(499,725,ls),
(499,734,o),
(495,739,o),
(485,739,cs)
);
},
{
closed = 1;
nodes = (
(186,340,o),
(248,407,o),
(338,407,cs),
(428,407,o),
(490,340,o),
(490,243,cs),
(490,147,o),
(428,80,o),
(338,80,cs),
(248,80,o),
(186,147,o),
(186,243,cs)
);
}
);
vertWidth = 1000;
width = 694;
}
);
note = cid25719;
unicode = 257;
}
{
glyphname = Abreve;
layers = (
{
hints = (
{
horizontal = 1;
place = (122, 136);
place = (122, 136);
type = Stem;
},
{
horizontal = 1;
place = (839, 99);
place = (839, 99);
type = Stem;
},
{
place = (22, 771);
place = (22, 771);
type = Stem;
},
{
horizontal = 1;
place = (839, 177);
place = (839, 177);
type = Stem;
}
);
layerId = m01;
shapes = (
{
closed = 1;
nodes = (
(169,-37,ls),
(177,-37,o),
(182,-34,o),
(185,-26,cs),
(242,122,l),
(572,122,l),
(628,-26,ls),
(631,-34,o),
(637,-37,o),
(644,-37,cs),
(781,-37,ls),
(789,-37,o),
(793,-33,o),
(793,-27,cs),
(793,-25,o),
(793,-23,o),
(792,-21,cs),
(474,747,ls),
(471,755,o),
(466,758,o),
(458,758,cs),
(357,758,ls),
(350,758,o),
(344,755,o),
(341,747,cs),
(24,-21,ls),
(19,-31,o),
(25,-37,o),
(35,-37,cs)
);
},
{
closed = 1;
nodes = (
(349,1012,o),
(344,1016,o),
(335,1016,cs),
(238,1016,ls),
(229,1016,o),
(224,1012,o),
(225,1002,cs),
(232,899,o),
(298,839,o),
(405,839,cs),
(513,839,o),
(578,899,o),
(586,1002,cs),
(586,1012,o),
(582,1016,o),
(572,1016,cs),
(476,1016,ls),
(467,1016,o),
(462,1012,o),
(460,1002,cs),
(456,970,o),
(446,938,o),
(405,938,cs),
(365,938,o),
(354,970,o),
(350,1002,cs)
);
},
{
closed = 1;
nodes = (
(520,258,l),
(292,258,l),
(406,559,l)
);
}
);
vertWidth = 1000;
width = 815;
}
);
note = cid25720;
unicode = 258;
}
{
glyphname = abreve;
layers = (
{
hints = (
{
horizontal = 1;
place = (-48, 128);
place = (-48, 128);
type = Stem;
},
{
horizontal = 1;
place = (407, 128);
place = (407, 128);
type = Stem;
},
{
horizontal = 1;
place = (595, 177);
place = (595, 177);
type = Stem;
},
{
place = (41, 145);
place = (41, 145);
type = Stem;
},
{
place = (490, 131);
place = (490, 131);
type = Stem;
},
{
horizontal = 1;
place = (-37, 117);
place = (-37, 117);
type = Stem;
},
{
horizontal = 1;
place = (524, -20);
target = down;
type = TopGhost;
},
{
horizontal = 1;
place = (595, 99);
place = (595, 99);
type = Stem;
}
);
layerId = m01;
shapes = (
{
closed = 1;
nodes = (
(381,-48,o),
(446,-15,o),
(486,40,c),
(490,-23,ls),
(490,-33,o),
(496,-37,o),
(505,-37,cs),
(606,-37,ls),
(615,-37,o),
(621,-32,o),
(621,-23,cs),
(621,510,ls),
(621,519,o),
(615,524,o),
(606,524,cs),
(505,524,ls),
(496,524,o),
(490,520,o),
(490,510,cs),
(486,447,l),
(446,502,o),
(381,535,o),
(303,535,cs),
(143,535,o),
(41,416,o),
(41,243,cs),
(41,71,o),
(143,-48,o),
(303,-48,cs)
);
},
{
closed = 1;
nodes = (
(276,768,o),
(271,772,o),
(261,772,cs),
(165,772,ls),
(156,772,o),
(151,767,o),
(152,758,cs),
(159,655,o),
(225,595,o),
(332,595,cs),
(439,595,o),
(505,655,o),
(512,758,cs),
(513,767,o),
(508,772,o),
(499,772,cs),
(403,772,ls),
(393,772,o),
(388,768,o),
(387,758,cs),
(383,726,o),
(373,694,o),
(332,694,cs),
(291,694,o),
(281,726,o),
(277,758,cs)
);
},
{
closed = 1;
nodes = (
(186,340,o),
(248,407,o),
(338,407,cs),
(428,407,o),
(490,340,o),
(490,243,cs),
(490,147,o),
(428,80,o),
(338,80,cs),
(248,80,o),
(186,147,o),
(186,243,cs)
);
}
);
vertWidth = 1000;
width = 694;
}
);
note = cid25721;
unicode = 259;
}
{
glyphname = Aogonek;
layers = (
{
hints = (
{
horizontal = 1;
place = (-264, 92);
place = (-264, 92);
type = Stem;
},
{
horizontal = 1;
place = (122, 136);
place = (122, 136);
type = Stem;
},
{
place = (539, 127);
place = (539, 127);
type = Stem;
},
{
place = (539, 264);
place = (539, 264);
type = Stem;
}
);
layerId = m01;
shapes = (
{
closed = 1;
nodes = (
(169,-37,ls),
(177,-37,o),
(182,-34,o),
(185,-26,cs),
(242,122,l),
(572,122,l),
(628,-26,l),
(628,-27,l),
(576,-48,o),
(539,-97,o),
(539,-146,cs),
(539,-214,o),
(612,-264,o),
(705,-264,cs),
(726,-264,o),
(803,-261,o),
(803,-230,cs),
(805,-176,ls),
(806,-167,o),
(802,-163,o),
(793,-165,cs),
(778,-169,o),
(764,-172,o),
(749,-172,cs),
(697,-172,o),
(666,-146,o),
(666,-113,cs),
(666,-77,o),
(694,-52,o),
(720,-37,c),
(781,-37,ls),
(789,-37,o),
(793,-33,o),
(793,-27,cs),
(793,-25,o),
(793,-23,o),
(792,-21,cs),
(474,747,ls),
(471,755,o),
(466,758,o),
(458,758,cs),
(357,758,ls),
(350,758,o),
(344,755,o),
(341,747,cs),
(24,-21,ls),
(19,-31,o),
(25,-37,o),
(35,-37,cs)
);
},
{
closed = 1;
nodes = (
(520,258,l),
(292,258,l),
(406,559,l)
);
}
);
vertWidth = 1000;
width = 815;
}
);
note = cid25722;
unicode = 260;
}
{
glyphname = aogonek;
layers = (
{
hints = (
{
horizontal = 1;
place = (-264, 92);
place = (-264, 92);
type = Stem;
},
{
horizontal = 1;
place = (-48, 128);
place = (-48, 128);
type = Stem;
},
{
horizontal = 1;
place = (407, 128);
place = (407, 128);
type = Stem;
},
{
place = (41, 145);
place = (41, 145);
type = Stem;
},
{
place = (490, 131);
place = (490, 131);
type = Stem;
},
{
place = (407, 126);
place = (407, 126);
type = Stem;
},
{
horizontal = 1;
place = (524, -20);
target = down;
type = TopGhost;
}
);
layerId = m01;
shapes = (
{
closed = 1;
nodes = (
(381,-48,o),
(446,-15,o),
(486,40,c),
(490,-23,ls),
(490,-25,o),
(490,-27,o),
(491,-29,c),
(441,-51,o),
(407,-98,o),
(407,-146,cs),
(407,-214,o),
(479,-264,o),
(572,-264,cs),
(606,-264,o),
(629,-260,o),
(657,-249,cs),
(666,-246,o),
(670,-239,o),
(671,-230,cs),
(673,-176,ls),
(673,-167,o),
(669,-163,o),
(660,-165,cs),
(645,-169,o),
(631,-172,o),
(616,-172,cs),
(565,-172,o),
(533,-146,o),
(533,-113,cs),
(533,-77,o),
(562,-52,o),
(588,-37,c),
(606,-37,ls),
(615,-37,o),
(621,-32,o),
(621,-23,cs),
(621,510,ls),
(621,519,o),
(615,524,o),
(606,524,cs),
(505,524,ls),
(496,524,o),
(490,520,o),
(490,510,cs),
(486,447,l),
(446,502,o),
(381,535,o),
(303,535,cs),
(143,535,o),
(41,416,o),
(41,243,cs),
(41,71,o),
(143,-48,o),
(303,-48,cs)
);
},
{
closed = 1;
nodes = (
(186,340,o),
(248,407,o),
(338,407,cs),
(428,407,o),
(490,340,o),
(490,243,cs),
(490,147,o),
(428,80,o),
(338,80,cs),
(248,80,o),
(186,147,o),
(186,243,cs)
);
}
);
vertWidth = 1000;
width = 694;
}
);
note = cid25723;
unicode = 261;
}
{
glyphname = cacute;
layers = (
{
hints = (
{
horizontal = 1;
place = (-48, 128);
place = (-48, 128);
type = Stem;
},
{
horizontal = 1;
place = (407, 128);
place = (407, 128);
type = Stem;
},
{
horizontal = 1;
place = (597, 173);
place = (597, 173);
type = Stem;
},
{
place = (41, 145);
place = (41, 145);
type = Stem;
}
);
layerId = m01;
shapes = (
{
closed = 1;
nodes = (
(453,-48,o),
(548,5,o),
(592,121,cs),
(596,130,o),
(592,136,o),
(584,138,cs),
(481,163,l),
(473,166,o),
(467,162,o),
(462,155,c),
(439,105,o),
(395,80,o),
(337,80,cs),
(235,80,o),
(186,155,o),
(186,243,cs),
(186,332,o),
(235,407,o),
(337,407,cs),
(395,407,o),
(436,383,o),
(461,336,cs),
(465,330,o),
(470,326,o),
(475,326,c),
(573,354,ls),
(580,356,o),
(584,361,o),
(584,367,cs),
(584,368,o),
(584,370,o),
(583,372,cs),
(542,483,o),
(454,535,o),
(328,535,cs),
(153,535,o),
(41,416,o),
(41,243,cs),
(41,71,o),
(152,-48,o),
(329,-48,cs)
);
},
{
closed = 1;
nodes = (
(331,770,ls),
(323,770,o),
(318,767,o),
(314,760,cs),
(232,612,ls),
(228,604,o),
(230,597,o),
(241,597,cs),
(346,597,ls),
(353,597,o),
(359,599,o),
(363,606,cs),
(466,756,l),
(472,763,o),
(470,770,o),
(459,770,cs)
);
}
);
vertWidth = 1000;
width = 626;
}
);
note = cid25725;
unicode = 263;
}
{
glyphname = Cdotaccent;
layers = (
{
hints = (
{
horizontal = 1;
place = (-52, 143);
place = (-52, 143);
type = Stem;
},
{
horizontal = 1;
place = (630, 143);
place = (630, 143);
type = Stem;
},
{
horizontal = 1;
place = (849, 144);
place = (849, 144);
type = Stem;
},
{
place = (61, 151);
place = (61, 151);
type = Stem;
},
{
place = (378, 148);
place = (378, 148);
type = Stem;
}
);
layerId = m01;
shapes = (
{
closed = 1;
nodes = (
(642,-52,o),
(766,52,o),
(808,201,cs),
(810,208,o),
(807,213,o),
(798,215,cs),
(683,248,ls),
(675,250,o),
(669,247,o),
(666,238,cs),
(630,138,o),
(554,91,o),
(453,91,cs),
(302,91,o),
(212,197,o),
(212,360,cs),
(212,523,o),
(301,630,o),
(453,630,cs),
(543,630,o),
(611,590,o),
(649,517,c),
(651,511,o),
(656,508,o),
(661,508,c),
(782,541,ls),
(789,543,o),
(792,547,o),
(792,554,cs),
(792,556,o),
(792,558,o),
(791,560,cs),
(738,695,o),
(617,773,o),
(451,773,cs),
(223,773,o),
(61,611,o),
(61,360,cs),
(61,110,o),
(216,-52,o),
(448,-52,cs)
);
},
{
closed = 1;
nodes = (
(412,993,o),
(378,960,o),
(378,920,cs),
(378,880,o),
(412,849,o),
(452,849,cs),
(492,849,o),
(526,880,o),
(526,920,cs),
(526,960,o),
(492,993,o),
(452,993,cs)
);
}
);
vertWidth = 1000;
width = 863;
}
);
note = cid25726;
unicode = 266;
}
{
glyphname = cdotaccent;
layers = (
{
hints = (
{
horizontal = 1;
place = (-48, 128);
place = (-48, 128);
type = Stem;
},
{
horizontal = 1;
place = (407, 128);
place = (407, 128);
type = Stem;
},
{
horizontal = 1;
place = (605, 143);
place = (605, 143);
type = Stem;
},
{
place = (41, 145);
place = (41, 145);
type = Stem;
},
{
place = (250, 148);
place = (250, 148);
type = Stem;
}
);
layerId = m01;
shapes = (
{
closed = 1;
nodes = (
(453,-48,o),
(548,5,o),
(592,121,cs),
(596,130,o),
(592,136,o),
(584,138,cs),
(481,163,l),
(473,166,o),
(467,162,o),
(462,155,c),
(439,105,o),
(395,80,o),
(337,80,cs),
(235,80,o),
(186,155,o),
(186,243,cs),
(186,332,o),
(235,407,o),
(337,407,cs),
(395,407,o),
(436,383,o),
(461,336,cs),
(465,330,o),
(470,326,o),
(475,326,c),
(573,354,ls),
(580,356,o),
(584,361,o),
(584,367,cs),
(584,368,o),
(584,370,o),
(583,372,cs),
(542,483,o),
(454,535,o),
(328,535,cs),
(153,535,o),
(41,416,o),
(41,243,cs),
(41,71,o),
(152,-48,o),
(329,-48,cs)
);
},
{
closed = 1;
nodes = (
(284,748,o),
(250,716,o),
(250,675,cs),
(250,636,o),
(284,605,o),
(324,605,cs),
(364,605,o),
(398,636,o),
(398,675,cs),
(398,716,o),
(364,748,o),
(324,748,cs)
);
}
);
vertWidth = 1000;
width = 626;
}
);
note = cid25727;
unicode = 267;
}
{
glyphname = Ccaron;
layers = (
{
hints = (
{
horizontal = 1;
place = (-52, 143);
place = (-52, 143);
type = Stem;
},
{
horizontal = 1;
place = (630, 143);
place = (630, 143);
type = Stem;
},
{
horizontal = 1;
place = (835, 177);
place = (835, 177);
type = Stem;
},
{
place = (61, 151);
place = (61, 151);
type = Stem;
}
);
layerId = m01;
shapes = (
{
closed = 1;
nodes = (
(642,-52,o),
(766,52,o),
(808,201,cs),
(810,208,o),
(807,213,o),
(798,215,cs),
(683,248,ls),
(675,250,o),
(669,247,o),
(666,238,cs),
(630,138,o),
(554,91,o),
(453,91,cs),
(302,91,o),
(212,197,o),
(212,360,cs),
(212,523,o),
(301,630,o),
(453,630,cs),
(543,630,o),
(611,590,o),
(649,517,c),
(651,511,o),
(656,508,o),
(661,508,c),
(782,541,ls),
(789,543,o),
(792,547,o),
(792,554,cs),
(792,556,o),
(792,558,o),
(791,560,cs),
(738,695,o),
(617,773,o),
(451,773,cs),
(223,773,o),
(61,611,o),
(61,360,cs),
(61,110,o),
(216,-52,o),
(448,-52,cs)
);
},
{
closed = 1;
nodes = (
(272,1012,ls),
(263,1012,o),
(261,1008,o),
(267,1001,cs),
(384,846,ls),
(390,839,o),
(397,835,o),
(407,835,cs),
(498,835,ls),
(507,835,o),
(514,839,o),
(520,846,cs),
(638,1001,ls),
(643,1008,o),
(642,1012,o),
(632,1012,cs),
(535,1012,ls),
(525,1012,o),
(518,1008,o),
(512,1001,cs),
(452,926,l),
(392,1001,ls),
(387,1008,o),
(379,1012,o),
(370,1012,cs)
);
}
);
vertWidth = 1000;
width = 863;
}
);
note = cid25728;
unicode = 268;
}
{
glyphname = ccaron;
layers = (
{
hints = (
{
horizontal = 1;
place = (-48, 128);
place = (-48, 128);
type = Stem;
},
{
horizontal = 1;
place = (407, 128);
place = (407, 128);
type = Stem;
},
{
horizontal = 1;
place = (591, 177);
place = (591, 177);
type = Stem;
},
{
place = (41, 145);
place = (41, 145);
type = Stem;
}
);
layerId = m01;
shapes = (
{
closed = 1;
nodes = (
(453,-48,o),
(548,5,o),
(592,121,cs),
(596,130,o),
(592,136,o),
(584,138,cs),
(481,163,l),
(473,166,o),
(467,162,o),
(462,155,c),
(439,105,o),
(395,80,o),
(337,80,cs),
(235,80,o),
(186,155,o),
(186,243,cs),
(186,332,o),
(235,407,o),
(337,407,cs),
(395,407,o),
(436,383,o),
(461,336,cs),
(465,330,o),
(470,326,o),
(475,326,c),
(573,354,ls),
(580,356,o),
(584,361,o),
(584,367,cs),
(584,368,o),
(584,370,o),
(583,372,cs),
(542,483,o),
(454,535,o),
(328,535,cs),
(153,535,o),
(41,416,o),
(41,243,cs),
(41,71,o),
(152,-48,o),
(329,-48,cs)
);
},
{
closed = 1;
nodes = (
(144,768,ls),
(135,768,o),
(133,764,o),
(139,757,cs),
(256,602,ls),
(262,594,o),
(269,591,o),
(279,591,cs),
(370,591,ls),
(379,591,o),
(386,594,o),
(392,602,cs),
(510,757,ls),
(515,764,o),
(513,768,o),
(504,768,cs),
(407,768,ls),
(397,768,o),
(390,764,o),
(384,757,cs),
(324,682,l),
(264,757,ls),
(259,764,o),
(251,768,o),
(242,768,cs)
);
}
);
vertWidth = 1000;
width = 626;
}
);
note = cid25729;
unicode = 269;
}
{
glyphname = Dcaron;
layers = (
{
hints = (
{
horizontal = 1;
place = (-37, 138);
place = (-37, 138);
type = Stem;
},
{
horizontal = 1;
place = (620, 138);
place = (620, 138);
type = Stem;
},
{
horizontal = 1;
place = (835, 177);
place = (835, 177);
type = Stem;
},
{
place = (87, 146);
place = (87, 146);
type = Stem;
},
{
place = (615, 152);
place = (615, 152);
type = Stem;
}
);
layerId = m01;
shapes = (
{
closed = 1;
nodes = (
(365,-37,ls),
(629,-37,o),
(767,111,o),
(767,360,cs),
(767,611,o),
(629,758,o),
(365,758,cs),
(101,758,ls),
(92,758,o),
(87,753,o),
(87,744,cs),
(87,-23,ls),
(87,-32,o),
(92,-37,o),
(101,-37,cs)
);
},
{
closed = 1;
nodes = (
(206,1012,ls),
(197,1012,o),
(195,1008,o),
(201,1001,cs),
(318,846,ls),
(324,839,o),
(331,835,o),
(341,835,cs),
(432,835,ls),
(441,835,o),
(448,839,o),
(454,846,cs),
(572,1001,ls),
(577,1008,o),
(576,1012,o),
(566,1012,cs),
(469,1012,ls),
(459,1012,o),
(452,1008,o),
(446,1001,cs),
(386,926,l),
(326,1001,ls),
(321,1008,o),
(313,1012,o),
(304,1012,cs)
);
},
{
closed = 1;
nodes = (
(233,101,l),
(233,620,l),
(349,620,ls),
(525,620,o),
(615,527,o),
(615,360,cs),
(615,194,o),
(525,101,o),
(349,101,cs)
);
}
);
vertWidth = 1000;
width = 827;
}
);
note = cid25730;
unicode = 270;
}
